<svg width="32" height="32" viewBox="0 0 32 32" fill="none" xmlns="http://www.w3.org/2000/svg">
<path d="M16.6613 16.8426C16.9682 17.0181 17.1928 17.3082 17.2858 17.6493C17.3788 17.9903 17.3326 18.3543 17.1573 18.6613L15.6306 21.3333H17.104C17.3609 21.3333 17.6134 21.4008 17.836 21.529C18.0587 21.6572 18.2437 21.8417 18.3727 22.0639C18.5016 22.2862 18.5699 22.5384 18.5707 22.7953C18.5715 23.0523 18.5048 23.3049 18.3773 23.528L15.824 27.9946C15.6441 28.2927 15.3548 28.5087 15.0179 28.5963C14.6809 28.6839 14.3231 28.6363 14.0208 28.4636C13.7185 28.2908 13.4958 28.0067 13.4002 27.6719C13.3046 27.3371 13.3438 26.9782 13.5093 26.672L15.036 24H13.5626C13.3057 24 13.0533 23.9325 12.8306 23.8043C12.6079 23.676 12.4229 23.4916 12.2939 23.2693C12.165 23.0471 12.0967 22.7949 12.0959 22.5379C12.0951 22.281 12.1618 22.0283 12.2893 21.8053L14.8426 17.3386C15.0181 17.0318 15.3083 16.8071 15.6493 16.7141C15.9903 16.6211 16.3543 16.6673 16.6613 16.8426ZM19.9986 24.668C20.0394 24.494 20.1147 24.3301 20.22 24.1858C20.3254 24.0416 20.4586 23.92 20.6119 23.8282C20.7651 23.7364 20.9352 23.6764 21.1121 23.6517C21.289 23.6269 21.4691 23.638 21.6416 23.6842C21.8142 23.7304 21.9757 23.8108 22.1166 23.9206C22.2574 24.0304 22.3748 24.1674 22.4617 24.3235C22.5486 24.4795 22.6033 24.6515 22.6224 24.8291C22.6416 25.0067 22.6249 25.1863 22.5733 25.3573L22.2293 26.6453C22.1847 26.8152 22.107 26.9745 22.0006 27.1143C21.8942 27.254 21.7613 27.3713 21.6094 27.4596C21.4576 27.5478 21.2898 27.6051 21.1157 27.6283C20.9416 27.6515 20.7647 27.64 20.595 27.5946C20.4254 27.5493 20.2664 27.4708 20.1271 27.3638C19.9879 27.2567 19.8712 27.1232 19.7837 26.971C19.6962 26.8187 19.6396 26.6507 19.6172 26.4765C19.5949 26.3023 19.6071 26.1254 19.6533 25.956L19.9986 24.668ZM6.95864 24.668C7.00325 24.4981 7.08097 24.3387 7.18735 24.199C7.29372 24.0593 7.42666 23.9419 7.57851 23.8537C7.73037 23.7655 7.89816 23.7081 8.07224 23.685C8.24632 23.6618 8.42327 23.6732 8.59292 23.7186C8.76257 23.764 8.92158 23.8425 9.06082 23.9495C9.20005 24.0565 9.31678 24.19 9.40428 24.3423C9.49179 24.4945 9.54835 24.6626 9.57072 24.8368C9.59309 25.011 9.58083 25.1879 9.53464 25.3573L9.18797 26.6453C9.08792 26.9769 8.86276 27.2566 8.56015 27.4251C8.25753 27.5936 7.90122 27.6377 7.56664 27.5481C7.23206 27.4585 6.94546 27.2423 6.76753 26.9451C6.5896 26.6479 6.53428 26.2932 6.61331 25.956L6.95864 24.668ZM15.3333 2.66663C17.0966 2.66608 18.8181 3.20341 20.268 4.20687C21.718 5.21033 22.8273 6.63218 23.448 8.28263C24.8931 8.67933 26.1978 9.47384 27.2136 10.5757C28.2293 11.6776 28.9152 13.0425 29.1933 14.5151C29.4713 15.9876 29.3303 17.5087 28.7862 18.9051C28.2422 20.3014 27.317 21.517 26.116 22.4133L26.152 22.3L26.5306 20.896C26.7581 20.0492 26.7011 19.1511 26.3683 18.3399C26.0355 17.5287 25.4454 16.8493 24.6887 16.4063C23.932 15.9632 23.0508 15.7811 22.1805 15.8879C21.3102 15.9947 20.4991 16.3845 19.872 16.9973C19.6729 16.2267 19.2485 15.5331 18.6531 15.005C18.0577 14.477 17.3182 14.1386 16.5294 14.033C15.7406 13.9275 14.9382 14.0597 14.2249 14.4127C13.5116 14.7657 12.9199 15.3235 12.5253 16.0146L12.1186 16.7306C11.5992 16.3169 10.985 16.0391 10.3314 15.9221C9.67776 15.8051 9.00529 15.8527 8.37463 16.0605C7.74398 16.2683 7.17499 16.6299 6.71899 17.1126C6.26299 17.5952 5.93432 18.1839 5.76264 18.8253L5.41731 20.1133C5.23556 20.7916 5.23556 21.5057 5.41731 22.184C5.3151 22.2862 5.21852 22.3939 5.12797 22.5066C4.24027 21.7852 3.55313 20.8475 3.13264 19.7837C2.71216 18.7198 2.57247 17.5657 2.72702 16.4323C2.88157 15.2989 3.32516 14.2244 4.01511 13.312C4.70507 12.3996 5.61819 11.6801 6.66664 11.2226C6.69575 8.94332 7.62167 6.76724 9.24384 5.16578C10.866 3.56433 13.0538 2.66644 15.3333 2.66663ZM23.012 18.5733C23.1811 18.6186 23.3397 18.6968 23.4786 18.8035C23.6175 18.9101 23.7341 19.043 23.8216 19.1947C23.9092 19.3464 23.966 19.5138 23.9888 19.6874C24.0116 19.8611 24 20.0375 23.9546 20.2066L23.6093 21.4946C23.5177 21.8362 23.2942 22.1275 22.9879 22.3042C22.6816 22.481 22.3176 22.5289 21.976 22.4373C21.6344 22.3457 21.3432 22.1222 21.1664 21.8159C20.9896 21.5096 20.9417 21.1456 21.0333 20.804L21.3786 19.516C21.424 19.3468 21.5022 19.1882 21.6088 19.0493C21.7154 18.9104 21.8484 18.7938 22 18.7063C22.1517 18.6188 22.3191 18.562 22.4928 18.5391C22.6664 18.5163 22.8428 18.5279 23.012 18.5733ZM9.97197 18.5733C10.1411 18.6186 10.2997 18.6968 10.4386 18.8035C10.5775 18.9101 10.6941 19.043 10.7816 19.1947C10.8692 19.3464 10.926 19.5138 10.9488 19.6874C10.9716 19.8611 10.96 20.0375 10.9146 20.2066L10.5693 21.4946C10.4777 21.8362 10.2542 22.1275 9.94787 22.3042C9.64156 22.481 9.27757 22.5289 8.93597 22.4373C8.59437 22.3457 8.30315 22.1222 8.12637 21.8159C7.94958 21.5096 7.90172 21.1456 7.99331 20.804L8.33864 19.516C8.38397 19.3468 8.46218 19.1882 8.5688 19.0493C8.67542 18.9104 8.80837 18.7938 8.96004 18.7063C9.11171 18.6188 9.27915 18.562 9.45278 18.5391C9.62641 18.5163 9.80283 18.5279 9.97197 18.5733Z" fill="#EDEFF0"/>
</svg>
