<svg width="20" height="20" viewBox="0 0 20 20" fill="none" xmlns="http://www.w3.org/2000/svg">
<mask id="mask0_2631_7690" style="mask-type:alpha" maskUnits="userSpaceOnUse" x="0" y="0" width="20" height="20">
<rect width="20" height="20" fill="#D9D9D9"/>
</mask>
<g mask="url(#mask0_2631_7690)">
<path d="M15.5833 9.98958C15.5833 8.89236 15.2916 7.88889 14.7083 6.97917C14.125 6.06944 13.3437 5.38542 12.3645 4.92708C12.1701 4.83681 12.0312 4.69792 11.9479 4.51042C11.8645 4.32292 11.8576 4.13194 11.927 3.9375C12.0034 3.72917 12.1388 3.57986 12.3333 3.48958C12.5277 3.39931 12.7257 3.39931 12.927 3.48958C14.2048 4.06597 15.2274 4.9375 15.9948 6.10417C16.7621 7.27083 17.1458 8.56597 17.1458 9.98958C17.1458 11.4132 16.7621 12.7083 15.9948 13.875C15.2274 15.0417 14.2048 15.9132 12.927 16.4896C12.7257 16.5799 12.5277 16.5799 12.3333 16.4896C12.1388 16.3993 12.0034 16.25 11.927 16.0417C11.8576 15.8472 11.8645 15.6562 11.9479 15.4688C12.0312 15.2812 12.1701 15.1424 12.3645 15.0521C13.3437 14.5938 14.125 13.9097 14.7083 13C15.2916 12.0903 15.5833 11.0868 15.5833 9.98958ZM6.08329 12.375H3.63538C3.4201 12.375 3.23607 12.2986 3.08329 12.1458C2.93051 11.9931 2.85413 11.809 2.85413 11.5938V8.40625C2.85413 8.19097 2.93051 8.00694 3.08329 7.85417C3.23607 7.70139 3.4201 7.625 3.63538 7.625H6.08329L8.74996 4.95833C8.99996 4.70833 9.28468 4.65104 9.60413 4.78646C9.92357 4.92188 10.0833 5.16319 10.0833 5.51042V14.4896C10.0833 14.8368 9.92357 15.0781 9.60413 15.2135C9.28468 15.349 8.99996 15.2917 8.74996 15.0417L6.08329 12.375ZM13.7708 10C13.7708 10.5833 13.6319 11.1337 13.3541 11.651C13.0763 12.1684 12.7048 12.5833 12.2395 12.8958C12.1076 12.9722 11.9757 12.974 11.8437 12.901C11.7118 12.8281 11.6458 12.7153 11.6458 12.5625V7.41667C11.6458 7.26389 11.7118 7.15104 11.8437 7.07813C11.9757 7.00521 12.1076 7.00694 12.2395 7.08333C12.7048 7.40278 13.0763 7.82292 13.3541 8.34375C13.6319 8.86458 13.7708 9.41667 13.7708 10Z" fill="#D3E3FF"/>
</g>
</svg>
