<svg width="20" height="20" viewBox="0 0 20 20" fill="none" xmlns="http://www.w3.org/2000/svg">
<mask id="mask0_2628_7152" style="mask-type:alpha" maskUnits="userSpaceOnUse" x="0" y="0" width="20" height="20">
<rect width="20" height="20" fill="#D9D9D9"/>
</mask>
<g mask="url(#mask0_2628_7152)">
<path d="M13.7812 16.0416C13.6493 16.1249 13.5173 16.2013 13.3854 16.2708C13.2535 16.3402 13.1146 16.4096 12.9687 16.4791C12.7673 16.5694 12.566 16.5711 12.3646 16.4843C12.1632 16.3975 12.0243 16.2499 11.9479 16.0416C11.8715 15.8402 11.8802 15.6475 11.9739 15.4635C12.0677 15.2794 12.2153 15.1388 12.4166 15.0416C12.4583 15.0208 12.4982 14.9999 12.5364 14.9791C12.5746 14.9583 12.6146 14.9374 12.6562 14.9166L10.1146 12.3749V14.4895C10.1146 14.8367 9.95484 15.078 9.6354 15.2135C9.31595 15.3489 9.03123 15.2916 8.78123 15.0416L6.11456 12.3749H3.66665C3.45137 12.3749 3.26734 12.2985 3.11456 12.1458C2.96179 11.993 2.8854 11.8089 2.8854 11.5937V8.40617C2.8854 8.19089 2.96179 8.00686 3.11456 7.85409C3.26734 7.70131 3.45137 7.62492 3.66665 7.62492H5.36456L1.93748 4.19784C1.7847 4.04506 1.70831 3.86103 1.70831 3.64575C1.70831 3.43047 1.7847 3.24645 1.93748 3.09367C2.09026 2.94089 2.27429 2.8645 2.48956 2.8645C2.70484 2.8645 2.88887 2.94089 3.04165 3.09367L16.8958 16.9478C17.0486 17.1006 17.125 17.2846 17.125 17.4999C17.125 17.7152 17.0486 17.8992 16.8958 18.052C16.743 18.2048 16.559 18.2812 16.3437 18.2812C16.1285 18.2812 15.9444 18.2048 15.7916 18.052L13.7812 16.0416ZM15.6146 9.9895C15.6146 8.89228 15.3229 7.88881 14.7396 6.97909C14.1562 6.06936 13.375 5.38534 12.3958 4.927C12.2014 4.83672 12.0625 4.69784 11.9791 4.51034C11.8958 4.32284 11.8889 4.13186 11.9583 3.93742C12.0347 3.72909 12.1753 3.57978 12.3802 3.4895C12.585 3.39922 12.7916 3.4027 13 3.49992C14.2639 4.07631 15.276 4.94436 16.0364 6.10409C16.7969 7.26381 17.1771 8.55895 17.1771 9.9895C17.1771 10.4478 17.1337 10.8975 17.0469 11.3385C16.96 11.7794 16.8368 12.2048 16.6771 12.6145C16.566 12.9062 16.4062 13.0867 16.1979 13.1562C15.9896 13.2256 15.7916 13.2256 15.6041 13.1562C15.4166 13.0867 15.2691 12.9669 15.1614 12.7968C15.0538 12.6267 15.0521 12.4339 15.1562 12.2187C15.309 11.8645 15.4236 11.5034 15.5 11.1353C15.5764 10.7673 15.6146 10.3853 15.6146 9.9895ZM12.2708 7.08325C12.743 7.36797 13.1163 7.78811 13.3906 8.34367C13.6649 8.89922 13.8021 9.45131 13.8021 9.99992C13.8021 10.111 13.7969 10.2204 13.7864 10.328C13.776 10.4357 13.7569 10.5451 13.7291 10.6562C13.6944 10.8228 13.5955 10.927 13.4323 10.9687C13.2691 11.0103 13.125 10.9687 13 10.8437L11.9062 9.74992C11.8298 9.67353 11.7725 9.58846 11.7344 9.49471C11.6962 9.40096 11.6771 9.302 11.6771 9.19784V7.41659C11.6771 7.26381 11.743 7.15096 11.875 7.07804C12.0069 7.00513 12.1389 7.00686 12.2708 7.08325ZM8.21873 6.06242C8.14234 5.98603 8.10415 5.89575 8.10415 5.79159C8.10415 5.68742 8.14234 5.59714 8.21873 5.52075L8.78123 4.95825C9.03123 4.70825 9.31595 4.65096 9.6354 4.78638C9.95484 4.92179 10.1146 5.16311 10.1146 5.51034V7.02075C10.1146 7.20131 10.0347 7.32284 9.87498 7.38534C9.71526 7.44784 9.5729 7.41659 9.4479 7.29159L8.21873 6.06242Z" fill="#D3E3FF"/>
</g>
</svg>
