<svg width="16" height="16" viewBox="0 0 16 16" fill="none" xmlns="http://www.w3.org/2000/svg">
<path d="M13.44 7.26499C13.5425 6.99749 13.6 6.70499 13.6 6.39999C13.6 5.07499 12.525 3.99999 11.2 3.99999C10.7075 3.99999 10.2475 4.14999 9.8675 4.40499C9.175 3.20499 7.8825 2.39999 6.4 2.39999C4.19 2.39999 2.4 4.18999 2.4 6.39999C2.4 6.46749 2.4025 6.53499 2.405 6.60249C1.005 7.09499 0 8.42999 0 9.99999C0 11.9875 1.6125 13.6 3.6 13.6H12.8C14.5675 13.6 16 12.1675 16 10.4C16 8.85249 14.9 7.55999 13.44 7.26499Z" fill="#EDEFF0"/>
</svg>
