<svg width="14" height="14" viewBox="0 0 14 14" fill="none" xmlns="http://www.w3.org/2000/svg">
<path d="M7.00012 1.16666L7.04095 1.16841C7.24627 1.17348 7.44799 1.22347 7.63192 1.31488C7.81584 1.40629 7.97751 1.53689 8.10553 1.69749L8.16853 1.78382L11.0385 6.04566C12.1772 7.95141 11.7333 10.374 9.99087 11.7833C8.25953 13.1845 5.74128 13.1845 4.00937 11.7833C2.30778 10.4067 1.84462 8.06399 2.90045 6.15416L2.97862 6.01882L5.83287 1.78382C5.94078 1.62341 6.08137 1.48691 6.24645 1.38366C6.43441 1.26589 6.64741 1.19396 6.86828 1.17366L7.00012 1.16666ZM6.41678 3.00357L3.96328 6.64357C3.12328 8.04941 3.44995 9.83032 4.7432 10.8768C5.22657 11.2667 5.80354 11.5233 6.41678 11.6212V3.00357Z" fill="#EDEFF0"/>
</svg>
