<svg width="16" height="16" viewBox="0 0 16 16" fill="none" xmlns="http://www.w3.org/2000/svg">
<g clip-path="url(#clip0_147_1340)">
<path d="M7.99992 1.33334C5.41992 1.33334 3.33325 3.42001 3.33325 6.00001C3.33325 9.50001 7.99992 14.6667 7.99992 14.6667C7.99992 14.6667 12.6666 9.50001 12.6666 6.00001C12.6666 3.42001 10.5799 1.33334 7.99992 1.33334ZM7.99992 7.66668C7.55789 7.66668 7.13397 7.49108 6.82141 7.17852C6.50885 6.86596 6.33325 6.44204 6.33325 6.00001C6.33325 5.55798 6.50885 5.13406 6.82141 4.8215C7.13397 4.50894 7.55789 4.33334 7.99992 4.33334C8.44195 4.33334 8.86587 4.50894 9.17843 4.8215C9.49099 5.13406 9.66658 5.55798 9.66658 6.00001C9.66658 6.44204 9.49099 6.86596 9.17843 7.17852C8.86587 7.49108 8.44195 7.66668 7.99992 7.66668Z" fill="#EDEFF0"/>
</g>
<defs>
<clipPath id="clip0_147_1340">
<rect width="16" height="16" fill="white"/>
</clipPath>
</defs>
</svg>
