<svg width="200" height="200" viewBox="0 0 200 200" fill="none" xmlns="http://www.w3.org/2000/svg">
<g clip-path="url(#clip0_520_77)">
<path d="M100 116.667C113.833 116.667 124.917 105.5 124.917 91.6667L125 41.6667C125 27.8334 113.833 16.6667 100 16.6667C86.1667 16.6667 75 27.8334 75 41.6667V91.6667C75 105.5 86.1667 116.667 100 116.667ZM144.167 91.6667C144.167 116.667 123 134.167 100 134.167C77 134.167 55.8334 116.667 55.8334 91.6667H41.6667C41.6667 120.083 64.3334 143.583 91.6667 147.667V175H108.333V147.667C135.667 143.667 158.333 120.167 158.333 91.6667H144.167Z" fill="#EDEFF0"/>
</g>
<defs>
<clipPath id="clip0_520_77">
<rect width="200" height="200" fill="white"/>
</clipPath>
</defs>
</svg>
