<svg width="200" height="200" viewBox="0 0 200 200" fill="none" xmlns="http://www.w3.org/2000/svg">
<path d="M146.483 36.9334L129.817 28.1834C115.183 20.5084 107.867 16.6667 99.9998 16.6667C92.1332 16.6667 84.8165 20.5001 70.1832 28.1834L67.5082 29.5918L141.867 72.0834L175.333 55.3334C169.95 49.2334 161.267 44.6751 146.483 36.9167M181.233 66.3668L147.917 83.0334V108.333C147.917 109.991 147.258 111.581 146.086 112.753C144.914 113.925 143.324 114.583 141.667 114.583C140.009 114.583 138.419 113.925 137.247 112.753C136.075 111.581 135.417 109.991 135.417 108.333V89.2834L106.25 103.867V182.533C112.233 181.042 119.042 177.475 129.817 171.817L146.483 163.067C164.408 153.658 173.375 148.958 178.358 140.5C183.333 132.05 183.333 121.525 183.333 100.5V99.5251C183.333 83.7501 183.333 73.8834 181.233 66.3668ZM93.7498 182.533V103.867L18.7665 66.3668C16.6665 73.8834 16.6665 83.7501 16.6665 99.5084V100.483C16.6665 121.525 16.6665 132.05 21.6415 140.5C26.6248 148.958 35.5915 153.667 53.5165 163.075L70.1832 171.817C80.9582 177.475 87.7665 181.042 93.7498 182.533ZM24.6665 55.3417L99.9998 93.0084L128.425 78.8001L54.3748 36.4834L53.5165 36.9334C38.7415 44.6834 30.0498 49.2418 24.6665 55.3501" fill="#EDEFF0"/>
<circle cx="168.75" cy="68.75" r="31.25" fill="#F26E74"/>
</svg>
