<svg width="200" height="200" viewBox="0 0 200 200" fill="none" xmlns="http://www.w3.org/2000/svg">
<path d="M77.0833 183.333L73.75 156.667C71.9444 155.972 70.2444 155.139 68.65 154.167C67.0556 153.194 65.4917 152.153 63.9583 151.042L39.1667 161.458L16.25 121.875L37.7083 105.625C37.5694 104.653 37.5 103.717 37.5 102.817V97.1916C37.5 96.2861 37.5694 95.3472 37.7083 94.375L16.25 78.125L39.1667 38.5416L63.9583 48.9583C65.4861 47.8472 67.0833 46.8055 68.75 45.8333C70.4167 44.8611 72.0833 44.0277 73.75 43.3333L77.0833 16.6666H122.917L126.25 43.3333C128.056 44.0277 129.758 44.8611 131.358 45.8333C132.958 46.8055 134.519 47.8472 136.042 48.9583L160.833 38.5416L183.75 78.125L162.292 94.375C162.431 95.3472 162.5 96.2861 162.5 97.1916V102.808C162.5 103.714 162.361 104.653 162.083 105.625L183.542 121.875L160.625 161.458L136.042 151.042C134.514 152.153 132.917 153.194 131.25 154.167C129.583 155.139 127.917 155.972 126.25 156.667L122.917 183.333H77.0833ZM100.417 129.167C108.472 129.167 115.347 126.319 121.042 120.625C126.736 114.931 129.583 108.056 129.583 100C129.583 91.9444 126.736 85.0694 121.042 79.375C115.347 73.6805 108.472 70.8333 100.417 70.8333C92.2222 70.8333 85.3111 73.6805 79.6833 79.375C74.0556 85.0694 71.2444 91.9444 71.25 100C71.2556 108.056 74.0694 114.931 79.6917 120.625C85.3139 126.319 92.2222 129.167 100.417 129.167Z" fill="#EDEFF0"/>
</svg>
