<svg width="14" height="14" viewBox="0 0 14 14" fill="none" xmlns="http://www.w3.org/2000/svg">
<path d="M8.3125 10.9375C8.31237 11.1781 8.24612 11.414 8.12097 11.6195C7.99583 11.825 7.81661 11.9921 7.6029 12.1026C7.38919 12.2132 7.14922 12.2628 6.9092 12.2462C6.66918 12.2295 6.43836 12.1472 6.24195 12.0083C6.04554 11.8693 5.89111 11.679 5.79552 11.4582C5.69994 11.2374 5.66688 10.9946 5.69997 10.7563C5.73306 10.518 5.83101 10.2934 5.98312 10.107C6.13524 9.92058 6.33567 9.77957 6.5625 9.69938V2.1875C6.5625 2.07147 6.60859 1.96019 6.69064 1.87814C6.77269 1.79609 6.88397 1.75 7 1.75C7.11603 1.75 7.22731 1.79609 7.30936 1.87814C7.39141 1.96019 7.4375 2.07147 7.4375 2.1875V9.69938C7.69351 9.78989 7.91514 9.95757 8.07185 10.1793C8.22856 10.4011 8.31264 10.666 8.3125 10.9375Z" fill="#EDEFF0"/>
<path d="M4.8125 2.1875C4.8125 1.60734 5.04297 1.05094 5.45321 0.640704C5.86344 0.230468 6.41984 0 7 0C7.58016 0 8.13656 0.230468 8.5468 0.640704C8.95703 1.05094 9.1875 1.60734 9.1875 2.1875V8.79375C9.60954 9.22449 9.89502 9.77026 10.0081 10.3626C10.1213 10.9549 10.057 11.5675 9.82337 12.1234C9.58975 12.6794 9.1972 13.154 8.69493 13.4878C8.19267 13.8215 7.60305 13.9996 7 13.9996C6.39696 13.9996 5.80734 13.8215 5.30507 13.4878C4.8028 13.154 4.41025 12.6794 4.17664 12.1234C3.94302 11.5675 3.87874 10.9549 3.99186 10.3626C4.10498 9.77026 4.39046 9.22449 4.8125 8.79375V2.1875ZM7 0.875C6.6519 0.875 6.31807 1.01328 6.07192 1.25942C5.82578 1.50556 5.6875 1.8394 5.6875 2.1875V9.17612L5.54138 9.30737C5.21113 9.60271 4.97834 9.99135 4.87381 10.4219C4.76929 10.8524 4.79796 11.3045 4.95603 11.7184C5.11409 12.1323 5.39411 12.4884 5.75902 12.7397C6.12393 12.9909 6.55652 13.1255 6.99956 13.1255C7.4426 13.1255 7.8752 12.9909 8.24011 12.7397C8.60502 12.4884 8.88503 12.1323 9.0431 11.7184C9.20117 11.3045 9.22984 10.8524 9.12531 10.4219C9.02079 9.99135 8.788 9.60271 8.45775 9.30737L8.3125 9.17612V2.1875C8.3125 1.8394 8.17422 1.50556 7.92808 1.25942C7.68194 1.01328 7.3481 0.875 7 0.875Z" fill="#EDEFF0"/>
</svg>
