<svg width="16" height="16" viewBox="0 0 16 16" fill="none" xmlns="http://www.w3.org/2000/svg">
<path d="M13.34 2.41251C14.9625 3.73001 16 5.74501 16 8.00001C16 10.255 14.9625 12.2675 13.34 13.5875C13.0825 13.7975 12.705 13.7575 12.495 13.5C12.285 13.2425 12.325 12.865 12.5825 12.655C13.9375 11.555 14.8 9.88001 14.8 8.00001C14.8 6.12001 13.9375 4.44501 12.5825 3.34251C12.325 3.13251 12.2875 2.75501 12.495 2.49751C12.7025 2.24001 13.0825 2.20251 13.34 2.41001V2.41251ZM11.8275 4.27501C12.9075 5.15501 13.6 6.49751 13.6 8.00001C13.6 9.50251 12.9075 10.845 11.8275 11.725C11.57 11.935 11.1925 11.895 10.9825 11.6375C10.7725 11.38 10.8125 11.0025 11.07 10.7925C11.8825 10.1325 12.4 9.12751 12.4 8.00001C12.4 6.87251 11.8825 5.86751 11.07 5.20501C10.8125 4.99501 10.775 4.61751 10.9825 4.36001C11.19 4.10251 11.57 4.06501 11.8275 4.27251V4.27501ZM10.315 6.13751C10.8525 6.57751 11.2 7.24751 11.2 8.00001C11.2 8.75251 10.8525 9.42251 10.315 9.86251C10.0575 10.0725 9.68 10.0325 9.47 9.77501C9.26 9.51751 9.3 9.14001 9.5575 8.93001C9.8275 8.71001 10 8.37501 10 8.00001C10 7.62501 9.8275 7.29001 9.5575 7.06751C9.3 6.85751 9.2625 6.48001 9.47 6.22251C9.6775 5.96501 10.0575 5.92751 10.315 6.13501V6.13751ZM7.5275 2.47001C7.815 2.60001 8 2.88501 8 3.20001V12.8C8 13.115 7.815 13.4 7.5275 13.53C7.24 13.66 6.9025 13.6075 6.6675 13.3975L3.295 10.4H1.6C0.7175 10.4 0 9.68251 0 8.80001V7.20001C0 6.31751 0.7175 5.60001 1.6 5.60001H3.295L6.6675 2.60251C6.9025 2.39251 7.24 2.34251 7.5275 2.47001Z" fill="#EDEFF0"/>
</svg>
