<svg width="32" height="32" viewBox="0 0 32 32" fill="none" xmlns="http://www.w3.org/2000/svg">
<path d="M17.336 10.684C21.56 10.684 23.9574 13.48 24.3054 16.8574H24.412C25.0577 16.8565 25.6973 16.9828 26.2941 17.2292C26.891 17.4755 27.4335 17.837 27.8906 18.293C28.3477 18.749 28.7105 19.2906 28.9583 19.8869C29.2061 20.4831 29.334 21.1224 29.3347 21.768C29.3338 22.4136 29.2058 23.0527 28.9579 23.6488C28.7101 24.2449 28.3472 24.7864 27.8901 25.2422C27.433 25.6981 26.8906 26.0595 26.2938 26.3057C25.697 26.552 25.0576 26.6783 24.412 26.6774H10.2587C9.61311 26.6783 8.97368 26.552 8.37691 26.3057C7.78013 26.0595 7.23771 25.6981 6.7806 25.2422C6.32348 24.7864 5.96064 24.2449 5.71278 23.6488C5.46492 23.0527 5.33689 22.4136 5.33602 21.768C5.33672 21.1224 5.46461 20.4831 5.7124 19.8869C5.96018 19.2906 6.323 18.749 6.78012 18.293C7.23725 17.837 7.77974 17.4755 8.3766 17.2292C8.97346 16.9828 9.613 16.8565 10.2587 16.8574H10.3654C10.716 13.4574 13.112 10.684 17.336 10.684ZM8.78535 5.34005C9.84793 5.39746 10.8819 5.7054 11.8027 6.23872C13.1545 7.01704 14.1948 8.23973 14.7467 9.69872C12.1014 10.448 10.208 12.3667 9.42135 14.96L9.32935 15.288L9.25202 15.6054L8.97735 15.656C7.4754 15.9742 6.14395 16.8361 5.23869 18.076C4.28026 17.5683 3.45837 16.837 2.84269 15.944C2.7557 15.8178 2.69892 15.6732 2.67673 15.5215C2.65454 15.3698 2.66753 15.215 2.7147 15.0691C2.76187 14.9232 2.84195 14.7901 2.94876 14.6801C3.05557 14.5701 3.18625 14.4862 3.33069 14.4347C5.52135 13.6507 6.70002 12.768 7.37602 11.48C8.11202 10.0734 8.24802 8.58138 7.75869 6.57738C7.72134 6.42556 7.72011 6.26709 7.7551 6.11471C7.79009 5.96233 7.86032 5.82027 7.96016 5.69995C8.05999 5.57963 8.18665 5.48439 8.32996 5.42189C8.47328 5.35938 8.62925 5.33135 8.78535 5.34005Z" fill="#EDEFF0"/>
</svg>
