<svg width="32" height="32" viewBox="0 0 32 32" fill="none" xmlns="http://www.w3.org/2000/svg">
<path d="M14.5653 21.056C14.6107 20.8868 14.6889 20.7283 14.7955 20.5894C14.9021 20.4504 15.0351 20.3339 15.1868 20.2464C15.3384 20.1588 15.5059 20.102 15.6795 20.0792C15.8531 20.0564 16.0295 20.0679 16.1987 20.1133C16.3678 20.1586 16.5264 20.2369 16.6653 20.3435C16.8042 20.4501 16.9207 20.5831 17.0083 20.7347C17.0958 20.8864 17.1526 21.0538 17.1754 21.2274C17.1983 21.4011 17.1867 21.5775 17.1413 21.7466L16.796 23.0346C16.7044 23.3762 16.4809 23.6674 16.1746 23.8442C15.8683 24.021 15.5043 24.0689 15.1627 23.9773C14.8211 23.8857 14.5298 23.6622 14.3531 23.3559C14.1763 23.0495 14.1284 22.6856 14.22 22.344L14.5653 21.056ZM15.3333 2.66663C17.0966 2.66608 18.8181 3.20341 20.2681 4.20687C21.718 5.21033 22.8273 6.63218 23.448 8.28263C25.3137 8.79716 26.9298 9.97039 27.9969 11.585C29.0639 13.1997 29.5097 15.1463 29.2517 17.0644C28.9936 18.9825 28.0492 20.7421 26.5933 22.0173C25.1374 23.2925 23.2687 23.9968 21.3333 24H19.288C19.3182 23.9102 19.3462 23.8182 19.372 23.724L19.7173 22.4373C19.9919 21.4125 19.8482 20.3206 19.3177 19.4018C19.055 18.9468 18.7053 18.5481 18.2885 18.2283C17.8718 17.9085 17.3961 17.6739 16.8887 17.538C15.8639 17.2634 14.772 17.4071 13.8532 17.9376C12.9344 18.4681 12.2639 19.3418 11.9893 20.3666L11.644 21.6546C11.4625 22.3325 11.4625 23.0461 11.644 23.724C11.5557 23.812 11.4716 23.9041 11.392 24H9.33333C7.80094 24.001 6.315 23.474 5.12558 22.5078C3.93617 21.5417 3.11592 20.1952 2.80289 18.6952C2.48985 17.1951 2.70314 15.633 3.40686 14.2717C4.11059 12.9105 5.26177 11.8332 6.66666 11.2213C6.69612 8.94222 7.6222 6.76648 9.24433 5.16531C10.8665 3.56414 13.0541 2.66644 15.3333 2.66663ZM15.76 26.8986C15.8108 26.7279 15.8268 26.5487 15.8072 26.3717C15.7876 26.1946 15.7327 26.0233 15.6458 25.8678C15.5588 25.7124 15.4416 25.5759 15.3011 25.4665C15.1605 25.357 14.9995 25.2769 14.8274 25.2307C14.6554 25.1846 14.4759 25.1734 14.2994 25.1978C14.123 25.2221 13.9532 25.2816 13.8001 25.3727C13.647 25.4638 13.5138 25.5847 13.4082 25.7281C13.3026 25.8716 13.2268 26.0347 13.1853 26.208L12.84 27.496C12.7484 27.8376 12.7963 28.2015 12.9731 28.5079C13.1498 28.8142 13.4411 29.0377 13.7827 29.1293C14.1243 29.2209 14.4883 29.173 14.7946 28.9962C15.1009 28.8195 15.3244 28.5282 15.416 28.1866L15.76 26.8986Z" fill="#EDEFF0"/>
</svg>
