<svg width="14" height="14" viewBox="0 0 14 14" fill="none" xmlns="http://www.w3.org/2000/svg">
<path d="M6.56249 5.6875H1.31248C1.25251 5.68763 1.19315 5.67543 1.13808 5.65165C1.08302 5.62788 1.03344 5.59303 0.992409 5.54929C0.951381 5.50554 0.919785 5.45382 0.899585 5.39735C0.879385 5.34088 0.871011 5.28086 0.874985 5.22101C0.884661 5.10832 0.936719 5.00349 1.02065 4.92768C1.10459 4.85186 1.21416 4.8107 1.32725 4.8125H6.12499C6.18496 4.81263 6.24432 4.80043 6.29939 4.77665C6.35445 4.75288 6.40403 4.71803 6.44506 4.67429C6.48609 4.63054 6.51768 4.57882 6.53789 4.52235C6.55809 4.46588 6.56646 4.40586 6.56249 4.34601C6.55281 4.23332 6.50075 4.12849 6.41682 4.05268C6.33288 3.97686 6.22331 3.9357 6.11022 3.9375H5.04709C5.01549 3.93783 4.98419 3.93132 4.95535 3.9184C4.92651 3.90548 4.90081 3.88646 4.88002 3.86266C4.85923 3.83885 4.84385 3.81083 4.83493 3.78051C4.82601 3.75019 4.82376 3.7183 4.82834 3.68703C4.87634 3.35515 5.01867 3.04405 5.23841 2.79075C5.45815 2.53745 5.74603 2.35261 6.06781 2.25824C6.38959 2.16386 6.7317 2.16392 7.05344 2.25841C7.37518 2.3529 7.66301 2.53784 7.88265 2.79122C8.1023 3.0446 8.24452 3.35575 8.2924 3.68765C8.34028 4.01954 8.29179 4.3582 8.15271 4.66333C8.01362 4.96846 7.78981 5.2272 7.50789 5.40877C7.22597 5.59034 6.89781 5.68709 6.56249 5.6875ZM13.1206 5.56226C13.0898 5.13172 12.901 4.72774 12.5904 4.42797C12.2798 4.1282 11.8694 3.95379 11.4381 3.93825C11.0067 3.92272 10.5848 4.06716 10.2535 4.34381C9.92212 4.62046 9.70472 5.00981 9.64303 5.43703C9.63845 5.4683 9.64069 5.50019 9.64961 5.53051C9.65854 5.56083 9.67392 5.58885 9.69471 5.61266C9.7155 5.63646 9.7412 5.65548 9.77004 5.6684C9.79888 5.68132 9.83018 5.68783 9.86178 5.6875H10.9249C11.0378 5.68598 11.1471 5.72726 11.2308 5.80305C11.3145 5.87884 11.3664 5.98351 11.3761 6.09601C11.3801 6.15586 11.3717 6.21588 11.3515 6.27235C11.3313 6.32882 11.2997 6.38054 11.2587 6.42429C11.2176 6.46803 11.168 6.50288 11.113 6.52665C11.0579 6.55043 10.9986 6.56263 10.9386 6.5625H1.76475C1.65166 6.5607 1.54209 6.60186 1.45815 6.67768C1.37422 6.75349 1.32216 6.85832 1.31248 6.97101C1.30851 7.03086 1.31688 7.09088 1.33708 7.14735C1.35729 7.20382 1.38888 7.25554 1.42991 7.29929C1.47094 7.34303 1.52052 7.37788 1.57558 7.40165C1.63065 7.42543 1.69001 7.43763 1.74998 7.4375H11.375C11.6154 7.43751 11.8532 7.38801 12.0736 7.29207C12.294 7.19613 12.4922 7.05582 12.656 6.87988C12.8198 6.70394 12.9456 6.49614 13.0255 6.26945C13.1054 6.04275 13.1378 5.80202 13.1206 5.56226ZM8.31249 8.3125H2.20225C2.08916 8.3107 1.97959 8.35186 1.89565 8.42768C1.81172 8.50349 1.75966 8.60832 1.74998 8.72101C1.74601 8.78086 1.75438 8.84088 1.77458 8.89735C1.79479 8.95382 1.82638 9.00554 1.86741 9.04929C1.90844 9.09303 1.95802 9.12788 2.01308 9.15165C2.06815 9.17543 2.12751 9.18763 2.18748 9.1875H7.86022C7.97313 9.18598 8.08242 9.22726 8.16612 9.30305C8.24983 9.37884 8.30173 9.48351 8.31139 9.59601C8.31536 9.65586 8.30699 9.71588 8.28679 9.77235C8.26659 9.82882 8.235 9.88054 8.19397 9.92429C8.15294 9.96803 8.10335 10.0029 8.04829 10.0267C7.99323 10.0504 7.93387 10.0626 7.87389 10.0625H6.79709C6.76549 10.0622 6.73419 10.0687 6.70535 10.0816C6.67651 10.0945 6.65081 10.1135 6.63002 10.1373C6.60923 10.1611 6.59385 10.1892 6.58493 10.2195C6.57601 10.2498 6.57376 10.2817 6.57834 10.313C6.62634 10.6448 6.76867 10.9559 6.98841 11.2092C7.20815 11.4626 7.49603 11.6474 7.81781 11.7418C8.13959 11.8361 8.4817 11.8361 8.80344 11.7416C9.12519 11.6471 9.41301 11.4622 9.63265 11.2088C9.8523 10.9554 9.99452 10.6442 10.0424 10.3124C10.0903 9.98046 10.0418 9.64179 9.90271 9.33667C9.76363 9.03154 9.53981 8.7728 9.25789 8.59123C8.97597 8.40966 8.64781 8.31291 8.31249 8.3125Z" fill="#EDEFF0"/>
</svg>
