<svg width="200" height="200" viewBox="0 0 200 200" fill="none" xmlns="http://www.w3.org/2000/svg">
<g clip-path="url(#clip0_72_68)">
<path d="M87.4999 63.9167V29.1667C87.4999 22.2501 93.0832 16.6667 99.9999 16.6667C106.917 16.6667 112.5 22.2501 112.5 29.1667V75.0001L183.333 116.667V133.333L145.917 122.333L87.4999 63.9167ZM164.833 188.417L176.583 176.667L112.5 112.5L79.6666 79.6667L23.4166 23.4167L11.5833 35.1667L64.7499 88.3334L16.6666 116.667V133.333L87.4999 112.5V158.333L66.6666 170.833V183.333L99.9999 175L133.333 183.333V170.833L112.5 158.333V136.083L164.833 188.417Z" fill="#EDEFF0"/>
</g>
<defs>
<clipPath id="clip0_72_68">
<rect width="200" height="200" fill="white"/>
</clipPath>
</defs>
</svg>
