<svg width="14" height="14" viewBox="0 0 14 14" fill="none" xmlns="http://www.w3.org/2000/svg">
<path fill-rule="evenodd" clip-rule="evenodd" d="M10.295 8.60509C10.4262 8.73636 10.4999 8.91438 10.4999 9.09999C10.4999 9.28561 10.4262 9.46362 10.295 9.59489L7.49496 12.3949C7.36369 12.5261 7.18567 12.5998 7.00006 12.5998C6.81444 12.5998 6.63643 12.5261 6.50516 12.3949L3.70516 9.59489C3.6383 9.53032 3.58497 9.45308 3.54829 9.36768C3.5116 9.28227 3.49229 9.19042 3.49148 9.09747C3.49067 9.00453 3.50838 8.91235 3.54358 8.82633C3.57878 8.7403 3.63076 8.66214 3.69648 8.59642C3.76221 8.53069 3.84036 8.47872 3.92639 8.44352C4.01242 8.40832 4.10459 8.39061 4.19754 8.39142C4.29048 8.39223 4.38234 8.41154 4.46774 8.44822C4.55314 8.48491 4.63038 8.53824 4.69496 8.60509L6.30006 10.2102V2.09999C6.30006 1.91434 6.37381 1.73629 6.50508 1.60502C6.63636 1.47374 6.81441 1.39999 7.00006 1.39999C7.18571 1.39999 7.36376 1.47374 7.49503 1.60502C7.62631 1.73629 7.70006 1.91434 7.70006 2.09999V10.2102L9.30516 8.60509C9.43643 8.47386 9.61444 8.40014 9.80006 8.40014C9.98567 8.40014 10.1637 8.47386 10.295 8.60509Z" fill="#EDEFF0" />
</svg>
