
<svg width="20" height="20" viewBox="0 0 20 20" fill="none" xmlns="http://www.w3.org/2000/svg">
<g clip-path="url(#clip0_2636_2723)">
<mask id="mask0_2636_2723" style="mask-type:alpha" maskUnits="userSpaceOnUse" x="0" y="0" width="20" height="20">
<rect width="20" height="20" fill="#D9D9D9"/>
</mask>
<g mask="url(#mask0_2636_2723)">
<path d="M3.32284 15.5C2.4577 15.5 1.72228 15.1972 1.11659 14.5917C0.51103 13.986 0.208252 13.2506 0.208252 12.3854V7.59375C0.208252 6.73431 0.51103 6.00382 1.11659 5.40229C1.72228 4.80076 2.4577 4.5 3.32284 4.5H13.7603C14.6198 4.5 15.3503 4.80076 15.9518 5.40229C16.5533 6.00382 16.8541 6.73431 16.8541 7.59375V12.3854C16.8541 13.2506 16.5533 13.986 15.9518 14.5917C15.3503 15.1972 14.6198 15.5 13.7603 15.5H3.32284ZM17.6353 12.3438V7.66667H18.5312C18.8714 7.66667 19.1666 7.79167 19.4166 8.04167C19.6666 8.29167 19.7916 8.58681 19.7916 8.92708V11.0833C19.7916 11.4236 19.6666 11.7188 19.4166 11.9688C19.1666 12.2188 18.8714 12.3438 18.5312 12.3438H17.6353Z" fill="#D3E3FF"/>
<path d="M1.11659 14.5917C1.72228 15.1972 2.4577 15.5 3.32284 15.5H9.99994V4.5H3.32284C2.4577 4.5 1.72228 4.80076 1.11659 5.40229C0.51103 6.00382 0.208252 6.73431 0.208252 7.59375V12.3854C0.208252 13.2506 0.51103 13.986 1.11659 14.5917Z" fill="#D3E3FF"/>
</g>
</g>
<defs>
<clipPath id="clip0_2636_2723">
<rect width="20" height="20" fill="white"/>
</clipPath>
</defs>
</svg>
