<svg width="20" height="20" viewBox="0 0 20 20" fill="none" xmlns="http://www.w3.org/2000/svg">
<path d="M14.5739 4.5C15.1602 4.5 15.6723 4.68993 16.1103 5.06966L12.4375 9.26362C12.2512 9.47645 12.0563 9.79533 12.001 10.221C11.9441 10.6592 12.0568 11.0426 12.2131 11.3278C12.5713 11.9815 13.1718 12.2128 13.6967 12.2128H14.4985L14.1445 14.0601C14.0795 14.3609 14.0736 14.779 14.2988 15.187C14.3676 15.3117 14.447 15.4147 14.5298 15.5H3.30439C2.60876 15.5 2.01746 15.2326 1.53052 14.6979C1.04357 14.1632 0.800049 13.5139 0.800049 12.75V7.25C0.800049 6.48612 1.04357 5.83684 1.53052 5.30212C2.01746 4.76741 2.60876 4.50001 3.30439 4.5H14.5739Z" fill="#D3E3FF"/>
</svg>
