<svg width="20" height="20" viewBox="0 0 20 20" fill="none" xmlns="http://www.w3.org/2000/svg">
<g clip-path="url(#clip0_2896_9640)">
<path d="M15.4525 14.5976C15.5749 14.6422 15.677 14.6199 15.7588 14.5306L19.883 9.82133C20.0146 9.67254 20.0352 9.51631 19.9449 9.35264C19.8545 9.18896 19.703 9.10713 19.4902 9.10713H17.2072L17.87 5.64771C17.9034 5.52868 17.8586 5.44684 17.7355 5.4022C17.6124 5.35756 17.51 5.37988 17.4281 5.46916L13.304 10.1784C13.1737 10.3272 13.1534 10.4835 13.2431 10.6471C13.3328 10.8108 13.484 10.8926 13.6967 10.8926H15.9798L15.317 14.3521C15.2849 14.4711 15.3301 14.5529 15.4525 14.5976Z" fill="#D3E3FF"/>
</g>
<defs>
<clipPath id="clip0_2896_9640">
<rect width="20" height="20" fill="white"/>
</clipPath>
</defs>
</svg>
