<svg width="200" height="200" viewBox="0 0 200 200" fill="none" xmlns="http://www.w3.org/2000/svg">
<path d="M172.953 173.375C171.726 174.49 170.107 175.071 168.452 174.992C166.796 174.913 165.24 174.18 164.125 172.953L143.461 150.219L103.75 180C102.759 180.742 101.57 181.173 100.333 181.239C99.0965 181.304 97.8684 181.001 96.8046 180.367C95.8541 179.776 95.073 178.948 94.5377 177.965C94.0023 176.982 93.7309 175.877 93.7499 174.758V112.5L53.7499 142.5C52.4307 143.489 50.7742 143.917 49.1412 143.69C47.5082 143.463 46.0309 142.6 45.0312 141.289C44.0501 139.912 43.6486 138.205 43.913 136.535C44.1775 134.865 45.0867 133.366 46.4452 132.359L94.4687 96.3359L39.1249 35.4531C38.0335 34.2228 37.471 32.6119 37.5593 30.9697C37.6477 29.3274 38.3798 27.7862 39.5969 26.6801C40.814 25.574 42.418 24.9922 44.0612 25.0609C45.7044 25.1295 47.2543 25.8431 48.3749 27.0468L173.375 164.547C174.49 165.773 175.071 167.393 174.992 169.048C174.913 170.704 174.18 172.26 172.953 173.375ZM121.094 88.4531C121.617 89.0288 122.336 89.3886 123.11 89.4623C123.885 89.536 124.659 89.3182 125.281 88.8515L153.75 67.5C154.526 66.9178 155.156 66.1629 155.59 65.295C156.024 64.4272 156.25 63.4702 156.25 62.5C156.25 61.5297 156.024 60.5727 155.59 59.7049C155.156 58.837 154.526 58.0821 153.75 57.5L103.75 20C102.616 19.1441 101.224 18.7002 99.8039 18.7414C98.3837 18.7826 97.02 19.3064 95.9374 20.2265C95.2343 20.8449 94.6744 21.609 94.2966 22.4658C93.9189 23.3225 93.7323 24.2513 93.7499 25.1875V57.1718C93.7414 57.9449 94.0198 58.6936 94.5312 59.2734L121.094 88.4531Z" fill="#EDEFF0"/>
</svg>
