<svg width="200" height="200" viewBox="0 0 200 200" fill="none" xmlns="http://www.w3.org/2000/svg">
<g clip-path="url(#clip0_72_146)">
<path d="M166.667 72.4167V33.3333H127.583L100 5.75L72.4167 33.3333H33.3333V72.4167L5.75 100L33.3333 127.583V166.667H72.4167L100 194.25L127.583 166.667H166.667V127.583L194.25 100L166.667 72.4167ZM100 150C72.4167 150 50 127.583 50 100C50 72.4167 72.4167 50 100 50C127.583 50 150 72.4167 150 100C150 127.583 127.583 150 100 150ZM100 66.6667C81.5833 66.6667 66.6667 81.5833 66.6667 100C66.6667 118.417 81.5833 133.333 100 133.333C118.417 133.333 133.333 118.417 133.333 100C133.333 81.5833 118.417 66.6667 100 66.6667Z" fill="#EDEFF0"/>
</g>
<defs>
<clipPath id="clip0_72_146">
<rect width="200" height="200" fill="white"/>
</clipPath>
</defs>
</svg>
