<svg width="200" height="200" viewBox="0 0 200 200" fill="none" xmlns="http://www.w3.org/2000/svg">
<path d="M150 66.6664V83.3328H158.334C172.141 83.3328 183.334 94.5258 183.334 108.333V116.666C183.334 130.473 172.141 141.666 158.334 141.666L150 141.666V150C150 168.409 135.076 183.333 116.667 183.333H75.0002C56.5908 183.333 41.667 168.409 41.667 150V66.6664H150ZM158.334 99.9996H150V125H158.334C162.936 125 166.667 121.269 166.667 116.666V108.333C166.667 103.73 162.936 99.9996 158.334 99.9996ZM65.4783 15.9883C74.1045 20.9688 77.06 31.9988 72.0799 40.625C70.551 43.2723 71.4584 46.6574 74.1057 48.1859L67.8557 59.0109C59.2295 54.0312 56.2736 43.0008 61.2541 34.375C62.783 31.7277 61.8756 28.3426 59.2283 26.8141L65.4783 15.9883ZM90.4783 15.9883C99.1045 20.9688 102.06 31.9988 97.0799 40.625C95.5514 43.2723 96.4584 46.6574 99.1057 48.1859L92.8557 59.0109C84.2295 54.0312 81.2736 43.0008 86.2541 34.375C87.7826 31.7277 86.8756 28.3426 84.2283 26.8141L90.4783 15.9883ZM115.478 15.9883C124.104 20.9688 127.06 31.9988 122.08 40.625C120.551 43.2723 121.458 46.6574 124.106 48.1859L117.856 59.0109C109.229 54.0312 106.274 43.0008 111.254 34.375C112.783 31.7277 111.876 28.3426 109.228 26.8141L115.478 15.9883Z" fill="#EDEFF0"/>
</svg>
