<svg width="200" height="200" viewBox="0 0 200 200" fill="none" xmlns="http://www.w3.org/2000/svg">
<path d="M100 131.25C113.807 131.25 125 120.057 125 106.25C125 92.4429 113.807 81.25 100 81.25C86.1929 81.25 75 92.4429 75 106.25C75 120.057 86.1929 131.25 100 131.25Z" fill="#EDEFF0"/>
<path d="M168.75 56.25H145.703C144.531 56.25 143.078 55.4922 141.945 54.2969L131.812 38.3047C131.652 38.0509 131.473 37.8093 131.277 37.582C127.777 33.5 123.047 31.25 117.969 31.25H82.0312C76.9531 31.25 72.2227 33.5 68.7227 37.582C68.5266 37.8093 68.3477 38.0509 68.1875 38.3047L58.0547 54.3203C57.1875 55.2656 55.9688 56.2734 54.6875 56.2734V53.1484C54.6875 51.4908 54.029 49.9011 52.8569 48.729C51.6848 47.5569 50.0951 46.8984 48.4375 46.8984H39.0625C37.4049 46.8984 35.8152 47.5569 34.6431 48.729C33.471 49.9011 32.8125 51.4908 32.8125 53.1484V56.2734H31.25C26.2788 56.2786 21.5126 58.2557 17.9975 61.7709C14.4823 65.2861 12.5052 70.0522 12.5 75.0234V150C12.5052 154.971 14.4823 159.737 17.9975 163.253C21.5126 166.768 26.2788 168.745 31.25 168.75H168.75C173.721 168.745 178.487 166.768 182.003 163.253C185.518 159.737 187.495 154.971 187.5 150V75C187.495 70.0288 185.518 65.2626 182.003 61.7475C178.487 58.2323 173.721 56.2552 168.75 56.25ZM100 143.75C92.5832 143.75 85.333 141.551 79.1661 137.43C72.9993 133.31 68.1928 127.453 65.3545 120.601C62.5162 113.748 61.7736 106.208 63.2206 98.9341C64.6675 91.6598 68.239 84.978 73.4835 79.7335C78.728 74.489 85.4098 70.9175 92.6841 69.4706C99.9584 68.0236 107.498 68.7662 114.351 71.6045C121.203 74.4428 127.06 79.2493 131.18 85.4161C135.301 91.583 137.5 98.8332 137.5 106.25C137.489 116.192 133.534 125.724 126.504 132.754C119.474 139.784 109.942 143.739 100 143.75Z" fill="#EDEFF0"/>
</svg>
