<svg width="200" height="200" viewBox="0 0 200 200" fill="none" xmlns="http://www.w3.org/2000/svg">
<path d="M162.5 75C162.5 73.1458 163.05 71.3332 164.08 69.7915C165.11 68.2498 166.574 67.0482 168.287 66.3386C170 65.6291 171.885 65.4434 173.704 65.8051C175.523 66.1669 177.193 67.0597 178.504 68.3709C179.815 69.682 180.708 71.3524 181.07 73.171C181.432 74.9896 181.246 76.8746 180.536 78.5876C179.827 80.3007 178.625 81.7649 177.084 82.795C175.542 83.8252 173.729 84.375 171.875 84.375C169.389 84.375 167.004 83.3873 165.246 81.6291C163.488 79.871 162.5 77.4864 162.5 75ZM153.125 56.25C154.979 56.25 156.792 55.7002 158.334 54.67C159.875 53.6399 161.077 52.1757 161.786 50.4627C162.496 48.7496 162.682 46.8646 162.32 45.046C161.958 43.2275 161.065 41.557 159.754 40.2459C158.443 38.9347 156.773 38.0419 154.954 37.6801C153.135 37.3184 151.25 37.5041 149.537 38.2136C147.824 38.9232 146.36 40.1248 145.33 41.6665C144.3 43.2082 143.75 45.0208 143.75 46.875C143.75 49.3614 144.738 51.746 146.496 53.5041C148.254 55.2623 150.639 56.25 153.125 56.25ZM175.516 100C173.864 99.8638 172.227 100.389 170.962 101.46C169.698 102.531 168.911 104.06 168.773 105.711C167.655 118.777 162.828 131.252 154.86 141.668C146.892 152.083 136.115 160.007 123.797 164.505C111.479 169.004 98.1324 169.891 85.3274 167.062C72.5224 164.232 60.7919 157.804 51.5161 148.534C42.2402 139.264 35.805 127.538 32.9676 114.735C30.1302 101.931 31.0087 88.5841 35.4996 76.2632C39.9905 63.9423 47.9071 53.1604 58.3178 45.186C68.7285 37.2117 81.2003 32.3767 94.2657 31.25C95.0865 31.1823 95.8858 30.9536 96.6182 30.5769C97.3506 30.2003 98.0016 29.6831 98.5341 29.0548C99.0666 28.4266 99.4701 27.6996 99.7216 26.9154C99.9732 26.1312 100.068 25.3051 100 24.4844C99.9324 23.6636 99.7036 22.8642 99.327 22.1318C98.9503 21.3995 98.4331 20.7485 97.8049 20.216C97.1766 19.6835 96.4497 19.28 95.6655 19.0284C94.8813 18.7769 94.0552 18.6823 93.2344 18.75C77.7971 20.0779 63.0602 25.7871 50.7574 35.2059C38.4546 44.6248 29.0978 57.3614 23.7878 71.9174C18.4778 86.4734 17.4355 102.243 20.7836 117.371C24.1316 132.5 31.7307 146.357 42.6869 157.313C53.643 168.269 67.5003 175.868 82.6286 179.216C97.7568 182.565 113.527 181.522 128.083 176.212C142.639 170.902 155.375 161.545 164.794 149.243C174.213 136.94 179.922 122.203 181.25 106.766C181.321 105.944 181.228 105.117 180.978 104.332C180.727 103.546 180.324 102.818 179.791 102.189C179.258 101.561 178.606 101.043 177.872 100.668C177.138 100.292 176.337 100.065 175.516 100ZM100 43.75C111.125 43.75 122.001 47.049 131.251 53.2298C140.501 59.4107 147.711 68.1957 151.968 78.474C156.226 88.7524 157.34 100.062 155.169 110.974C152.999 121.885 147.642 131.908 139.775 139.775C131.908 147.641 121.885 152.999 110.974 155.169C100.062 157.34 88.7525 156.226 78.4741 151.968C68.1958 147.711 59.4107 140.501 53.2299 131.251C47.0491 122.001 43.7501 111.125 43.7501 100C43.7666 85.0866 49.6982 70.7888 60.2436 60.2435C70.7889 49.6982 85.0867 43.7665 100 43.75ZM93.7501 100C93.7501 101.658 94.4085 103.247 95.5807 104.419C96.7527 105.592 98.3425 106.25 100 106.25H137.5C139.158 106.25 140.747 105.592 141.919 104.419C143.092 103.247 143.75 101.658 143.75 100C143.75 98.3424 143.092 96.7527 141.919 95.5806C140.747 94.4085 139.158 93.75 137.5 93.75H106.25V62.5C106.25 60.8424 105.592 59.2527 104.419 58.0806C103.247 56.9085 101.658 56.25 100 56.25C98.3425 56.25 96.7527 56.9085 95.5807 58.0806C94.4085 59.2527 93.7501 60.8424 93.7501 62.5V100ZM125 37.5C126.854 37.5 128.667 36.9502 130.209 35.92C131.75 34.8899 132.952 33.4257 133.661 31.7127C134.371 29.9996 134.557 28.1146 134.195 26.296C133.833 24.4775 132.94 22.807 131.629 21.4959C130.318 20.1848 128.648 19.2919 126.829 18.9301C125.01 18.5684 123.125 18.7541 121.412 19.4636C119.699 20.1732 118.235 21.3748 117.205 22.9165C116.175 24.4582 115.625 26.2708 115.625 28.125C115.625 30.6114 116.613 32.996 118.371 34.7541C120.129 36.5123 122.514 37.5 125 37.5Z" fill="#EDEFF0"/>
</svg>
