<svg width="200" height="200" viewBox="0 0 200 200" fill="none" xmlns="http://www.w3.org/2000/svg">
<path d="M169.873 23.9891C160.11 14.226 144.281 14.226 134.518 23.9891L116.835 41.6711L110.942 35.7777C107.688 32.5234 102.412 32.5234 99.1567 35.7777C95.9025 39.0321 95.9025 44.3085 99.1567 47.5629L146.298 94.7034C149.552 97.9576 154.828 97.9576 158.083 94.7034C161.337 91.4492 161.337 86.1726 158.083 82.9182L152.191 77.0264L169.873 59.3444C179.636 49.5813 179.636 33.7521 169.873 23.9891Z" fill="#EDEFF0"/>
<path fill-rule="evenodd" clip-rule="evenodd" d="M99.4143 59.093L34.5959 123.911C26.8989 131.608 25.27 143.075 29.7093 152.368L16.6663 165.411L28.4513 177.196L41.4943 164.153C50.7871 168.593 62.2543 166.963 69.9513 159.267L134.769 94.4484L99.4143 59.093ZM111.199 94.4484L99.4143 82.6633L46.381 135.696C43.1266 138.951 43.1266 144.227 46.381 147.482C49.6353 150.736 54.9118 150.736 58.1661 147.482L111.199 94.4484Z" fill="#EDEFF0"/>
</svg>
