<svg width="200" height="207" viewBox="0 0 200 207" fill="none" xmlns="http://www.w3.org/2000/svg">
<g clip-path="url(#clip0_2405_70)">
<path d="M193.776 69.2966C189.425 58.8302 180.601 47.5296 173.69 43.9575C178.618 53.5021 182.039 63.7522 183.83 74.3435L183.848 74.5114C172.527 46.2923 153.33 34.9143 137.652 10.1384C136.842 8.8754 136.056 7.59751 135.294 6.30534C134.901 5.63032 134.533 4.94116 134.191 4.23924C133.54 2.98022 133.039 1.64953 132.697 0.274217C132.698 0.210682 132.675 0.14915 132.633 0.101431C132.591 0.0537118 132.533 0.0231681 132.47 0.0156623C132.408 0.000313095 132.343 0.000313095 132.281 0.0156623C132.269 0.0156623 132.248 0.0390962 132.232 0.0445642C132.216 0.0500321 132.183 0.0726849 132.16 0.0828396L132.198 0.0156623C107.05 14.7392 98.5164 41.9945 97.7312 55.6276C87.688 56.3173 78.0858 60.0176 70.1773 66.2455C69.3524 65.5464 68.49 64.893 67.5937 64.288C65.312 56.304 65.2148 47.8541 67.3125 39.8198C58.0767 44.2929 49.8702 50.6343 43.2125 58.4428H43.1656C39.1977 53.4138 39.4766 36.8312 39.7039 33.3669C38.5302 33.8391 37.4097 34.434 36.3609 35.1416C32.8581 37.6415 29.5834 40.4462 26.575 43.5232C23.1474 46.9985 20.0167 50.7545 17.2156 54.7519V54.7668V54.7488C10.7796 63.874 6.21392 74.1829 3.78203 85.0809L3.64844 85.7418C3.27896 87.8189 2.95077 89.9031 2.66406 91.9932C2.66406 92.0682 2.64844 92.1377 2.64063 92.2127C1.76381 96.7671 1.2207 101.379 1.01562 106.013V106.53C1.08281 183.597 84.5656 231.691 151.284 193.099C163.982 185.754 174.91 175.709 183.296 163.676C191.683 151.642 197.322 137.912 199.816 123.459C199.984 122.168 200.12 120.889 200.27 119.584C202.332 102.543 200.1 85.2557 193.776 69.2966ZM78.3766 147.658C78.8445 147.883 79.2836 148.126 79.7641 148.34L79.8336 148.385C79.3443 148.15 78.8586 147.908 78.3766 147.658ZM183.855 74.5349V74.4388L183.873 74.545L183.855 74.5349Z" fill="url(#paint0_linear_2405_70)"/>
<path d="M193.776 69.2965C189.425 58.8302 180.601 47.5295 173.69 43.9574C178.618 53.502 182.039 63.7522 183.83 74.3434V74.4387L183.848 74.545C191.565 96.6255 190.448 120.834 180.732 142.111C169.257 166.729 141.48 191.962 98.0023 190.734C51.0242 189.404 9.65156 154.55 1.91719 108.898C0.509375 101.699 1.91719 98.05 2.625 92.1993C1.65906 96.7436 1.12026 101.368 1.01562 106.013V106.53C1.08281 183.597 84.5656 231.691 151.284 193.099C163.982 185.754 174.91 175.709 183.296 163.675C191.683 151.642 197.322 137.912 199.816 123.459C199.984 122.167 200.12 120.889 200.27 119.584C202.332 102.542 200.1 85.2556 193.776 69.2965Z" fill="url(#paint1_radial_2405_70)"/>
<path d="M193.776 69.2965C189.425 58.8302 180.601 47.5295 173.69 43.9574C178.618 53.502 182.039 63.7522 183.83 74.3434V74.4387L183.848 74.545C191.565 96.6255 190.448 120.834 180.732 142.111C169.257 166.729 141.48 191.962 98.0023 190.734C51.0242 189.404 9.65156 154.55 1.91719 108.898C0.509375 101.699 1.91719 98.05 2.625 92.1993C1.65906 96.7436 1.12026 101.368 1.01562 106.013V106.53C1.08281 183.597 84.5656 231.691 151.284 193.099C163.982 185.754 174.91 175.709 183.296 163.675C191.683 151.642 197.322 137.912 199.816 123.459C199.984 122.167 200.12 120.889 200.27 119.584C202.332 102.542 200.1 85.2556 193.776 69.2965Z" fill="url(#paint2_radial_2405_70)"/>
<path d="M145.121 81.0643C145.338 81.2167 145.539 81.369 145.743 81.5213C143.228 77.0625 140.097 72.98 136.443 69.3942C105.324 38.2747 128.288 1.91924 132.16 0.0726476L132.199 0.015625C107.05 14.7392 98.5166 41.9944 97.7314 55.6275C98.8994 55.5471 100.056 55.4487 101.25 55.4487C110.174 55.4652 118.933 57.844 126.639 62.3433C134.345 66.8426 140.721 73.3019 145.121 81.0643Z" fill="url(#paint3_radial_2405_70)"/>
<path d="M101.315 87.279C101.149 89.7692 92.3502 98.357 89.2736 98.357C60.8025 98.357 56.1807 115.578 56.1807 115.578C57.4416 130.079 67.5478 142.022 79.7643 148.34C80.3221 148.63 80.8885 148.891 81.4541 149.146C82.4224 149.575 83.4027 149.977 84.3939 150.35C88.5865 151.833 92.9777 152.68 97.4213 152.863C147.324 155.203 156.992 93.1968 120.979 75.2034C129.475 74.098 138.078 76.1866 145.121 81.0643C140.721 73.3018 134.345 66.8425 126.639 62.3433C118.933 57.844 110.174 55.4651 101.25 55.4486C100.062 55.4486 98.8994 55.547 97.7314 55.6275C87.6882 56.3173 78.086 60.0175 70.1775 66.2454C71.7041 67.5374 73.4275 69.2629 77.0572 72.8397C83.851 79.5325 101.276 86.465 101.315 87.279Z" fill="url(#paint4_radial_2405_70)"/>
<path d="M101.315 87.279C101.149 89.7692 92.3502 98.357 89.2736 98.357C60.8025 98.357 56.1807 115.578 56.1807 115.578C57.4416 130.079 67.5478 142.022 79.7643 148.34C80.3221 148.63 80.8885 148.891 81.4541 149.146C82.4224 149.575 83.4027 149.977 84.3939 150.35C88.5865 151.833 92.9777 152.68 97.4213 152.863C147.324 155.203 156.992 93.1968 120.979 75.2034C129.475 74.098 138.078 76.1866 145.121 81.0643C140.721 73.3018 134.345 66.8425 126.639 62.3433C118.933 57.844 110.174 55.4651 101.25 55.4486C100.062 55.4486 98.8994 55.547 97.7314 55.6275C87.6882 56.3173 78.086 60.0175 70.1775 66.2454C71.7041 67.5374 73.4275 69.2629 77.0572 72.8397C83.851 79.5325 101.276 86.465 101.315 87.279Z" fill="url(#paint5_radial_2405_70)"/>
<path d="M65.5095 62.9163C66.2071 63.3602 66.896 63.8175 67.5759 64.288C65.2941 56.304 65.197 47.8541 67.2946 39.8198C58.0585 44.2928 49.8518 50.6343 43.1938 58.4428C43.6821 58.4295 58.2063 58.1686 65.5095 62.9163Z" fill="url(#paint6_radial_2405_70)"/>
<path d="M1.93029 108.898C9.65685 154.55 51.0373 189.404 98.0154 190.735C141.494 191.964 169.269 166.729 180.745 142.111C190.461 120.834 191.578 96.6256 183.861 74.545V74.4497C183.861 74.3747 183.845 74.3302 183.861 74.3537L183.879 74.5216C187.431 97.7087 175.635 120.173 157.195 135.363L157.138 135.493C121.209 164.75 86.824 153.145 79.8647 148.407C79.3751 148.173 78.8894 147.931 78.4076 147.682C57.4592 137.67 48.8053 118.587 50.66 102.221C45.6872 102.295 40.7999 100.925 36.5902 98.2774C32.3804 95.6298 29.029 91.8183 26.942 87.3048C32.4411 83.9367 38.7111 82.0327 45.1547 81.7741C51.5983 81.5156 58.0008 82.9111 63.7522 85.8277C75.6094 91.2095 89.102 91.7397 101.345 87.3048C101.307 86.4909 83.8818 79.556 77.0873 72.8664C73.4576 69.2888 71.735 67.5656 70.2084 66.2721C69.3835 65.5727 68.521 64.919 67.6248 64.3138C67.0303 63.9084 66.3615 63.4694 65.5584 62.9421C58.2553 58.1944 43.7311 58.4553 43.2506 58.4686H43.2045C39.2365 53.4396 39.5154 36.857 39.7428 33.3934C38.5691 33.8654 37.4486 34.4601 36.3998 35.1674C32.897 37.6672 29.6223 40.472 26.6139 43.5489C23.1739 47.0145 20.0301 50.7619 17.2154 54.7519V54.7668V54.7488C10.7794 63.874 6.21374 74.1829 3.78185 85.0809C3.73341 85.2848 0.1756 100.834 1.93029 108.898Z" fill="url(#paint7_radial_2405_70)"/>
<path d="M136.448 69.3942C140.103 72.9841 143.234 77.0711 145.748 81.5346C146.267 81.9212 146.768 82.3315 147.249 82.7641C169.949 103.686 158.055 133.261 157.169 135.366C175.609 120.176 187.394 97.7118 183.853 74.5239C172.527 46.2923 153.33 34.9143 137.652 10.1384C136.842 8.8754 136.056 7.59751 135.294 6.30534C134.901 5.63032 134.533 4.94116 134.19 4.23924C133.54 2.98022 133.039 1.64953 132.697 0.274217C132.697 0.210682 132.674 0.14915 132.633 0.101431C132.591 0.0537118 132.532 0.0231681 132.469 0.0156623C132.408 0.000313095 132.343 0.000313095 132.281 0.0156623C132.269 0.0156623 132.247 0.0390962 132.232 0.0445642C132.216 0.0500321 132.183 0.0726849 132.16 0.0828396C128.287 1.91928 105.324 38.2747 136.448 69.3942Z" fill="url(#paint8_radial_2405_70)"/>
<path d="M147.234 82.7508C146.752 82.3182 146.252 81.9079 145.733 81.5213C145.529 81.369 145.327 81.2167 145.11 81.0643C138.068 76.1867 129.464 74.098 120.969 75.2035C156.98 93.207 147.319 155.203 97.4109 152.863C92.9673 152.68 88.5762 151.833 84.3836 150.35C83.3917 149.979 82.4113 149.577 81.4438 149.146C80.8773 148.888 80.3117 148.63 79.7539 148.34L79.8234 148.385C86.7828 153.135 121.157 164.74 157.097 135.469L157.154 135.341C158.05 133.248 169.944 103.666 147.234 82.7508Z" fill="url(#paint9_radial_2405_70)"/>
<path d="M56.1807 115.578C56.1807 115.578 60.8025 98.357 89.2736 98.357C92.3502 98.357 101.157 89.7692 101.315 87.279C89.0718 91.7136 75.5792 91.1832 63.7221 85.8011C57.9706 82.8844 51.5679 81.489 45.1241 81.7477C38.6804 82.0064 32.4102 83.9106 26.9111 87.279C28.9981 91.7925 32.3495 95.604 36.5593 98.2515C40.769 100.899 45.6564 102.269 50.6291 102.195C48.7744 118.564 57.4283 137.647 78.3768 147.656C78.8447 147.881 79.2838 148.124 79.7643 148.338C67.5377 142.022 57.4416 130.079 56.1807 115.578Z" fill="url(#paint10_radial_2405_70)"/>
<path d="M193.776 69.2966C189.425 58.8302 180.601 47.5296 173.69 43.9575C178.618 53.5021 182.039 63.7522 183.83 74.3435L183.848 74.5114C172.527 46.2923 153.33 34.9143 137.652 10.1384C136.842 8.8754 136.056 7.59751 135.294 6.30534C134.901 5.63032 134.533 4.94116 134.191 4.23924C133.54 2.98022 133.039 1.64953 132.697 0.274217C132.698 0.210682 132.675 0.14915 132.633 0.101431C132.591 0.0537118 132.533 0.0231681 132.47 0.0156623C132.408 0.000313095 132.343 0.000313095 132.281 0.0156623C132.269 0.0156623 132.248 0.0390962 132.232 0.0445642C132.216 0.0500321 132.183 0.0726849 132.16 0.0828396L132.198 0.0156623C107.05 14.7392 98.5164 41.9945 97.7312 55.6276C98.8992 55.5471 100.056 55.4487 101.25 55.4487C110.173 55.4652 118.933 57.844 126.639 62.3433C134.345 66.8426 140.721 73.3019 145.12 81.0644C138.078 76.1867 129.474 74.0981 120.979 75.2035C156.991 93.2071 147.33 155.203 97.4211 152.863C92.9775 152.68 88.5863 151.833 84.3937 150.35C83.4018 149.979 82.4214 149.577 81.4539 149.146C80.8883 148.888 80.3219 148.63 79.7641 148.34L79.8336 148.385C79.3443 148.15 78.8586 147.908 78.3766 147.658C78.8445 147.883 79.2836 148.126 79.7641 148.34C67.5375 142.022 57.4414 130.079 56.1805 115.578C56.1805 115.578 60.8023 98.3571 89.2734 98.3571C92.35 98.3571 101.157 89.7693 101.315 87.279C101.276 86.4651 83.8508 79.5302 77.057 72.8398C73.4273 69.263 71.7039 67.5398 70.1773 66.2455C69.3524 65.5464 68.49 64.893 67.5937 64.288C65.312 56.304 65.2148 47.8541 67.3125 39.8198C58.0767 44.2929 49.8702 50.6343 43.2125 58.4428H43.1656C39.1977 53.4138 39.4766 36.8312 39.7039 33.3669C38.5302 33.8391 37.4097 34.434 36.3609 35.1416C32.8581 37.6415 29.5834 40.4462 26.575 43.5232C23.1474 46.9985 20.0167 50.7545 17.2156 54.7519V54.7668V54.7488C10.7796 63.874 6.21392 74.1829 3.78203 85.0809L3.64844 85.7418C3.45938 86.6229 2.61484 91.0964 2.49297 92.0572C2.49297 92.1299 2.49297 91.9822 2.49297 92.0572C1.72022 96.6752 1.22687 101.336 1.01562 106.013V106.53C1.08281 183.597 84.5656 231.691 151.284 193.099C163.982 185.754 174.91 175.709 183.296 163.676C191.683 151.642 197.322 137.912 199.816 123.459C199.984 122.168 200.12 120.889 200.27 119.584C202.332 102.543 200.1 85.2557 193.776 69.2966Z" fill="url(#paint11_linear_2405_70)"/>
</g>
<defs>
<linearGradient id="paint0_linear_2405_70" x1="180.523" y1="32.003" x2="14.3362" y2="192.366" gradientUnits="userSpaceOnUse">
<stop offset="0.048" stop-color="#FFF44F"/>
<stop offset="0.111" stop-color="#FFE847"/>
<stop offset="0.225" stop-color="#FFC830"/>
<stop offset="0.368" stop-color="#FF980E"/>
<stop offset="0.401" stop-color="#FF8B16"/>
<stop offset="0.462" stop-color="#FF672A"/>
<stop offset="0.534" stop-color="#FF3647"/>
<stop offset="0.705" stop-color="#E31587"/>
</linearGradient>
<radialGradient id="paint1_radial_2405_70" cx="0" cy="0" r="1" gradientUnits="userSpaceOnUse" gradientTransform="translate(172.846 22.9296) scale(208.728 208.696)">
<stop offset="0.129" stop-color="#FFBD4F"/>
<stop offset="0.186" stop-color="#FFAC31"/>
<stop offset="0.247" stop-color="#FF9D17"/>
<stop offset="0.283" stop-color="#FF980E"/>
<stop offset="0.403" stop-color="#FF563B"/>
<stop offset="0.467" stop-color="#FF3750"/>
<stop offset="0.71" stop-color="#F5156C"/>
<stop offset="0.782" stop-color="#EB0878"/>
<stop offset="0.86" stop-color="#E50080"/>
</radialGradient>
<radialGradient id="paint2_radial_2405_70" cx="0" cy="0" r="1" gradientUnits="userSpaceOnUse" gradientTransform="translate(96.5748 108.25) scale(208.728 208.696)">
<stop offset="0.3" stop-color="#960E18"/>
<stop offset="0.351" stop-color="#B11927" stop-opacity="0.74"/>
<stop offset="0.435" stop-color="#DB293D" stop-opacity="0.343"/>
<stop offset="0.497" stop-color="#F5334B" stop-opacity="0.094"/>
<stop offset="0.53" stop-color="#FF3750" stop-opacity="0"/>
</radialGradient>
<radialGradient id="paint3_radial_2405_70" cx="0" cy="0" r="1" gradientUnits="userSpaceOnUse" gradientTransform="translate(121.739 -24.4317) scale(151.214 151.192)">
<stop offset="0.132" stop-color="#FFF44F"/>
<stop offset="0.252" stop-color="#FFDC3E"/>
<stop offset="0.506" stop-color="#FF9D12"/>
<stop offset="0.526" stop-color="#FF980E"/>
</radialGradient>
<radialGradient id="paint4_radial_2405_70" cx="0" cy="0" r="1" gradientUnits="userSpaceOnUse" gradientTransform="translate(73.4875 162.764) scale(99.3844 99.3694)">
<stop offset="0.353" stop-color="#3A8EE6"/>
<stop offset="0.472" stop-color="#5C79F0"/>
<stop offset="0.669" stop-color="#9059FF"/>
<stop offset="1" stop-color="#C139E6"/>
</radialGradient>
<radialGradient id="paint5_radial_2405_70" cx="0" cy="0" r="1" gradientUnits="userSpaceOnUse" gradientTransform="translate(108.013 91.1493) rotate(-13.5895) scale(52.6925 61.6815)">
<stop offset="0.206" stop-color="#9059FF" stop-opacity="0"/>
<stop offset="0.278" stop-color="#8C4FF3" stop-opacity="0.064"/>
<stop offset="0.747" stop-color="#7716A8" stop-opacity="0.45"/>
<stop offset="0.975" stop-color="#6E008B" stop-opacity="0.6"/>
</radialGradient>
<radialGradient id="paint6_radial_2405_70" cx="0" cy="0" r="1" gradientUnits="userSpaceOnUse" gradientTransform="translate(93.9399 14.3904) scale(71.4971 71.4863)">
<stop stop-color="#FFE226"/>
<stop offset="0.121" stop-color="#FFDB27"/>
<stop offset="0.295" stop-color="#FFC82A"/>
<stop offset="0.502" stop-color="#FFA930"/>
<stop offset="0.732" stop-color="#FF7E37"/>
<stop offset="0.792" stop-color="#FF7139"/>
</radialGradient>
<radialGradient id="paint7_radial_2405_70" cx="0" cy="0" r="1" gradientUnits="userSpaceOnUse" gradientTransform="translate(150.138 -30.951) scale(305.046 305)">
<stop offset="0.113" stop-color="#FFF44F"/>
<stop offset="0.456" stop-color="#FF980E"/>
<stop offset="0.622" stop-color="#FF5634"/>
<stop offset="0.716" stop-color="#FF3647"/>
<stop offset="0.904" stop-color="#E31587"/>
</radialGradient>
<radialGradient id="paint8_radial_2405_70" cx="0" cy="0" r="1" gradientUnits="userSpaceOnUse" gradientTransform="translate(124.477 -13.9978) rotate(83.9752) scale(223.542 146.73)">
<stop stop-color="#FFF44F"/>
<stop offset="0.06" stop-color="#FFE847"/>
<stop offset="0.168" stop-color="#FFC830"/>
<stop offset="0.304" stop-color="#FF980E"/>
<stop offset="0.356" stop-color="#FF8B16"/>
<stop offset="0.455" stop-color="#FF672A"/>
<stop offset="0.57" stop-color="#FF3647"/>
<stop offset="0.737" stop-color="#E31587"/>
</radialGradient>
<radialGradient id="paint9_radial_2405_70" cx="0" cy="0" r="1" gradientUnits="userSpaceOnUse" gradientTransform="translate(92.2554 40.8684) scale(190.445 190.417)">
<stop offset="0.137" stop-color="#FFF44F"/>
<stop offset="0.48" stop-color="#FF980E"/>
<stop offset="0.592" stop-color="#FF5634"/>
<stop offset="0.655" stop-color="#FF3647"/>
<stop offset="0.904" stop-color="#E31587"/>
</radialGradient>
<radialGradient id="paint10_radial_2405_70" cx="0" cy="0" r="1" gradientUnits="userSpaceOnUse" gradientTransform="translate(142.528 52.0139) scale(208.441 208.409)">
<stop offset="0.094" stop-color="#FFF44F"/>
<stop offset="0.231" stop-color="#FFE141"/>
<stop offset="0.509" stop-color="#FFAF1E"/>
<stop offset="0.626" stop-color="#FF980E"/>
</radialGradient>
<linearGradient id="paint11_linear_2405_70" x1="178.526" y1="31.1454" x2="37.1185" y2="172.571" gradientUnits="userSpaceOnUse">
<stop offset="0.167" stop-color="#FFF44F" stop-opacity="0.8"/>
<stop offset="0.266" stop-color="#FFF44F" stop-opacity="0.634"/>
<stop offset="0.489" stop-color="#FFF44F" stop-opacity="0.217"/>
<stop offset="0.6" stop-color="#FFF44F" stop-opacity="0"/>
</linearGradient>
<clipPath id="clip0_2405_70">
<rect width="200" height="207" fill="white"/>
</clipPath>
</defs>
</svg>
