<svg width="200" height="200" viewBox="0 0 200 200" fill="none" xmlns="http://www.w3.org/2000/svg">
<path d="M58.5165 75.2C60.5165 62.7667 63.9749 51.5667 68.5582 42.4083C72.6915 34.1417 77.9415 27.175 84.0915 22.6583C68.8388 25.808 54.8565 33.3935 43.9001 44.4626C32.9437 55.5316 25.5016 69.5908 22.5082 84.875C27.3484 82.608 32.3861 80.7893 37.5582 79.4417C44.4511 77.5991 51.4503 76.1797 58.5165 75.1917M21.2249 105.3C20.9999 101.77 20.9999 98.2297 21.2249 94.7C21.5082 94.5 21.8082 94.3 22.1249 94.1C26.0415 91.575 31.9582 89.15 39.6249 87.0583C45.4889 85.4961 51.4338 84.2554 57.4332 83.3417C56.2738 94.417 56.2738 105.583 57.4332 116.658C51.4366 115.744 45.4945 114.504 39.6332 112.942C31.9665 110.842 26.0332 108.425 22.1249 105.9L21.2249 105.3ZM22.4999 115.133C25.4954 130.417 32.9393 144.475 43.8972 155.543C54.8551 166.61 68.8384 174.194 84.0915 177.342C77.9415 172.825 72.6915 165.858 68.5582 157.592C63.9749 148.425 60.5082 137.233 58.5165 124.8C51.4503 123.812 44.4511 122.393 37.5582 120.55C32.3838 119.208 27.3433 117.395 22.4999 115.133ZM115.908 177.342C131.161 174.194 145.145 166.61 156.103 155.543C167.06 144.475 174.504 130.417 177.5 115.133C172.659 117.395 167.621 119.208 162.45 120.55C155.554 122.393 148.552 123.812 141.483 124.8C139.483 137.233 136.025 148.425 131.442 157.592C127.308 165.858 122.058 172.825 115.908 177.342ZM178.775 94.7C179 98.2297 179 101.77 178.775 105.3L177.883 105.9C173.967 108.425 168.042 110.85 160.367 112.942C155.1 114.375 149.117 115.625 142.567 116.658C143.726 105.583 143.726 94.417 142.567 83.3417C149.117 84.3667 155.1 85.625 160.367 87.0583C168.042 89.15 173.967 91.575 177.883 94.1C178.2 94.3 178.497 94.5 178.775 94.7ZM177.5 84.875C174.506 69.5897 167.063 55.5297 156.105 44.4606C145.147 33.3914 131.162 25.8065 115.908 22.6583C122.058 27.175 127.308 34.1417 131.442 42.4083C136.025 51.575 139.492 62.7667 141.483 75.2C148.549 76.1881 155.549 77.6074 162.442 79.45C168.183 81.0083 173.275 82.8167 177.5 84.8667M66.6999 74.15C68.6249 63.3583 71.7165 53.75 75.6165 45.9417C81.4915 34.1917 88.7415 27.3167 96.0499 25.4917V72.3917C86.2438 72.4949 76.4487 73.0873 66.6999 74.15ZM103.95 72.3917V25.4917C111.258 27.325 118.508 34.1917 124.383 45.9417C128.283 53.75 131.375 63.3583 133.3 74.15C123.551 73.0845 113.756 72.4977 103.95 72.3917ZM65.4999 82.2333C75.642 81.049 85.8394 80.3981 96.0499 80.2833V119.717C85.8422 119.602 75.6476 118.951 65.5082 117.767C64.8124 111.87 64.4674 105.937 64.4749 100C64.4749 93.8667 64.8249 87.9167 65.4999 82.2333ZM134.5 82.2333C124.358 81.049 114.16 80.3981 103.95 80.2833V119.717C114.16 119.602 124.358 118.951 134.5 117.767C135.167 112.083 135.525 106.133 135.525 100C135.525 93.8667 135.167 87.9167 134.5 82.2333ZM66.6999 125.85C75.8499 126.875 85.7332 127.483 96.0499 127.6V174.508C88.7415 172.675 81.4915 165.808 75.6165 154.058C71.7165 146.25 68.6249 136.642 66.6999 125.85ZM103.95 127.608V174.508C111.258 172.675 118.508 165.808 124.383 154.058C128.283 146.25 131.375 136.642 133.3 125.85C123.551 126.913 113.756 127.505 103.95 127.608Z" fill="#EDEFF0"/>
</svg>
