<svg width="200" height="200" viewBox="0 0 200 200" fill="none" xmlns="http://www.w3.org/2000/svg">
<path d="M175 25V129.167C175 136.902 171.927 144.321 166.457 149.791C160.988 155.26 153.569 158.333 145.833 158.333C138.098 158.333 130.679 155.26 125.209 149.791C119.74 144.321 116.667 136.902 116.667 129.167C116.667 121.431 119.74 114.013 125.209 108.543C130.679 103.073 138.098 100 145.833 100C150.333 100 154.583 101 158.333 102.833V53.9167L75.0001 71.6667V145.833C75.0001 153.569 71.9272 160.987 66.4574 166.457C60.9875 171.927 53.5689 175 45.8334 175C38.0979 175 30.6793 171.927 25.2095 166.457C19.7397 160.987 16.6667 153.569 16.6667 145.833C16.6667 138.098 19.7397 130.679 25.2095 125.209C30.6793 119.74 38.0979 116.667 45.8334 116.667C50.3334 116.667 54.5834 117.667 58.3334 119.5V50L175 25Z" fill="#EDEFF0"/>
</svg>
