<svg width="200" height="200" viewBox="0 0 200 200" fill="none" xmlns="http://www.w3.org/2000/svg">
<g clip-path="url(#clip0_62_574)">
<path d="M166.667 155.75L65.3333 51.1666L43.9166 29.0833L33.3333 39.6666L56.6666 62.9999V63.0833C52.3333 71.3333 50 81.0832 50 91.5832V133.25L33.3333 149.917V158.25H147.75L164.417 174.917L175 164.333L166.667 155.75ZM100 183.333C109.25 183.333 116.667 175.917 116.667 166.667H83.3333C83.3333 175.917 90.75 183.333 100 183.333ZM150 122.333V91.6666C150 65.9999 136.333 44.6666 112.5 38.9999V33.3333C112.5 26.4166 106.917 20.8333 100 20.8333C93.0833 20.8333 87.5 26.4166 87.5 33.3333V38.9999C86.25 39.2499 85.0833 39.6666 84 39.9999C83.1666 40.2499 82.3333 40.5833 81.5 40.9166H81.4166C81.3333 40.9166 81.3333 40.9166 81.25 40.9999C79.3333 41.7499 77.4166 42.6666 75.5833 43.5833C75.5833 43.5833 75.5 43.5833 75.5 43.6666L150 122.333Z" fill="#EDEFF0"/>
</g>
<defs>
<clipPath id="clip0_62_574">
<rect width="200" height="200" fill="white"/>
</clipPath>
</defs>
</svg>
