<svg width="200" height="200" viewBox="0 0 200 200" xmlns="http://www.w3.org/2000/svg">
<path d="M100 183.333C109.167 183.333 116.667 175.833 116.667 166.667H83.3333C83.3333 171.087 85.0893 175.326 88.2149 178.452C91.3405 181.577 95.5797 183.333 100 183.333ZM150 133.333V91.6667C150 66.0834 136.333 44.6667 112.5 39V33.3334C112.5 26.4167 106.917 20.8334 100 20.8334C93.0833 20.8334 87.5 26.4167 87.5 33.3334V39C63.5833 44.6667 50 66 50 91.6667V133.333L33.3333 150V158.333H166.667V150L150 133.333Z" fill="#EDEFF0"/>
</svg>
