<svg width="200" height="200" viewBox="0 0 200 200" fill="none" xmlns="http://www.w3.org/2000/svg">
<path d="M100 183.333C53.9763 183.333 16.6667 146.023 16.6667 100C16.6667 53.9763 53.9763 16.6667 100 16.6667C146.023 16.6667 183.333 53.9763 183.333 100C183.333 146.023 146.023 183.333 100 183.333ZM100 166.667C136.819 166.667 166.667 136.819 166.667 100C166.667 63.1811 136.819 33.3334 100 33.3334C63.1811 33.3334 33.3334 63.1811 33.3334 100C33.3334 136.819 63.1811 166.667 100 166.667ZM100 125C86.1926 125 75.0001 113.808 75.0001 100C75.0001 86.1926 86.1926 75.0001 100 75.0001C113.808 75.0001 125 86.1926 125 100C125 113.808 113.808 125 100 125Z" fill="#EDEFF0"/>
</svg>
