<svg width="200" height="200" viewBox="0 0 200 200" fill="none" xmlns="http://www.w3.org/2000/svg">
<path d="M51.27 35.02L52.5 35H147.5C147.91 35 148.32 35 148.73 35.02C147.18 30.6276 144.306 26.8241 140.504 24.134C136.701 21.4438 132.158 19.9995 127.5 20H72.5C67.8418 19.998 63.2979 21.4418 59.4952 24.1321C55.6925 26.8225 52.8186 30.6268 51.27 35.02ZM10 102.5C10 96.5326 12.3705 90.8097 16.5901 86.5901C20.8097 82.3705 26.5326 80 32.5 80H167.5C170.455 80 173.381 80.582 176.11 81.7127C178.84 82.8434 181.321 84.5008 183.41 86.5901C185.499 88.6794 187.157 91.1598 188.287 93.8896C189.418 96.6195 190 99.5453 190 102.5V157.5C190 160.455 189.418 163.381 188.287 166.11C187.157 168.84 185.499 171.321 183.41 173.41C181.321 175.499 178.84 177.157 176.11 178.287C173.381 179.418 170.455 180 167.5 180H32.5C26.5326 180 20.8097 177.629 16.5901 173.41C12.3705 169.19 10 163.467 10 157.5V102.5ZM32.5 65C32.1 65 31.68 65 31.27 65.02C32.8186 60.6268 35.6925 56.8225 39.4952 54.1321C43.2979 51.4418 47.8418 49.998 52.5 50H147.5C157.3 50 165.64 56.27 168.73 65.02C168.32 65.0067 167.91 65.0001 167.5 65H32.5Z" fill="#EDEFF0"/>
</svg>
