<svg width="200" height="200" viewBox="0 0 200 200" fill="none" xmlns="http://www.w3.org/2000/svg">
<path d="M75.0001 133.333C89.6917 133.333 103.083 127.833 113.358 118.842L124.5 142.175C124.5 142.175 126.792 144.042 129.942 147.142C133.167 150.167 137.408 154.258 141.475 158.533L152.792 170.133L157.825 175.517L175.5 157.842L170.117 152.808L158.517 141.492C154.614 137.753 150.815 133.907 147.125 129.958C144.025 126.808 142.158 124.517 142.158 124.517L118.825 113.375C128.17 102.775 133.329 89.1311 133.333 75.0001C133.333 42.8417 107.158 16.6667 75.0001 16.6667C42.8417 16.6667 16.6667 42.8417 16.6667 75.0001C16.6667 107.158 42.8417 133.333 75.0001 133.333Z" fill="#EDEFF0"/>
</svg>
