<svg width="200" height="200" viewBox="0 0 200 200" fill="none" xmlns="http://www.w3.org/2000/svg">
<path d="M77.0833 183.333L73.75 156.667C71.9444 155.972 70.2444 155.139 68.65 154.167C67.0556 153.195 65.4917 152.153 63.9583 151.042L39.1667 161.458L16.25 121.875L37.7083 105.625C37.5694 104.653 37.5 103.717 37.5 102.817V97.1918C37.5 96.2862 37.5694 95.3473 37.7083 94.3751L16.25 78.1251L39.1667 38.5417L63.9583 48.9584C65.4861 47.8473 67.0833 46.8056 68.75 45.8334C70.4167 44.8612 72.0833 44.0279 73.75 43.3334L77.0833 16.6667H122.917L126.25 43.3334C128.056 44.0279 129.758 44.8612 131.358 45.8334C132.958 46.8056 134.519 47.8473 136.042 48.9584L160.833 38.5417L183.75 78.1251L162.292 94.3751C162.431 95.3473 162.5 96.2862 162.5 97.1918V102.808C162.5 103.714 162.361 104.653 162.083 105.625L183.542 121.875L160.625 161.458L136.042 151.042C134.514 152.153 132.917 153.195 131.25 154.167C129.583 155.139 127.917 155.972 126.25 156.667L122.917 183.333H77.0833ZM100.417 129.167C108.472 129.167 115.347 126.32 121.042 120.625C126.736 114.931 129.583 108.056 129.583 100C129.583 91.9445 126.736 85.0695 121.042 79.3751C115.347 73.6806 108.472 70.8334 100.417 70.8334C92.2222 70.8334 85.3111 73.6806 79.6833 79.3751C74.0556 85.0695 71.2444 91.9445 71.25 100C71.2556 108.056 74.0694 114.931 79.6917 120.625C85.3139 126.32 92.2222 129.167 100.417 129.167Z" fill="#EDEFF0"/>
</svg>
