<svg width="16" height="16" viewBox="0 0 16 16" xmlns="http://www.w3.org/2000/svg">
<g clip-path="url(#clip0_198_1020)">
<path d="M8 0.25C3.72188 0.25 0.25 3.72188 0.25 8C0.25 12.2781 3.72188 15.75 8 15.75C12.2781 15.75 15.75 12.2781 15.75 8C15.75 3.72188 12.2781 0.25 8 0.25ZM11.1469 11.6531C11.0156 11.6531 10.9344 11.6125 10.8125 11.5406C8.8625 10.3656 6.59375 10.3156 4.35313 10.775C4.23125 10.8062 4.07188 10.8562 3.98125 10.8562C3.67813 10.8562 3.4875 10.6156 3.4875 10.3625C3.4875 10.0406 3.67812 9.8875 3.9125 9.8375C6.47188 9.27187 9.0875 9.32187 11.3188 10.6562C11.5094 10.7781 11.6219 10.8875 11.6219 11.1719C11.6219 11.4563 11.4 11.6531 11.1469 11.6531ZM11.9875 9.60312C11.825 9.60312 11.7156 9.53125 11.6031 9.47188C9.65 8.31563 6.7375 7.85 4.14687 8.55313C3.99687 8.59375 3.91563 8.63437 3.775 8.63437C3.44063 8.63437 3.16875 8.3625 3.16875 8.02812C3.16875 7.69375 3.33125 7.47187 3.65313 7.38125C4.52187 7.1375 5.40938 6.95625 6.70937 6.95625C8.7375 6.95625 10.6969 7.45938 12.2406 8.37813C12.4938 8.52812 12.5938 8.72187 12.5938 8.99375C12.5906 9.33125 12.3281 9.60312 11.9875 9.60312ZM12.9563 7.22188C12.7937 7.22188 12.6938 7.18125 12.5531 7.1C10.3281 5.77187 6.35 5.45312 3.775 6.17188C3.6625 6.20312 3.52188 6.25313 3.37188 6.25313C2.95938 6.25313 2.64375 5.93125 2.64375 5.51562C2.64375 5.09062 2.90625 4.85 3.1875 4.76875C4.2875 4.44688 5.51875 4.29375 6.85938 4.29375C9.14062 4.29375 11.5312 4.76875 13.2781 5.7875C13.5219 5.92812 13.6812 6.12188 13.6812 6.49375C13.6812 6.91875 13.3375 7.22188 12.9563 7.22188Z" fill="#EDEFF0"/>
</g>
<defs>
<clipPath id="clip0_198_1020">
<rect width="16" height="16" />
</clipPath>
</defs>
</svg>
