<svg width="200" height="200" viewBox="0 0 200 200" fill="none" xmlns="http://www.w3.org/2000/svg">
<path d="M181.25 150.152C179.5 150.151 177.77 149.782 176.172 149.07C175.8 148.905 175.445 148.704 175.113 148.469L142.805 125.727C141.166 124.573 139.829 123.043 138.906 121.264C137.983 119.486 137.5 117.512 137.5 115.508V84.4922C137.5 82.4884 137.983 80.5141 138.906 78.7357C139.829 76.9573 141.166 75.4269 142.805 74.2734L175.113 51.5312C175.445 51.2963 175.8 51.0948 176.172 50.9297C178.075 50.0836 180.159 49.7264 182.236 49.8906C184.312 50.0549 186.314 50.7353 188.061 51.8701C189.807 53.0049 191.242 54.5581 192.236 56.3886C193.23 58.2191 193.75 60.2688 193.75 62.3516V137.648C193.75 140.964 192.433 144.143 190.089 146.487C187.745 148.831 184.565 150.148 181.25 150.148V150.152ZM104.688 156.25H32.8125C25.7699 156.243 19.0178 153.442 14.038 148.462C9.0581 143.482 6.25724 136.73 6.25 129.688V70.3125C6.25724 63.2699 9.0581 56.5178 14.038 51.538C19.0178 46.5581 25.7699 43.7572 32.8125 43.75H104.875C111.868 43.7583 118.571 46.5397 123.516 51.4842C128.46 56.4287 131.242 63.1325 131.25 70.125V129.688C131.243 136.73 128.442 143.482 123.462 148.462C118.482 153.442 111.73 156.243 104.688 156.25Z" fill="#EDEFF0"/>
</svg>
