<svg width="14" height="14" viewBox="0 0 14 14" fill="none" xmlns="http://www.w3.org/2000/svg">
<path d="M7.3184 1.62362C7.59792 1.75001 7.77778 2.02709 7.77778 2.33334V11.6667C7.77778 11.9729 7.59792 12.25 7.3184 12.3764C7.03889 12.5028 6.71076 12.4517 6.48229 12.2476L3.20347 9.33334H1.55556C0.697569 9.33334 0 8.63577 0 7.77779V6.22223C0 5.36425 0.697569 4.66668 1.55556 4.66668H3.20347L6.48229 1.75244C6.71076 1.54827 7.03889 1.49966 7.3184 1.62362ZM10.3299 4.83682L11.6667 6.17362L13.0035 4.83682C13.2319 4.60834 13.6014 4.60834 13.8274 4.83682C14.0535 5.06529 14.0559 5.43473 13.8274 5.66077L12.4906 6.99758L13.8274 8.33438C14.0559 8.56286 14.0559 8.9323 13.8274 9.15834C13.599 9.38438 13.2295 9.38682 13.0035 9.15834L11.6667 7.82154L10.3299 9.15834C10.1014 9.38682 9.73194 9.38682 9.5059 9.15834C9.27986 8.92987 9.27743 8.56043 9.5059 8.33438L10.8427 6.99758L9.5059 5.66077C9.27743 5.4323 9.27743 5.06286 9.5059 4.83682C9.73438 4.61077 10.1038 4.60834 10.3299 4.83682Z" fill="#EDEFF0" />
</svg>
