<svg width="200" height="200" viewBox="0 0 200 200" fill="none" xmlns="http://www.w3.org/2000/svg">
<path fill-rule="evenodd" clip-rule="evenodd" d="M99.9998 115C97.7897 115 95.6701 114.122 94.1073 112.559C92.5445 110.996 91.6665 108.877 91.6665 106.667V65.0001C91.6665 62.7899 92.5445 60.6703 94.1073 59.1075C95.6701 57.5447 97.7897 56.6667 99.9998 56.6667C102.21 56.6667 104.33 57.5447 105.892 59.1075C107.455 60.6703 108.333 62.7899 108.333 65.0001V106.667C108.333 108.877 107.455 110.996 105.892 112.559C104.33 114.122 102.21 115 99.9998 115Z" fill="#EDEFF0"/>
<path d="M91.2249 132.983C91.2249 130.656 92.1494 128.424 93.795 126.779C95.4406 125.133 97.6726 124.208 99.9999 124.208C102.327 124.208 104.559 125.133 106.205 126.779C107.85 128.424 108.775 130.656 108.775 132.983C108.775 135.311 107.85 137.543 106.205 139.188C104.559 140.834 102.327 141.758 99.9999 141.758C97.6726 141.758 95.4406 140.834 93.795 139.188C92.1494 137.543 91.2249 135.311 91.2249 132.983Z" fill="#EDEFF0"/>
<path fill-rule="evenodd" clip-rule="evenodd" d="M130.058 38.6834L179.025 128.017C191.625 151.008 175.083 179.167 148.967 179.167H51.0333C24.9166 179.167 8.3666 151 20.9749 128.008L69.9416 38.6751C82.9916 14.8834 117.008 14.8834 130.058 38.6751V38.6834ZM115.025 47.0167C108.508 35.1084 91.4916 35.1084 84.9749 47.0167L35.9999 136.333C29.6916 147.833 37.9666 161.908 51.0249 161.908H148.958C162.017 161.908 170.292 147.825 163.983 136.325L115.025 47.0167Z" fill="#EDEFF0"/>
</svg>
