<svg width="200" height="200" viewBox="0 0 200 200" fill="none" xmlns="http://www.w3.org/2000/svg">
<path d="M58.6 117.8C59.6572 118.083 60.6483 118.572 61.5165 119.239C62.3848 119.905 63.1133 120.736 63.6604 121.684C64.2075 122.632 64.5625 123.678 64.7052 124.763C64.8478 125.849 64.7752 126.951 64.4917 128.008L51.55 176.308C50.9776 178.443 49.5805 180.264 47.666 181.368C45.7516 182.473 43.4767 182.773 41.3417 182.2C39.2067 181.628 37.3865 180.231 36.2816 178.316C35.1767 176.402 34.8776 174.127 35.45 171.992L48.3917 123.7C48.6741 122.642 49.1623 121.65 49.8283 120.781C50.4943 119.912 51.325 119.182 52.2731 118.634C53.2212 118.087 54.2679 117.731 55.3535 117.588C56.4391 117.444 57.5423 117.517 58.6 117.8ZM146.1 117.8C147.157 118.083 148.148 118.572 149.017 119.239C149.885 119.905 150.613 120.736 151.16 121.684C151.708 122.632 152.063 123.678 152.205 124.763C152.348 125.849 152.275 126.951 151.992 128.008L139.05 176.308C138.478 178.443 137.08 180.264 135.166 181.368C133.252 182.473 130.977 182.773 128.842 182.2C126.707 181.628 124.887 180.231 123.782 178.316C122.677 176.402 122.378 174.127 122.95 171.992L135.892 123.7C136.174 122.642 136.662 121.65 137.328 120.781C137.994 119.912 138.825 119.182 139.773 118.634C140.721 118.087 141.768 117.731 142.854 117.588C143.939 117.444 145.042 117.517 146.1 117.8ZM87.7667 117.8C88.8239 118.083 89.8149 118.572 90.6832 119.239C91.5515 119.905 92.28 120.736 92.8271 121.684C93.3742 122.632 93.7292 123.678 93.8718 124.763C94.0145 125.849 93.9419 126.951 93.6583 128.008L80.7167 176.308C80.1443 178.443 78.7472 180.264 76.8327 181.368C74.9183 182.473 72.6433 182.773 70.5083 182.2C68.3734 181.628 66.5532 180.231 65.4483 178.316C64.3434 176.402 64.0443 174.127 64.6167 171.992L77.5583 123.7C77.8417 122.643 78.3305 121.652 78.9969 120.784C79.6632 119.915 80.4941 119.187 81.4421 118.64C82.3901 118.093 83.4365 117.738 84.5217 117.595C85.6069 117.452 86.7095 117.525 87.7667 117.808V117.8ZM106.725 123.7C107.267 121.638 108.58 119.862 110.392 118.738C112.204 117.614 114.377 117.228 116.466 117.658C118.554 118.088 120.398 119.303 121.618 121.051C122.839 122.8 123.342 124.95 123.025 127.058L122.825 128.008L109.883 176.308C109.328 178.357 108.013 180.117 106.204 181.228C104.396 182.34 102.232 182.72 100.154 182.29C98.0749 181.861 96.2386 180.654 95.0191 178.917C93.7997 177.18 93.2892 175.043 93.5917 172.942L93.7833 171.992L106.725 123.7ZM95.8333 16.6668C106.854 16.6634 117.613 20.0216 126.675 26.2933C135.737 32.5649 142.671 41.4515 146.55 51.7667C155.204 54.142 163.059 58.8016 169.292 65.257C175.525 71.7125 179.907 79.726 181.978 88.4574C184.049 97.1889 183.732 106.317 181.062 114.884C178.391 123.451 173.465 131.142 166.8 137.15L168.092 132.317C169.424 127.338 169.185 122.068 167.407 117.23C165.629 112.392 162.399 108.222 158.159 105.29C153.92 102.359 148.877 100.81 143.723 100.855C138.569 100.9 133.555 102.537 129.367 105.542C125.122 102.477 120.019 100.828 114.783 100.828C109.548 100.828 104.445 102.477 100.2 105.542C95.9548 102.477 90.8523 100.828 85.6167 100.828C80.3811 100.828 75.2785 102.477 71.0333 105.542C67.7485 103.182 63.9403 101.655 59.9354 101.091C55.9304 100.526 51.8484 100.942 48.0396 102.303C44.2308 103.663 40.8088 105.927 38.0674 108.901C35.326 111.874 33.3469 115.468 32.3 119.375L27.6917 136.567C23.1887 131.682 19.919 125.792 18.1552 119.387C16.3914 112.982 16.1846 106.248 17.5522 99.7472C18.9198 93.2462 21.822 87.1663 26.0168 82.0149C30.2117 76.8634 35.5775 72.7897 41.6667 70.1334C41.8508 55.8892 47.6388 42.2908 57.7771 32.2835C67.9154 22.2762 81.5879 16.6656 95.8333 16.6668Z" fill="#EDEFF0"/>
</svg>
