<svg width="200" height="200" viewBox="0 0 200 200" fill="none" xmlns="http://www.w3.org/2000/svg">
<path d="M75.8667 157.908C77.9999 158.481 79.8188 159.876 80.9235 161.789C82.0283 163.702 82.3285 165.975 81.7583 168.108L79.5917 176.167C78.9727 178.248 77.566 180.005 75.6709 181.065C73.7758 182.124 71.542 182.402 69.445 181.84C67.348 181.277 65.5533 179.919 64.4429 178.053C63.3326 176.187 62.9943 173.962 63.5 171.85L65.6583 163.8C65.9417 162.743 66.4305 161.752 67.0968 160.884C67.7632 160.015 68.5941 159.287 69.5421 158.74C70.4901 158.193 71.5365 157.838 72.6217 157.695C73.7069 157.552 74.8095 157.625 75.8667 157.908ZM114.783 148.283C116.915 148.858 118.732 150.254 119.835 152.166C120.938 154.079 121.237 156.351 120.667 158.483L118.517 166.533C118.238 167.595 117.752 168.591 117.087 169.464C116.422 170.338 115.592 171.071 114.642 171.623C113.693 172.174 112.645 172.532 111.557 172.677C110.469 172.822 109.363 172.751 108.302 172.467C107.242 172.183 106.248 171.693 105.378 171.024C104.508 170.355 103.778 169.521 103.231 168.569C102.684 167.617 102.331 166.567 102.191 165.478C102.051 164.39 102.128 163.284 102.417 162.225L104.575 154.175C105.147 152.042 106.543 150.223 108.456 149.118C110.368 148.014 112.641 147.713 114.775 148.283H114.783ZM84.4917 125.708C85.5489 125.992 86.5399 126.481 87.4082 127.147C88.2765 127.813 89.005 128.644 89.5521 129.592C90.0992 130.54 90.4542 131.587 90.5968 132.672C90.7394 133.757 90.6669 134.86 90.3833 135.917L88.225 143.967C87.6526 146.102 86.2555 147.922 84.341 149.027C82.4266 150.132 80.1517 150.431 78.0167 149.858C75.8817 149.286 74.0615 147.889 72.9566 145.974C71.8517 144.06 71.5526 141.785 72.125 139.65L74.2917 131.6C74.864 129.467 76.2597 127.648 78.1723 126.543C80.0849 125.439 82.3578 125.138 84.4917 125.708ZM95.8333 16.6668C106.854 16.6634 117.613 20.0216 126.675 26.2933C135.737 32.5649 142.671 41.4515 146.55 51.7668C157.93 54.8992 167.835 61.9553 174.515 71.687C181.194 81.4187 184.216 93.1989 183.047 104.944C181.878 116.689 176.592 127.643 168.126 135.867C159.66 144.091 148.557 149.056 136.783 149.883C139.783 146.858 142.058 143.05 143.242 138.65L145.4 130.6C147.057 124.474 146.323 117.948 143.346 112.343C140.369 106.739 135.372 102.476 129.368 100.42C123.365 98.3637 116.804 98.6675 111.016 101.27C105.228 103.872 100.646 108.578 98.2 114.433C94.9682 111.779 91.1222 109.978 87.0141 109.195C82.9061 108.413 78.6673 108.673 74.6858 109.952C70.7044 111.231 67.1074 113.489 64.2244 116.518C61.3413 119.548 59.2642 123.252 58.1833 127.292L56.0333 135.342C54.8962 139.578 54.8933 144.038 56.025 148.275C55.5254 148.774 55.0472 149.294 54.5917 149.833C45.3732 149.006 36.6925 145.134 29.9191 138.826C23.1456 132.519 18.6652 124.135 17.1845 114.999C15.7038 105.863 17.3072 96.4937 21.7418 88.3697C26.1763 80.2458 33.1896 73.8296 41.675 70.1334C41.8591 55.8906 47.6459 42.2935 57.7825 32.2864C67.919 22.2794 81.5893 16.6678 95.8333 16.6668ZM123.408 116.083C124.466 116.367 125.457 116.856 126.325 117.522C127.193 118.188 127.922 119.019 128.469 119.967C129.016 120.915 129.371 121.962 129.513 123.047C129.656 124.132 129.584 125.235 129.3 126.292L127.133 134.342C126.514 136.423 125.108 138.18 123.213 139.24C121.317 140.299 119.084 140.577 116.987 140.015C114.89 139.452 113.095 138.094 111.985 136.228C110.874 134.362 110.536 132.137 111.042 130.025L113.2 121.975C113.483 120.918 113.972 119.927 114.639 119.059C115.305 118.19 116.136 117.462 117.084 116.915C118.032 116.368 119.078 116.013 120.163 115.87C121.249 115.727 122.351 115.8 123.408 116.083Z" fill="#EDEFF0"/>
</svg>
