<svg width="200" height="200" viewBox="0 0 200 200" fill="none" xmlns="http://www.w3.org/2000/svg">
<path d="M88.125 163.125L12.7083 87.7085C11.0416 86.0418 9.79165 84.1668 8.95831 82.0835C8.12498 80.0002 7.70831 77.9168 7.70831 75.8335C7.70831 73.4724 8.19442 71.2168 9.16665 69.0668C10.1389 66.9168 11.5972 65.0057 13.5416 63.3335C24.9305 53.4724 38.4722 46.0085 54.1666 40.9418C69.8611 35.8752 85.1389 33.3391 100 33.3335C114.861 33.3279 130.139 35.8641 145.833 40.9418C161.528 46.0196 175.069 53.4835 186.458 63.3335C188.403 65.0002 189.861 66.9113 190.833 69.0668C191.806 71.2224 192.292 73.478 192.292 75.8335C192.292 77.9168 191.875 80.0002 191.042 82.0835C190.208 84.1668 188.958 86.0418 187.292 87.7085L111.875 163.125C110.208 164.792 108.333 166.042 106.25 166.875C104.167 167.709 102.083 168.125 100 168.125C97.9166 168.125 95.8333 167.709 93.75 166.875C91.6666 166.042 89.7916 164.792 88.125 163.125Z" fill="#EDEFF0"/>
</svg>
