<svg width="200" height="200" viewBox="0 0 200 200" fill="none" xmlns="http://www.w3.org/2000/svg">
<path d="M149.375 122.084C148.264 122.084 147.222 121.911 146.25 121.567C145.278 121.222 144.375 120.631 143.542 119.792L71.0417 47.5002C70.3472 46.8057 69.8278 46.0057 69.4833 45.1002C69.1389 44.1946 68.9639 43.3279 68.9583 42.5002C68.9583 40.9724 69.4111 39.5141 70.3167 38.1252C71.2222 36.7363 72.575 35.9029 74.375 35.6252C78.5417 34.9307 82.7778 34.3752 87.0833 33.9585C91.3889 33.5418 95.6944 33.3335 100 33.3335C117.361 33.3335 133.994 36.3557 149.9 42.4002C165.806 48.4446 180.283 57.3668 193.333 69.1668C194.306 70.0002 195 70.9724 195.417 72.0835C195.833 73.1946 196.042 74.3057 196.042 75.4168C196.042 76.5279 195.869 77.5696 195.525 78.5418C195.181 79.5141 194.589 80.4168 193.75 81.2502L155.208 119.792C154.375 120.625 153.472 121.217 152.5 121.567C151.528 121.917 150.486 122.089 149.375 122.084ZM164.792 188.125L125.833 149.167L105.833 169.167C104.167 170.834 102.222 171.667 100 171.667C97.7778 171.667 95.8333 170.834 94.1667 169.167L6.25 81.2502C4.58333 79.5835 3.75 77.5002 3.75 75.0002C3.75 72.5002 4.65278 70.4863 6.45833 68.9585C10.0694 65.7641 13.75 62.7779 17.5 60.0002C21.25 57.2224 25.0694 54.7224 28.9583 52.5002L11.4583 35.0002C9.79167 33.3335 8.99167 31.3891 9.05833 29.1668C9.125 26.9446 9.99444 25.0002 11.6667 23.3335C13.3389 21.6668 15.3194 20.8335 17.6083 20.8335C19.8972 20.8335 21.875 21.6668 23.5417 23.3335L176.667 176.459C178.333 178.125 179.167 180.07 179.167 182.292C179.167 184.514 178.333 186.459 176.667 188.125C175 189.792 173.022 190.625 170.733 190.625C168.444 190.625 166.464 189.792 164.792 188.125Z" fill="#EDEFF0"/>
</svg>
