<svg width="16" height="16" viewBox="0 0 16 16" fill="none" xmlns="http://www.w3.org/2000/svg">
<path d="M14.5734 8.33332C14.0919 7.76492 13.4081 7.40627 12.6667 7.33332C12.6667 6.03332 12.2134 4.93332 11.3067 4.02666C10.4001 3.11999 9.30008 2.66666 8.00008 2.66666C6.94675 2.66666 6.00008 2.97999 5.16675 3.61999C4.33341 4.25999 3.78008 5.07999 3.50008 6.09999C2.66675 6.28666 1.97341 6.71999 1.44675 7.39999C0.920081 8.07999 0.666748 8.85332 0.666748 9.71999C0.666748 10.7267 1.02675 11.5867 1.74008 12.2867C2.46008 13 3.33341 13.3333 4.33341 13.3333H12.3334C13.1667 13.3333 13.8734 13.04 14.4601 12.46C15.0401 11.8733 15.3334 11.1667 15.3334 10.3333C15.3334 9.56666 15.0801 8.89999 14.5734 8.33332ZM6.30008 6.01999C6.82008 6.01999 7.24675 6.44666 7.24675 6.96666C7.24675 7.48666 6.82008 7.91332 6.30008 7.91332C5.78008 7.91332 5.35341 7.48666 5.35341 6.96666C5.35341 6.44666 5.78008 6.01999 6.30008 6.01999ZM9.70008 11.3133C9.18008 11.3133 8.75342 10.8867 8.75342 10.3667C8.75342 9.84666 9.18008 9.41999 9.70008 9.41999C10.2201 9.41999 10.6467 9.84666 10.6467 10.3667C10.6467 10.8867 10.2201 11.3133 9.70008 11.3133ZM6.13341 11.3333L5.33341 10.5333L9.86675 5.99999L10.6667 6.79999L6.13341 11.3333Z" fill="#EDEFF0"/>
</svg>
