<svg width="200" height="200" viewBox="0 0 200 200" fill="none" xmlns="http://www.w3.org/2000/svg">
<path fill-rule="evenodd" clip-rule="evenodd" d="M67.8001 13.3583C68.6777 14.7631 68.9617 16.4588 68.5899 18.0729C68.218 19.687 67.2206 21.0875 65.8168 21.9667L32.4834 42.8C31.0778 43.6785 29.3807 43.9627 27.7656 43.59C26.1504 43.2172 24.7495 42.2182 23.8709 40.8125C22.9924 39.4069 22.7082 37.7098 23.081 36.0946C23.4537 34.4795 24.4528 33.0785 25.8584 32.2L59.1918 11.3667C60.5976 10.4898 62.294 10.2071 63.9082 10.5805C65.5224 10.954 66.9223 11.9532 67.8001 13.3583ZM132.2 13.3583C132.635 12.6614 133.203 12.057 133.871 11.5797C134.539 11.1024 135.295 10.7615 136.096 10.5765C136.896 10.3915 137.725 10.3661 138.535 10.5017C139.345 10.6373 140.12 10.9312 140.817 11.3667L174.15 32.2C175.556 33.0785 176.555 34.4795 176.928 36.0946C177.3 37.7098 177.016 39.4069 176.138 40.8125C175.703 41.5085 175.135 42.112 174.467 42.5886C173.798 43.0651 173.043 43.4054 172.243 43.59C170.628 43.9627 168.931 43.6785 167.525 42.8L134.192 21.9667C132.787 21.0889 131.787 19.689 131.414 18.0748C131.04 16.4606 131.323 14.7641 132.2 13.3583ZM100 183.333C109.849 183.333 119.602 181.393 128.701 177.624C137.801 173.855 146.069 168.331 153.033 161.366C159.997 154.402 165.522 146.134 169.291 137.035C173.06 127.935 175 118.182 175 108.333C175 98.4842 173.06 88.7315 169.291 79.6321C165.522 70.5327 159.997 62.2647 153.033 55.3003C146.069 48.3359 137.801 42.8115 128.701 39.0424C119.602 35.2733 109.849 33.3333 100 33.3333C80.1089 33.3333 61.0323 41.2351 46.9671 55.3003C32.9019 69.3656 25.0001 88.4421 25.0001 108.333C25.0001 128.225 32.9019 147.301 46.9671 161.366C61.0323 175.432 80.1089 183.333 100 183.333ZM75.0001 89.5834C73.3425 89.5834 71.7528 88.9249 70.5807 87.7528C69.4086 86.5807 68.7501 84.991 68.7501 83.3334C68.7501 81.6757 69.4086 80.086 70.5807 78.9139C71.7528 77.7418 73.3425 77.0833 75.0001 77.0833H125C126.235 77.0844 127.443 77.4516 128.47 78.1384C129.496 78.8252 130.297 79.801 130.769 80.9423C131.242 82.0837 131.366 83.3395 131.125 84.5512C130.884 85.7628 130.29 86.876 129.417 87.75L90.0834 127.083H125C126.658 127.083 128.247 127.742 129.42 128.914C130.592 130.086 131.25 131.676 131.25 133.333C131.25 134.991 130.592 136.581 129.42 137.753C128.247 138.925 126.658 139.583 125 139.583H75.0001C73.7648 139.582 72.5575 139.215 71.5307 138.528C70.5039 137.841 69.7036 136.866 69.231 135.724C68.7584 134.583 68.6347 133.327 68.8754 132.116C69.1161 130.904 69.7105 129.791 70.5834 128.917L109.917 89.5834H75.0001Z" fill="#EDEFF0" fill-opacity="0.6"/>
</svg>
