<svg width="200" height="200" viewBox="0 0 200 200" fill="none" xmlns="http://www.w3.org/2000/svg">
<g clip-path="url(#clip0_520_65)">
<path d="M158.333 91.6667H144.167C144.167 97.8334 142.833 103.583 140.583 108.75L150.833 119C155.5 110.833 158.333 101.583 158.333 91.6667ZM124.833 93.0834C124.833 92.5834 125 92.1667 125 91.6667V41.6667C125 27.8334 113.833 16.6667 100 16.6667C86.1667 16.6667 75 27.8334 75 41.6667V43.1667L124.833 93.0834ZM35.5833 25.0001L25 35.5834L75.0833 85.6667V91.6667C75.0833 105.5 86.1667 116.667 100 116.667C101.833 116.667 103.667 116.417 105.417 116L119.25 129.833C113.333 132.583 106.75 134.167 100 134.167C77 134.167 55.8333 116.667 55.8333 91.6667H41.6667C41.6667 120.083 64.3333 143.583 91.6667 147.667V175H108.333V147.667C115.917 146.583 123.083 143.917 129.5 140.167L164.417 175L175 164.417L35.5833 25.0001Z" fill="#EDEFF0"/>
</g>
<defs>
<clipPath id="clip0_520_65">
<rect width="200" height="200" fill="white"/>
</clipPath>
</defs>
</svg>
