<svg width="200" height="200" viewBox="0 0 200 200" fill="none" xmlns="http://www.w3.org/2000/svg">
<path d="M100 183.333C109.167 183.333 116.667 175.833 116.667 166.667H83.3335C83.3335 171.087 85.0894 175.326 88.2151 178.452C91.3407 181.577 95.5799 183.333 100 183.333ZM150 133.333V91.6666C150 66.0833 136.333 44.6666 112.5 38.9999V33.3333C112.5 26.4166 106.917 20.8333 100 20.8333C93.0835 20.8333 87.5002 26.4166 87.5002 33.3333V38.9999C63.5835 44.6666 50.0002 65.9999 50.0002 91.6666V133.333L33.3335 150V158.333H166.667V150L150 133.333Z" fill="#161819"/>
</svg>
