<svg width="16" height="16" viewBox="0 0 16 16" fill="none" xmlns="http://www.w3.org/2000/svg">
<path d="M4.15622 13.75C3.96435 13.7496 3.77588 13.6993 3.60935 13.6041C3.23435 13.3916 3.00122 12.9791 3.00122 12.5312V3.46874C3.00122 3.01968 3.23435 2.60843 3.60935 2.39593C3.77985 2.29794 3.97354 2.24755 4.17018 2.25003C4.36681 2.2525 4.55918 2.30775 4.72716 2.40999L12.4725 7.04624C12.6339 7.14746 12.767 7.28801 12.8592 7.45472C12.9514 7.62144 12.9998 7.80884 12.9998 7.99937C12.9998 8.1899 12.9514 8.3773 12.8592 8.54401C12.767 8.71072 12.6339 8.85128 12.4725 8.95249L4.72591 13.59C4.554 13.6939 4.3571 13.7492 4.15622 13.75Z" fill="#EDEFF0"/>
</svg>
