<svg width="200" height="200" viewBox="0 0 200 200" fill="none" xmlns="http://www.w3.org/2000/svg">
<path d="M99.9998 183.333C88.4721 183.333 77.6387 181.145 67.4998 176.767C57.361 172.389 48.5415 166.453 41.0415 158.958C33.5415 151.464 27.6054 142.645 23.2332 132.5C18.8609 122.356 16.6721 111.522 16.6665 100C16.6665 89.8612 18.3693 80.2418 21.7748 71.1418C25.1804 62.0418 29.8665 53.8834 35.8332 46.6668C37.361 44.7223 39.2026 43.8196 41.3582 43.9584C43.5137 44.0973 45.3526 44.8612 46.8748 46.2501C48.3971 47.639 49.4054 49.4446 49.8998 51.6668C50.3943 53.889 49.6637 56.1807 47.7082 58.5418C43.2637 64.2362 39.7554 70.5918 37.1832 77.6084C34.6109 84.6251 33.3276 92.089 33.3332 100C33.3332 118.611 39.7915 134.375 52.7082 147.292C65.6248 160.208 81.3887 166.667 99.9998 166.667C118.611 166.667 134.375 160.208 147.292 147.292C160.208 134.375 166.667 118.611 166.667 100C166.667 92.0835 165.383 84.6196 162.817 77.6084C160.25 70.5973 156.742 64.2418 152.292 58.5418C150.347 56.1807 149.619 53.889 150.108 51.6668C150.597 49.4446 151.603 47.639 153.125 46.2501C154.647 44.8612 156.489 44.0973 158.65 43.9584C160.811 43.8196 162.65 44.7223 164.167 46.6668C170.139 53.889 174.828 62.0501 178.233 71.1501C181.639 80.2501 183.339 89.8668 183.333 100C183.333 111.528 181.144 122.361 176.767 132.5C172.389 142.639 166.453 151.458 158.958 158.958C151.464 166.458 142.644 172.397 132.5 176.775C122.355 181.153 111.522 183.339 99.9998 183.333ZM99.9998 108.333C97.6387 108.333 95.661 107.533 94.0665 105.933C92.4721 104.333 91.6721 102.356 91.6665 100V25.0001C91.6665 22.639 92.4665 20.6612 94.0665 19.0668C95.6665 17.4723 97.6443 16.6723 99.9998 16.6668C102.355 16.6612 104.336 17.4612 105.942 19.0668C107.547 20.6723 108.344 22.6501 108.333 25.0001V100C108.333 102.361 107.533 104.342 105.933 105.942C104.333 107.542 102.355 108.339 99.9998 108.333Z" fill="#EDEFF0"/>
</svg>
