<svg width="16" height="16" viewBox="0 0 16 16" fill="none" xmlns="http://www.w3.org/2000/svg">
<path d="M3.64204 2.95534C4.85172 1.90706 6.39935 1.33104 8.00004 1.33334C11.682 1.33334 14.6667 4.318 14.6667 8C14.6667 9.424 14.22 10.744 13.46 11.8267L11.3334 8H13.3334C13.3335 6.95442 13.0262 5.93187 12.4498 5.05951C11.8734 4.18714 11.0533 3.50344 10.0915 3.09342C9.12966 2.68339 8.06852 2.56514 7.04001 2.75335C6.01151 2.94156 5.06101 3.42793 4.30671 4.152L3.64204 2.95534ZM12.358 13.0447C11.1484 14.0929 9.60073 14.669 8.00004 14.6667C4.31804 14.6667 1.33337 11.682 1.33337 8C1.33337 6.576 1.78004 5.256 2.54004 4.17334L4.66671 8H2.66671C2.66662 9.04559 2.97388 10.0681 3.55026 10.9405C4.12665 11.8129 4.94675 12.4966 5.90859 12.9066C6.87042 13.3166 7.93156 13.4349 8.96007 13.2467C9.98857 13.0584 10.9391 12.5721 11.6934 11.848L12.358 13.0447Z" fill="#EDEFF0"/>
</svg>
