<svg width="200" height="200" viewBox="0 0 200 200" fill="none" xmlns="http://www.w3.org/2000/svg">
<g clip-path="url(#clip0_496_427)">
<path d="M94.0937 30.875C97.6875 32.5 100 36.0625 100 40V160C100 163.938 97.6875 167.5 94.0937 169.125C90.5 170.75 86.2813 170.094 83.3438 167.469L41.1875 130H20C8.96875 130 0 121.031 0 110V90C0 78.9687 8.96875 70 20 70H41.1875L83.3438 32.5312C86.2813 29.9062 90.5 29.2812 94.0937 30.875Z" fill="#EDEFF0"/>
<path d="M128.937 76.7187C135.655 82.2187 139.999 90.5937 139.999 100C139.999 109.406 135.655 117.781 128.937 123.281C125.718 125.906 120.999 125.406 118.374 122.187C115.749 118.969 116.249 114.25 119.468 111.625C122.843 108.875 124.999 104.687 124.999 100C124.999 95.3125 122.843 91.125 119.468 88.3437C116.249 85.7187 115.78 81 118.374 77.7812C120.968 74.5625 125.718 74.0937 128.937 76.6875V76.7187Z" fill="#EDEFF0"/>
<path d="M166.75 30.1562C187.031 46.625 200 71.8125 200 100C200 128.187 187.031 153.344 166.75 169.844C163.531 172.469 158.813 171.969 156.188 168.75C153.563 165.531 154.063 160.812 157.281 158.187C174.219 144.437 185 123.5 185 100C185 76.5 174.219 55.5625 157.281 41.7812C154.063 39.1562 153.594 34.4375 156.188 31.2187C158.781 28 163.531 27.5312 166.75 30.125V30.1562Z" fill="#484A4B"/>
<path d="M147.843 53.4375C161.343 64.4375 170 81.2187 170 100C170 118.781 161.343 135.562 147.843 146.562C144.625 149.187 139.906 148.687 137.281 145.469C134.656 142.25 135.156 137.531 138.375 134.906C148.531 126.656 155 114.094 155 100C155 85.9062 148.531 73.3437 138.375 65.0625C135.156 62.4375 134.687 57.7187 137.281 54.5C139.875 51.2812 144.625 50.8125 147.843 53.4062V53.4375Z" fill="#EDEFF0"/>
</g>
<defs>
<clipPath id="clip0_496_427">
<rect width="200" height="200" fill="white"/>
</clipPath>
</defs>
</svg>
