<svg width="32" height="32" viewBox="0 0 32 32" fill="none" xmlns="http://www.w3.org/2000/svg">
<path d="M6.66666 11.2214C6.69075 9.19996 7.42072 7.25055 8.73027 5.71048C10.0398 4.17041 11.8465 3.13658 13.8378 2.78788C15.8291 2.43918 17.8796 2.79755 19.6345 3.80098C21.3895 4.80441 22.7384 6.38977 23.448 8.28272C25.2718 8.78223 26.8597 9.91164 27.93 11.4706C29.0003 13.0295 29.4838 14.9172 29.2947 16.7987C29.2619 17.1281 29.1078 17.4335 28.8624 17.6555C28.6169 17.8775 28.2976 18.0004 27.9667 18.0001H4.04133C3.85231 18 3.66546 17.9598 3.49317 17.882C3.32089 17.8042 3.16711 17.6907 3.04203 17.549C2.91695 17.4073 2.82343 17.2406 2.76768 17.06C2.71194 16.8794 2.69523 16.6889 2.71866 16.5014C2.86257 15.3546 3.30216 14.2649 3.9943 13.3392C4.68644 12.4135 5.60735 11.6837 6.66666 11.2214ZM4 21.3334C4 20.9798 4.14047 20.6406 4.39052 20.3906C4.64057 20.1405 4.97971 20.0001 5.33333 20.0001H26.6667C27.0203 20.0001 27.3594 20.1405 27.6095 20.3906C27.8595 20.6406 28 20.9798 28 21.3334C28 21.687 27.8595 22.0261 27.6095 22.2762C27.3594 22.5262 27.0203 22.6667 26.6667 22.6667H5.33333C4.97971 22.6667 4.64057 22.5262 4.39052 22.2762C4.14047 22.0261 4 21.687 4 21.3334ZM10.6667 25.3334C10.313 25.3334 9.9739 25.4739 9.72386 25.7239C9.47381 25.974 9.33333 26.3131 9.33333 26.6667C9.33333 27.0203 9.47381 27.3595 9.72386 27.6095C9.9739 27.8596 10.313 28.0001 10.6667 28.0001H22.6667C23.0203 28.0001 23.3594 27.8596 23.6095 27.6095C23.8595 27.3595 24 27.0203 24 26.6667C24 26.3131 23.8595 25.974 23.6095 25.7239C23.3594 25.4739 23.0203 25.3334 22.6667 25.3334H10.6667Z" fill="#EDEFF0"/>
</svg>
