<svg width="32" height="32" viewBox="0 0 32 32" fill="none" xmlns="http://www.w3.org/2000/svg">
<path d="M13.1853 26.208C13.2769 25.8664 13.5004 25.5751 13.8067 25.3984C14.1131 25.2216 14.477 25.1737 14.8186 25.2653C15.1602 25.3569 15.4515 25.5804 15.6283 25.8867C15.805 26.193 15.8529 26.557 15.7613 26.8986L15.416 28.1866C15.3244 28.5282 15.1009 28.8195 14.7945 28.9962C14.4882 29.173 14.1242 29.2209 13.7826 29.1293C13.441 29.0377 13.1498 28.8142 12.973 28.5079C12.7963 28.2015 12.7484 27.8376 12.84 27.496L13.1853 26.208ZM10.2586 23.7253C10.6 23.8169 10.891 24.0402 11.0677 24.3462C11.2445 24.6522 11.2925 25.0159 11.2013 25.3573L10.856 26.6453C10.8114 26.8152 10.7336 26.9745 10.6273 27.1143C10.5209 27.254 10.388 27.3713 10.2361 27.4596C10.0842 27.5478 9.91646 27.6051 9.74238 27.6283C9.5683 27.6515 9.39135 27.64 9.2217 27.5946C9.05205 27.5493 8.89304 27.4708 8.7538 27.3638C8.61456 27.2567 8.49784 27.1232 8.41034 26.971C8.32283 26.8187 8.26627 26.6507 8.2439 26.4765C8.22153 26.3023 8.23379 26.1254 8.27998 25.956L8.62531 24.668C8.67064 24.4988 8.74885 24.3402 8.85547 24.2013C8.9621 24.0624 9.09504 23.9458 9.24671 23.8583C9.39839 23.7708 9.56582 23.714 9.73945 23.6911C9.91308 23.6683 10.0895 23.6799 10.2586 23.7253ZM20.036 23.7253C20.3773 23.8169 20.6683 24.0402 20.8451 24.3462C21.0218 24.6522 21.0699 25.0159 20.9786 25.3573L20.6346 26.6453C20.59 26.8152 20.5123 26.9745 20.4059 27.1143C20.2996 27.254 20.1666 27.3713 20.0148 27.4596C19.8629 27.5478 19.6951 27.6051 19.521 27.6283C19.347 27.6515 19.17 27.64 19.0004 27.5946C18.8307 27.5493 18.6717 27.4708 18.5325 27.3638C18.3932 27.2567 18.2765 27.1232 18.189 26.971C18.1015 26.8187 18.0449 26.6507 18.0226 26.4765C18.0002 26.3023 18.0125 26.1254 18.0586 25.956L18.4026 24.668C18.448 24.4988 18.5262 24.3402 18.6328 24.2013C18.7394 24.0624 18.8724 23.9458 19.024 23.8583C19.1757 23.7708 19.3432 23.714 19.5168 23.6911C19.6904 23.6683 19.8668 23.6799 20.036 23.7253ZM16.1986 20.1133C16.3678 20.1586 16.5264 20.2368 16.6653 20.3435C16.8042 20.4501 16.9208 20.583 17.0083 20.7347C17.0958 20.8864 17.1526 21.0538 17.1755 21.2274C17.1983 21.4011 17.1867 21.5775 17.1413 21.7466L16.796 23.0346C16.7506 23.2038 16.6724 23.3623 16.5658 23.5012C16.4592 23.6401 16.3262 23.7567 16.1745 23.8442C16.0229 23.9318 15.8555 23.9886 15.6818 24.0114C15.5082 24.0342 15.3318 24.0226 15.1626 23.9773C14.9935 23.9319 14.8349 23.8537 14.696 23.7471C14.5571 23.6405 14.4406 23.5075 14.353 23.3559C14.2655 23.2042 14.2087 23.0368 14.1859 22.8631C14.163 22.6895 14.1746 22.5131 14.22 22.344L14.5666 21.056C14.6582 20.7146 14.8815 20.4236 15.1875 20.2469C15.4936 20.0701 15.8572 20.0221 16.1986 20.1133ZM15.3333 2.66663C17.0966 2.66608 18.8181 3.20341 20.268 4.20687C21.718 5.21033 22.8273 6.63218 23.448 8.28263C25.0996 8.73558 26.5623 9.70641 27.6211 11.0524C28.68 12.3984 29.2791 14.0486 29.3304 15.7604C29.3818 17.4722 28.8826 19.1554 27.9063 20.5624C26.93 21.9694 25.5281 23.0262 23.9066 23.5773C24.223 23.1619 24.4549 22.6885 24.5893 22.184L24.936 20.896C25.1875 19.9622 25.0922 18.9689 24.6677 18.1C24.2432 17.2311 23.5184 16.5454 22.6272 16.1698C21.7361 15.7942 20.7391 15.7541 19.8207 16.057C18.9023 16.3599 18.1248 16.9852 17.632 17.8173C16.6876 17.3489 15.5966 17.2723 14.596 17.604C14.1641 16.972 13.5601 16.4772 12.8554 16.1783C12.1508 15.8794 11.3752 15.7889 10.6207 15.9176C9.86613 16.0463 9.16439 16.3889 8.59871 16.9045C8.03304 17.4201 7.62718 18.0872 7.42931 18.8266L7.08398 20.1133C6.90223 20.7916 6.90223 21.5057 7.08398 22.184C6.76624 22.5019 6.50435 22.871 6.30931 23.276C5.1827 22.703 4.24217 21.8216 3.59739 20.7345C2.95261 19.6474 2.63015 18.3994 2.6676 17.136C2.70506 15.8727 3.10088 14.646 3.80893 13.599C4.51698 12.552 5.50807 11.7278 6.66665 11.2226C6.69575 8.94332 7.62168 6.76724 9.24385 5.16578C10.866 3.56433 13.0538 2.66644 15.3333 2.66663ZM11.6386 18.5733C11.8078 18.6186 11.9664 18.6968 12.1053 18.8035C12.2442 18.9101 12.3608 19.043 12.4483 19.1947C12.5358 19.3464 12.5926 19.5138 12.6155 19.6874C12.6383 19.8611 12.6267 20.0375 12.5813 20.2066L12.236 21.4946C12.1906 21.6638 12.1124 21.8223 12.0058 21.9612C11.8992 22.1001 11.7662 22.2167 11.6145 22.3042C11.4629 22.3918 11.2955 22.4486 11.1218 22.4714C10.9482 22.4942 10.7718 22.4826 10.6026 22.4373C10.4335 22.3919 10.2749 22.3137 10.136 22.2071C9.99712 22.1005 9.88057 21.9675 9.79304 21.8159C9.7055 21.6642 9.6487 21.4968 9.62587 21.3231C9.60304 21.1495 9.61463 20.9731 9.65998 20.804L10.0066 19.516C10.0982 19.1746 10.3215 18.8836 10.6275 18.7069C10.9336 18.5301 11.2972 18.4821 11.6386 18.5733ZM21.4173 18.5733C21.5865 18.6186 21.745 18.6968 21.884 18.8035C22.0229 18.9101 22.1394 19.043 22.227 19.1947C22.3145 19.3464 22.3713 19.5138 22.3941 19.6874C22.417 19.8611 22.4054 20.0375 22.36 20.2066L22.0133 21.4946C21.9718 21.6679 21.896 21.831 21.7905 21.9745C21.6849 22.1179 21.5516 22.2388 21.3985 22.3298C21.2455 22.4209 21.0757 22.4804 20.8992 22.5048C20.7228 22.5292 20.5432 22.518 20.3712 22.4719C20.1992 22.4257 20.0381 22.3456 19.8976 22.2361C19.757 22.1267 19.6398 21.9902 19.5529 21.8347C19.4659 21.6793 19.4111 21.508 19.3914 21.3309C19.3718 21.1539 19.3879 20.9747 19.4386 20.804L19.784 19.516C19.8293 19.3468 19.9075 19.1882 20.0141 19.0493C20.1208 18.9104 20.2537 18.7938 20.4054 18.7063C20.5571 18.6188 20.7245 18.562 20.8981 18.5391C21.0717 18.5163 21.2482 18.5279 21.4173 18.5733Z" fill="#EDEFF0"/>
</svg>
