<svg width="32" height="32" viewBox="0 0 32 32" fill="none" xmlns="http://www.w3.org/2000/svg">
<path fill-rule="evenodd" clip-rule="evenodd" d="M6.66666 13.888C6.69075 11.8666 7.42072 9.91718 8.73026 8.37711C10.0398 6.83704 11.8465 5.80321 13.8378 5.4545C15.8291 5.1058 17.8796 5.46418 19.6345 6.46761C21.3895 7.47104 22.7384 9.05639 23.448 10.9493C25.3137 11.4639 26.9298 12.6371 27.9969 14.2517C29.0639 15.8664 29.5097 17.813 29.2517 19.7311C28.9936 21.6492 28.0492 23.4088 26.5933 24.684C25.1374 25.9592 23.2687 26.6636 21.3333 26.6667H9.33333C7.80094 26.6677 6.315 26.1407 5.12558 25.1746C3.93617 24.2084 3.11592 22.862 2.80289 21.3619C2.48985 19.8618 2.70314 18.2997 3.40686 16.9385C4.11059 15.5772 5.26177 14.5 6.66666 13.888Z" fill="#EDEFF0"/>
</svg>
