<svg width="32" height="32" viewBox="0 0 32 32" fill="none" xmlns="http://www.w3.org/2000/svg">
<path fill-rule="evenodd" clip-rule="evenodd" d="M16 2.66663C16.3536 2.66663 16.6928 2.8071 16.9428 3.05715C17.1929 3.3072 17.3334 3.64634 17.3334 3.99996V5.28263L18.2054 4.82129C18.518 4.65597 18.8834 4.62161 19.2214 4.72575C19.5593 4.8299 19.842 5.06402 20.0074 5.37663C20.1727 5.68923 20.207 6.0547 20.1029 6.39264C19.9988 6.73058 19.7646 7.01331 19.452 7.17863L17.3334 8.29863V10.8346C18.2867 11.08 19.136 11.5813 19.8054 12.2626L22.0027 10.9946L21.9134 8.59996C21.9001 8.24651 22.0278 7.90228 22.2683 7.64298C22.5089 7.38368 22.8426 7.23055 23.196 7.21729C23.5495 7.20403 23.8937 7.33172 24.153 7.57227C24.4123 7.81281 24.5654 8.14651 24.5787 8.49996L24.6147 9.48663L25.7254 8.84529C25.8771 8.75636 26.0448 8.69832 26.2191 8.67449C26.3933 8.65067 26.5705 8.66155 26.7405 8.70649C26.9105 8.75144 27.0699 8.82957 27.2096 8.93638C27.3493 9.04319 27.4665 9.17657 27.5544 9.32886C27.6423 9.48114 27.6992 9.6493 27.7219 9.82368C27.7446 9.99805 27.7325 10.1752 27.6864 10.3449C27.6404 10.5146 27.5612 10.6735 27.4534 10.8125C27.3457 10.9514 27.2116 11.0677 27.0587 11.1546L25.948 11.7946L26.784 12.32C26.9323 12.4131 27.0608 12.5346 27.1622 12.6774C27.2636 12.8202 27.3358 12.9816 27.3748 13.1523C27.4138 13.323 27.4188 13.4998 27.3895 13.6725C27.3602 13.8451 27.2972 14.0103 27.204 14.1586C27.1109 14.3069 26.9894 14.4354 26.8466 14.5368C26.7038 14.6382 26.5424 14.7104 26.3717 14.7494C26.2009 14.7884 26.0242 14.7934 25.8515 14.7641C25.6789 14.7348 25.5137 14.6718 25.3654 14.5786L23.336 13.304L21.14 14.5706C21.3999 15.5053 21.3999 16.4932 21.14 17.428L23.336 18.696L25.3654 17.4213C25.6649 17.2332 26.0269 17.1717 26.3717 17.2505C26.7165 17.3293 27.0159 17.5418 27.204 17.8413C27.3922 18.1408 27.4536 18.5028 27.3748 18.8476C27.2961 19.1924 27.0835 19.4918 26.784 19.68L25.9494 20.204L27.0587 20.8453C27.2116 20.9322 27.3457 21.0485 27.4534 21.1875C27.5612 21.3264 27.6404 21.4853 27.6864 21.655C27.7325 21.8247 27.7446 22.0019 27.7219 22.1762C27.6992 22.3506 27.6423 22.5188 27.5544 22.6711C27.4665 22.8233 27.3493 22.9567 27.2096 23.0635C27.0699 23.1704 26.9105 23.2485 26.7405 23.2934C26.5705 23.3384 26.3933 23.3492 26.2191 23.3254C26.0448 23.3016 25.8771 23.2436 25.7254 23.1546L24.616 22.5146L24.5787 23.5C24.5654 23.8534 24.4123 24.1871 24.153 24.4277C23.8937 24.6682 23.5495 24.7959 23.196 24.7826C22.8426 24.7694 22.5089 24.6162 22.2683 24.3569C22.0278 24.0976 21.9001 23.7534 21.9134 23.4L22.0027 21.0053L19.8054 19.7373C19.136 20.4173 18.2854 20.92 17.3334 21.1653V23.7013L19.452 24.8213C19.7646 24.9866 19.9988 25.2693 20.1029 25.6073C20.207 25.9452 20.1727 26.3107 20.0074 26.6233C19.842 26.9359 19.5593 27.17 19.2214 27.2742C18.8834 27.3783 18.518 27.3439 18.2054 27.1786L17.3334 26.7173V28C17.3334 28.3536 17.1929 28.6927 16.9428 28.9428C16.6928 29.1928 16.3536 29.3333 16 29.3333C15.6464 29.3333 15.3073 29.1928 15.0572 28.9428C14.8072 28.6927 14.6667 28.3536 14.6667 28V26.7173L13.7947 27.1786C13.6399 27.2605 13.4705 27.311 13.2962 27.3274C13.1219 27.3438 12.946 27.3257 12.7787 27.2742C12.6113 27.2226 12.4558 27.1386 12.321 27.0269C12.1861 26.9152 12.0745 26.7781 11.9927 26.6233C11.9108 26.4685 11.8603 26.2991 11.8439 26.1248C11.8275 25.9505 11.8456 25.7746 11.8972 25.6073C11.9487 25.4399 12.0327 25.2844 12.1444 25.1496C12.2561 25.0147 12.3932 24.9031 12.548 24.8213L14.6667 23.7013V21.1653C13.7281 20.9224 12.8735 20.4282 12.1947 19.736L9.99736 21.0053L10.0867 23.4C10.0932 23.575 10.0651 23.7495 10.0041 23.9137C9.94314 24.0779 9.85041 24.2284 9.73125 24.3567C9.61208 24.4851 9.4688 24.5887 9.30959 24.6616C9.15039 24.7346 8.97837 24.7755 8.80336 24.782C8.62835 24.7884 8.45378 24.7604 8.28961 24.6994C8.12545 24.6384 7.9749 24.5457 7.84657 24.4265C7.71824 24.3073 7.61464 24.1641 7.54168 24.0049C7.46872 23.8457 7.42784 23.6736 7.42136 23.4986L7.38536 22.5133L6.27469 23.1533C6.12291 23.2472 5.95382 23.3097 5.77744 23.337C5.60107 23.3643 5.421 23.356 5.24791 23.3125C5.07483 23.2689 4.91224 23.1911 4.7698 23.0835C4.62736 22.976 4.50796 22.8409 4.41868 22.6864C4.3294 22.5318 4.27205 22.3609 4.25004 22.1838C4.22804 22.0067 4.24181 21.827 4.29056 21.6553C4.3393 21.4836 4.42202 21.3234 4.53381 21.1843C4.6456 21.0451 4.78419 20.9299 4.94136 20.8453L6.05202 20.204L5.21602 19.6786C4.92444 19.487 4.71959 19.1887 4.64544 18.8477C4.57129 18.5068 4.63375 18.1503 4.81942 17.8549C5.00509 17.5595 5.29916 17.3486 5.63854 17.2675C5.97792 17.1865 6.33555 17.2417 6.63469 17.4213L8.66402 18.696L10.86 17.428C10.6004 16.4937 10.6004 15.5063 10.86 14.572L8.66402 13.3053L6.63469 14.5786C6.33555 14.7582 5.97792 14.8134 5.63854 14.7324C5.29916 14.6513 5.00509 14.4404 4.81942 14.145C4.63375 13.8496 4.57129 13.4931 4.64544 13.1522C4.71959 12.8112 4.92444 12.5129 5.21602 12.3213L6.05202 11.796L4.94136 11.156C4.63494 10.9791 4.41132 10.6879 4.31968 10.3462C4.22803 10.0045 4.27588 9.64037 4.45269 9.33396C4.6295 9.02755 4.92079 8.80392 5.26248 8.71228C5.60418 8.62063 5.96828 8.66848 6.27469 8.84529L7.38536 9.48663L7.42136 8.49996C7.43462 8.14651 7.58774 7.81281 7.84704 7.57227C7.97543 7.45316 8.12603 7.36051 8.29023 7.2996C8.45443 7.2387 8.62902 7.21073 8.80402 7.21729C8.97903 7.22386 9.15103 7.26483 9.31021 7.33787C9.46938 7.41091 9.61261 7.51458 9.73172 7.64298C9.85082 7.77137 9.94348 7.92196 10.0044 8.08616C10.0653 8.25036 10.0933 8.42495 10.0867 8.59996L9.99736 10.9946L12.1947 12.264C12.8735 11.5717 13.7281 11.0775 14.6667 10.8346V8.29863L12.548 7.17863C12.2354 7.01331 12.0013 6.73058 11.8972 6.39264C11.793 6.0547 11.8274 5.68923 11.9927 5.37663C12.158 5.06402 12.4407 4.8299 12.7787 4.72575C13.1166 4.62161 13.4821 4.65597 13.7947 4.82129L14.6667 5.28263V3.99996C14.6667 3.64634 14.8072 3.3072 15.0572 3.05715C15.3073 2.8071 15.6464 2.66663 16 2.66663ZM16 18.6666C16.7073 18.6666 17.3855 18.3857 17.8856 17.8856C18.3857 17.3855 18.6667 16.7072 18.6667 16C18.6667 15.2927 18.3857 14.6144 17.8856 14.1143C17.3855 13.6142 16.7073 13.3333 16 13.3333C15.2928 13.3333 14.6145 13.6142 14.1144 14.1143C13.6143 14.6144 13.3334 15.2927 13.3334 16C13.3334 16.7072 13.6143 17.3855 14.1144 17.8856C14.6145 18.3857 15.2928 18.6666 16 18.6666Z" fill="#EDEFF0"/>
</svg>
