<svg width="32" height="32" viewBox="0 0 32 32" fill="none" xmlns="http://www.w3.org/2000/svg">
<path d="M16 25.3333C16.3536 25.3333 16.6928 25.4738 16.9428 25.7238C17.1929 25.9739 17.3333 26.313 17.3333 26.6666V28C17.3333 28.3536 17.1929 28.6927 16.9428 28.9428C16.6928 29.1928 16.3536 29.3333 16 29.3333C15.6464 29.3333 15.3072 29.1928 15.0572 28.9428C14.8072 28.6927 14.6667 28.3536 14.6667 28V26.6666C14.6667 26.313 14.8072 25.9739 15.0572 25.7238C15.3072 25.4738 15.6464 25.3333 16 25.3333ZM24.4853 22.6L25.428 23.5426C25.6709 23.7941 25.8053 24.1309 25.8022 24.4805C25.7992 24.8301 25.659 25.1645 25.4118 25.4117C25.1646 25.6589 24.8301 25.7992 24.4805 25.8022C24.1309 25.8052 23.7941 25.6708 23.5427 25.428L22.6 24.4853C22.3571 24.2338 22.2227 23.897 22.2258 23.5474C22.2288 23.1978 22.369 22.8634 22.6162 22.6162C22.8635 22.369 23.1979 22.2288 23.5475 22.2257C23.8971 22.2227 24.2339 22.3571 24.4853 22.6ZM7.51467 22.6C7.75462 22.3608 8.07659 22.222 8.41519 22.2117C8.75379 22.2013 9.08363 22.3202 9.33771 22.5443C9.5918 22.7683 9.75108 23.0807 9.78321 23.4179C9.81533 23.7552 9.71789 24.092 9.51067 24.36L9.40001 24.4853L8.45734 25.428C8.2174 25.6671 7.89543 25.8059 7.55683 25.8163C7.21823 25.8266 6.88839 25.7077 6.6343 25.4836C6.38022 25.2596 6.22093 24.9472 6.18881 24.61C6.15668 24.2728 6.25413 23.9359 6.46134 23.668L6.57201 23.5426L7.51467 22.6ZM16 7.99996C18.1217 7.99996 20.1566 8.84281 21.6569 10.3431C23.1572 11.8434 24 13.8782 24 16C24 18.1217 23.1572 20.1565 21.6569 21.6568C20.1566 23.1571 18.1217 24 16 24C13.8783 24 11.8434 23.1571 10.3432 21.6568C8.84286 20.1565 8.00001 18.1217 8.00001 16C8.00001 13.8782 8.84286 11.8434 10.3432 10.3431C11.8434 8.84281 13.8783 7.99996 16 7.99996ZM5.33334 14.6666C5.67318 14.667 6.00005 14.7971 6.24717 15.0304C6.49428 15.2637 6.64299 15.5826 6.6629 15.9218C6.68282 16.2611 6.57244 16.5951 6.35432 16.8557C6.1362 17.1163 5.8268 17.2838 5.48934 17.324L5.33334 17.3333H4.00001C3.66017 17.3329 3.3333 17.2028 3.08618 16.9695C2.83907 16.7362 2.69036 16.4174 2.67045 16.0781C2.65053 15.7388 2.76091 15.4048 2.97903 15.1442C3.19715 14.8836 3.50655 14.7161 3.84401 14.676L4.00001 14.6666H5.33334ZM28 14.6666C28.3536 14.6666 28.6928 14.8071 28.9428 15.0571C29.1929 15.3072 29.3333 15.6463 29.3333 16C29.3333 16.3536 29.1929 16.6927 28.9428 16.9428C28.6928 17.1928 28.3536 17.3333 28 17.3333H26.6667C26.3131 17.3333 25.9739 17.1928 25.7239 16.9428C25.4738 16.6927 25.3333 16.3536 25.3333 16C25.3333 15.6463 25.4738 15.3072 25.7239 15.0571C25.9739 14.8071 26.3131 14.6666 26.6667 14.6666H28ZM6.57201 6.57196C6.8016 6.34239 7.10707 6.20448 7.4311 6.18411C7.75513 6.16373 8.07547 6.26229 8.33201 6.46129L8.45734 6.57196L9.40001 7.51463C9.63914 7.75457 9.77797 8.07654 9.78831 8.41514C9.79865 8.75374 9.67972 9.08358 9.45568 9.33766C9.23163 9.59175 8.91927 9.75103 8.58204 9.78316C8.24481 9.81528 7.908 9.71784 7.64001 9.51063L7.51467 9.39996L6.57201 8.45729C6.32205 8.20726 6.18163 7.86818 6.18163 7.51463C6.18163 7.16107 6.32205 6.822 6.57201 6.57196ZM25.428 6.57196C25.678 6.822 25.8184 7.16107 25.8184 7.51463C25.8184 7.86818 25.678 8.20726 25.428 8.45729L24.4853 9.39996C24.3623 9.52731 24.2152 9.62888 24.0525 9.69876C23.8899 9.76864 23.7149 9.80542 23.5379 9.80696C23.3608 9.8085 23.1853 9.77476 23.0214 9.70772C22.8575 9.64068 22.7087 9.54168 22.5835 9.41649C22.4583 9.2913 22.3593 9.14243 22.2922 8.97856C22.2252 8.8147 22.1915 8.63913 22.193 8.46209C22.1945 8.28505 22.2313 8.11009 22.3012 7.94742C22.3711 7.78475 22.4727 7.63762 22.6 7.51463L23.5427 6.57196C23.7927 6.322 24.1318 6.18158 24.4853 6.18158C24.8389 6.18158 25.178 6.322 25.428 6.57196ZM16 2.66663C16.3536 2.66663 16.6928 2.8071 16.9428 3.05715C17.1929 3.3072 17.3333 3.64634 17.3333 3.99996V5.33329C17.3333 5.68691 17.1929 6.02605 16.9428 6.2761C16.6928 6.52615 16.3536 6.66663 16 6.66663C15.6464 6.66663 15.3072 6.52615 15.0572 6.2761C14.8072 6.02605 14.6667 5.68691 14.6667 5.33329V3.99996C14.6667 3.64634 14.8072 3.3072 15.0572 3.05715C15.3072 2.8071 15.6464 2.66663 16 2.66663Z" fill="#EDEFF0"/>
</svg>
