<svg width="32" height="32" viewBox="0 0 32 32" fill="none" xmlns="http://www.w3.org/2000/svg">
<path d="M17.998 12C16.3148 12 14.6879 12.6066 13.4156 13.7085C12.1432 14.8105 11.3105 16.334 11.07 18H11C9.67392 18 8.40216 18.5267 7.46447 19.4644C6.52679 20.4021 6.00001 21.6739 6.00001 23C6.00001 24.326 6.52679 25.5978 7.46447 26.5355C8.40216 27.4732 9.67392 28 11 28H25C26.3261 28 27.5979 27.4732 28.5355 26.5355C29.4732 25.5978 30 24.326 30 23C30 21.6739 29.4732 20.4021 28.5355 19.4644C27.5979 18.5267 26.3261 18 25 18H24.926C24.6856 16.3343 23.8532 14.8111 22.5812 13.7092C21.3092 12.6073 19.6829 12.0005 18 12M17.576 5.63996C17.6377 5.524 17.676 5.39702 17.6887 5.26627C17.7013 5.13552 17.6881 5.00356 17.6497 4.87792C17.6114 4.75229 17.5487 4.63543 17.4651 4.53403C17.3816 4.43264 17.279 4.34868 17.163 4.28696C17.047 4.22524 16.9201 4.18696 16.7893 4.17431C16.6586 4.16166 16.5266 4.17489 16.401 4.21324C16.2753 4.25159 16.1585 4.31432 16.0571 4.39783C15.9557 4.48134 15.8717 4.584 15.81 4.69996L14.958 6.30596C14.8334 6.54015 14.8068 6.81426 14.8843 7.06799C14.9617 7.32173 15.1368 7.53431 15.371 7.65896C15.6052 7.78361 15.8793 7.81013 16.133 7.73267C16.3868 7.65522 16.5994 7.48014 16.724 7.24596L17.576 5.63996ZM10.032 4.14596C9.99353 4.02028 9.93068 3.90342 9.84703 3.80203C9.76339 3.70065 9.6606 3.61673 9.54453 3.55508C9.42845 3.49342 9.30137 3.45523 9.17054 3.44268C9.03971 3.43013 8.90768 3.44348 8.78201 3.48196C8.65633 3.52044 8.53947 3.58329 8.43808 3.66693C8.3367 3.75057 8.25278 3.85337 8.19112 3.96944C8.12947 4.08551 8.09127 4.21259 8.07873 4.34343C8.06618 4.47426 8.07953 4.60628 8.11801 4.73196L8.65201 6.47196C8.73265 6.72195 8.90843 6.93017 9.14134 7.05162C9.37425 7.17308 9.6456 7.19802 9.89674 7.12104C10.1479 7.04407 10.3587 6.87137 10.4835 6.64026C10.6084 6.40916 10.6373 6.13821 10.564 5.88596L10.032 4.14596ZM6.00001 14C6.00001 15.208 6.35801 16.332 6.97201 17.274C7.70601 16.756 8.54601 16.374 9.45201 16.172C9.97179 14.6077 10.9103 13.2158 12.1655 12.1474C13.4208 11.0791 14.9448 10.3751 16.572 10.112C15.7766 9.17597 14.713 8.50667 13.525 8.19447C12.3371 7.88226 11.0819 7.94219 9.92903 8.36616C8.7762 8.79013 7.78126 9.55772 7.07862 10.5652C6.37598 11.5727 5.99949 12.7716 6.00001 14ZM3.64001 8.42796C3.52405 8.36624 3.39707 8.32796 3.26632 8.31531C3.13557 8.30266 3.00361 8.31589 2.87797 8.35424C2.75233 8.39259 2.63548 8.45532 2.53408 8.53883C2.43268 8.62234 2.34873 8.725 2.28701 8.84096C2.22529 8.95692 2.18701 9.0839 2.17436 9.21465C2.16171 9.3454 2.17494 9.47736 2.21329 9.60299C2.25164 9.72863 2.31436 9.84549 2.39787 9.94688C2.48139 10.0483 2.58405 10.1322 2.70001 10.194L4.30601 11.046C4.54019 11.1706 4.81431 11.1971 5.06804 11.1197C5.32178 11.0422 5.53436 10.8671 5.65901 10.633C5.78366 10.3988 5.81018 10.1247 5.73272 9.87092C5.65527 9.61719 5.48019 9.40461 5.24601 9.27996L3.64001 8.42796ZM4.47201 17.354C4.722 17.2733 4.93022 17.0975 5.05167 16.8646C5.17313 16.6317 5.19806 16.3604 5.12109 16.1092C5.04412 15.8581 4.87142 15.6473 4.64031 15.5224C4.40921 15.3976 4.13825 15.3687 3.88601 15.442L2.14601 15.974C2.01871 16.0109 1.90004 16.0729 1.7969 16.1561C1.69375 16.2394 1.60818 16.3423 1.54518 16.4589C1.48217 16.5756 1.44298 16.7035 1.42988 16.8354C1.41678 16.9674 1.43004 17.1005 1.46889 17.2273C1.50773 17.354 1.57138 17.4718 1.65614 17.5737C1.7409 17.6756 1.84508 17.7597 1.96261 17.8209C2.08015 17.8822 2.2087 17.9195 2.34078 17.9307C2.47287 17.9419 2.60585 17.9267 2.73201 17.886L4.47201 17.354Z" fill="#EDEFF0"/>
</svg>
