<svg width="200" height="200" viewBox="0 0 200 200" fill="none" xmlns="http://www.w3.org/2000/svg">
<g clip-path="url(#clip0_2112_151)">
<path d="M154.153 44.0769C171.317 51.2 186.899 61.6534 200 74.8333L152.664 122.248L67.5 37.0846C77.9323 34.6307 88.8125 33.3333 100 33.3333C118.583 33.3023 136.989 36.9538 154.153 44.0769Z" fill="#EDEFF0" fill-opacity="0.6"/>
<path fill-rule="evenodd" clip-rule="evenodd" d="M149.028 172.413L161.756 159.685L138.353 136.583L45.8467 44.0769L23.1633 21.0923L10.4354 33.8202L29.0344 52.4192C18.3978 58.6141 8.64254 66.1626 0 74.8333L100 175L125.786 149.171L149.028 172.413Z" fill="#EDEFF0" fill-opacity="0.6"/>
<path d="M154.153 44.0769C171.317 51.2 186.899 61.6534 200 74.8333L152.664 122.248L67.5 37.0846C77.9323 34.6307 88.8125 33.3333 100 33.3333C118.583 33.3023 136.989 36.9538 154.153 44.0769Z" stroke="#EDEFF0" stroke-opacity="0.6"/>
<path fill-rule="evenodd" clip-rule="evenodd" d="M149.028 172.413L161.756 159.685L138.353 136.583L45.8467 44.0769L23.1633 21.0923L10.4354 33.8202L29.0344 52.4192C18.3978 58.6141 8.64254 66.1626 0 74.8333L100 175L125.786 149.171L149.028 172.413Z" stroke="#EDEFF0" stroke-opacity="0.6"/>
</g>
<defs>
<clipPath id="clip0_2112_151">
<rect width="200" height="200" fill="white"/>
</clipPath>
</defs>
</svg>
