<svg width="200" height="200" viewBox="0 0 200 200" fill="none" xmlns="http://www.w3.org/2000/svg">
<g clip-path="url(#clip0_2112_157)">
<path d="M87.5002 63.9166V29.1666C87.5002 22.25 93.0835 16.6666 100 16.6666C106.917 16.6666 112.5 22.25 112.5 29.1666V75L183.333 116.667V133.333L145.917 122.333L87.5002 63.9166ZM164.834 188.417L176.583 176.667L112.5 112.5L79.6668 79.6666L23.4168 23.4166L11.5835 35.1666L64.7502 88.3333L16.6668 116.667V133.333L87.5002 112.5V158.333L66.6668 170.833V183.333L100 175L133.333 183.333V170.833L112.5 158.333V136.083L164.834 188.417Z" fill="#EDEFF0" fill-opacity="0.6"/>
</g>
<defs>
<clipPath id="clip0_2112_157">
<rect width="200" height="200" fill="white"/>
</clipPath>
</defs>
</svg>
