<svg width="16" height="16" viewBox="0 0 16 16" fill="none" xmlns="http://www.w3.org/2000/svg">
<g clip-path="url(#clip0_198_992)">
<path fill-rule="evenodd" clip-rule="evenodd" d="M7.997 0C7.28485 1.74599 6.85532 2.88808 6.06243 4.58217C6.54857 5.09748 7.14528 5.69757 8.11433 6.37533C7.07251 5.94662 6.36185 5.51621 5.83077 5.06957C4.81603 7.18698 3.22623 10.2031 0 16C2.53571 14.5361 4.50134 13.6336 6.33321 13.2892C6.25456 12.9509 6.20983 12.5849 6.21286 12.2031L6.21588 12.1219C6.25612 10.4973 7.10121 9.24801 8.10231 9.33283C9.1034 9.41766 9.88154 10.8042 9.8413 12.4287C9.83374 12.7344 9.79926 13.0285 9.73901 13.3012C11.551 13.6557 13.4956 14.5559 15.997 16C15.5038 15.0919 15.0635 14.2734 14.6431 13.4938C13.9809 12.9805 13.2901 12.3125 11.8812 11.5893C12.8496 11.841 13.543 12.1313 14.0835 12.4558C9.80898 4.49739 9.46284 3.43988 7.997 0Z" fill="#0C0E0F"/>
</g>
<defs>
<clipPath id="clip0_198_992">
<rect width="16" height="16" fill="white"/>
</clipPath>
</defs>
</svg>
