<svg width="14" height="14" viewBox="0 0 14 14" fill="none" xmlns="http://www.w3.org/2000/svg">
<path fill-rule="evenodd" clip-rule="evenodd" d="M3.70519 5.3949C3.57397 5.26363 3.50024 5.08561 3.50024 4.9C3.50024 4.71438 3.57397 4.53637 3.70519 4.4051L6.50519 1.6051C6.63646 1.47387 6.81448 1.40015 7.00009 1.40015C7.18571 1.40015 7.36373 1.47387 7.49499 1.6051L10.295 4.4051C10.4225 4.53712 10.4931 4.71394 10.4915 4.89748C10.4899 5.08102 10.4163 5.25658 10.2865 5.38637C10.1567 5.51616 9.98111 5.58977 9.79758 5.59137C9.61404 5.59296 9.43722 5.52241 9.30519 5.3949L7.70009 3.7898V11.9C7.70009 12.0856 7.62634 12.2637 7.49507 12.395C7.36379 12.5262 7.18575 12.6 7.00009 12.6C6.81444 12.6 6.6364 12.5262 6.50512 12.395C6.37384 12.2637 6.30009 12.0856 6.30009 11.9V3.7898L4.69499 5.3949C4.56373 5.52613 4.38571 5.59985 4.20009 5.59985C4.01448 5.59985 3.83646 5.52613 3.70519 5.3949Z" fill="#EDEFF0" fill-opacity="0.8"/>
</svg>
