<svg width="200" height="200" viewBox="0 0 200 200" fill="none" xmlns="http://www.w3.org/2000/svg">
<path d="M156.25 137.5C156.25 138.47 156.024 139.427 155.59 140.295C155.156 141.163 154.526 141.918 153.75 142.5L103.75 180C102.668 180.811 101.352 181.25 100 181.25C98.3424 181.25 96.7527 180.592 95.5806 179.419C94.4085 178.247 93.75 176.658 93.75 175V112.5L53.75 142.5C52.4239 143.495 50.7571 143.922 49.1161 143.687C47.4752 143.453 45.9946 142.576 45 141.25C44.0055 139.924 43.5784 138.257 43.8128 136.616C44.0473 134.975 44.9239 133.495 46.25 132.5L89.586 100L46.25 67.5C44.9239 66.5054 44.0473 65.0248 43.8128 63.3839C43.5784 61.7429 44.0055 60.0761 45 58.75C45.9946 57.4239 47.4752 56.5472 49.1161 56.3128C50.7571 56.0784 52.4239 56.5054 53.75 57.5L93.75 87.5V25C93.75 23.8393 94.0732 22.7015 94.6835 21.7142C95.2937 20.7268 96.1668 19.9289 97.2049 19.4098C98.2431 18.8908 99.4053 18.671 100.561 18.7753C101.717 18.8795 102.821 19.3036 103.75 20L153.75 57.5C154.526 58.0822 155.156 58.8371 155.59 59.7049C156.024 60.5728 156.25 61.5297 156.25 62.5C156.25 63.4703 156.024 64.4272 155.59 65.2951C155.156 66.1629 154.526 66.9178 153.75 67.5L110.414 100L153.75 132.5C154.526 133.082 155.156 133.837 155.59 134.705C156.024 135.573 156.25 136.53 156.25 137.5Z" fill="#161819"/>
</svg>
