<svg width="200" height="200" viewBox="0 0 200 200" fill="none" xmlns="http://www.w3.org/2000/svg">
<path d="M100 129.792C98.8889 129.792 97.8473 129.619 96.875 129.275C95.9028 128.93 95 128.339 94.1667 127.5L64.1667 97.4999C62.5 95.8333 61.7 93.8888 61.7667 91.6666C61.8334 89.4444 62.6334 87.4999 64.1667 85.8333C65.8334 84.1666 67.8139 83.2999 70.1084 83.2333C72.4028 83.1666 74.3806 83.9638 76.0417 85.6249L91.6667 101.25V41.6666C91.6667 39.3055 92.4667 37.3277 94.0667 35.7333C95.6667 34.1388 97.6445 33.3388 100 33.3333C102.356 33.3277 104.336 34.1277 105.942 35.7333C107.547 37.3388 108.344 39.3166 108.333 41.6666V101.25L123.958 85.6249C125.625 83.9583 127.606 83.1583 129.9 83.2249C132.194 83.2916 134.172 84.1611 135.833 85.8333C137.361 87.4999 138.161 89.4444 138.233 91.6666C138.306 93.8888 137.506 95.8333 135.833 97.4999L105.833 127.5C105 128.333 104.097 128.925 103.125 129.275C102.153 129.625 101.111 129.797 100 129.792ZM50 166.667C45.4167 166.667 41.4945 165.036 38.2334 161.775C34.9723 158.514 33.3389 154.589 33.3334 150V133.333C33.3334 130.972 34.1334 128.994 35.7334 127.4C37.3334 125.806 39.3112 125.006 41.6667 125C44.0223 124.994 46.0028 125.794 47.6084 127.4C49.2139 129.006 50.0112 130.983 50 133.333V150H150V133.333C150 130.972 150.8 128.994 152.4 127.4C154 125.806 155.978 125.006 158.333 125C160.689 124.994 162.669 125.794 164.275 127.4C165.881 129.006 166.678 130.983 166.667 133.333V150C166.667 154.583 165.036 158.508 161.775 161.775C158.514 165.042 154.589 166.672 150 166.667H50Z" fill="#EDEFF0"/>
</svg>
