<svg width="24" height="24" viewBox="0 0 24 24" fill="none" xmlns="http://www.w3.org/2000/svg">
<path d="M5 20C4.45 20 3.97933 19.8043 3.588 19.413C3.19667 19.0217 3.00067 18.5507 3 18V11C3 9.76667 3.23767 8.604 3.713 7.512C4.18833 6.42 4.834 5.466 5.65 4.65C6.466 3.834 7.42033 3.18833 8.513 2.713C9.60567 2.23767 10.768 2 12 2C13.232 2 14.3947 2.23767 15.488 2.713C16.5813 3.18833 17.5353 3.834 18.35 4.65C19.1647 5.466 19.8107 6.42033 20.288 7.513C20.7653 8.60567 21.0027 9.768 21 11V21C21 21.55 20.8043 22.021 20.413 22.413C20.0217 22.805 19.5507 23.0007 19 23H13C12.7167 23 12.4793 22.904 12.288 22.712C12.0967 22.52 12.0007 22.2827 12 22C11.9993 21.7173 12.0953 21.48 12.288 21.288C12.4807 21.096 12.718 21 13 21H19V20H17C16.45 20 15.9793 19.8043 15.588 19.413C15.1967 19.0217 15.0007 18.5507 15 18V14C15 13.45 15.196 12.9793 15.588 12.588C15.98 12.1967 16.4507 12.0007 17 12H19V11C19 9.06667 18.3167 7.41667 16.95 6.05C15.5833 4.68333 13.9333 4 12 4C10.0667 4 8.41667 4.68333 7.05 6.05C5.68333 7.41667 5 9.06667 5 11V12H7C7.55 12 8.021 12.196 8.413 12.588C8.805 12.98 9.00067 13.4507 9 14V18C9 18.55 8.80433 19.021 8.413 19.413C8.02167 19.805 7.55067 20.0007 7 20H5Z" fill="#6791C9"/>
</svg>
