<svg width="200" height="200" viewBox="0 0 200 200" fill="none" xmlns="http://www.w3.org/2000/svg">
<path d="M183.333 100C183.333 146 146 183.333 99.9998 183.333C53.9998 183.333 16.6665 146 16.6665 100C16.6665 90.0834 18.4998 80.6667 21.6665 71.8334L37.3332 77.5C34.7498 84.5 33.3332 92.0834 33.3332 100C33.3332 136.75 63.2498 166.667 99.9998 166.667C136.75 166.667 166.666 136.75 166.666 100C166.666 63.25 136.75 33.3334 99.9998 33.3334C92.0832 33.3334 84.5832 34.75 77.5832 37.3334L71.9165 21.5834C80.7498 18.5 90.1665 16.6667 99.9998 16.6667C146 16.6667 183.333 54 183.333 100ZM45.8332 33.3334C38.9165 33.3334 33.3332 38.9167 33.3332 45.8334C33.3332 52.75 38.9165 58.3334 45.8332 58.3334C52.7498 58.3334 58.3332 52.75 58.3332 45.8334C58.3332 38.9167 52.7498 33.3334 45.8332 33.3334ZM91.6665 133.333V66.6667H74.9998V133.333H91.6665ZM125 133.333V66.6667H108.333V133.333H125Z" fill="#EDEFF0"/>
</svg>
