<svg width="200" height="200" viewBox="0 0 200 200" fill="none" xmlns="http://www.w3.org/2000/svg">
<path d="M100 16.6667C77.0252 16.6667 58.3335 35.3584 58.3335 58.3334V83.3334H50.0002C45.5799 83.3334 41.3407 85.0894 38.215 88.215C35.0894 91.3406 33.3335 95.5798 33.3335 100V166.667C33.3335 171.087 35.0894 175.326 38.215 178.452C41.3407 181.577 45.5799 183.333 50.0002 183.333H150C154.42 183.333 158.66 181.577 161.785 178.452C164.911 175.326 166.667 171.087 166.667 166.667V100C166.667 95.5798 164.911 91.3406 161.785 88.215C158.66 85.0894 154.42 83.3334 150 83.3334H141.667V58.3334C141.667 35.3584 122.975 16.6667 100 16.6667ZM75.0002 58.3334C75.0002 44.5501 86.2168 33.3334 100 33.3334C113.783 33.3334 125 44.5501 125 58.3334V83.3334H75.0002V58.3334ZM108.333 147.692V166.667H91.6668V147.692C88.7534 146.023 86.414 143.511 84.9571 140.486C83.5002 137.462 82.9942 134.066 83.5059 130.748C84.0175 127.43 85.5228 124.345 87.8232 121.9C90.1236 119.454 93.1111 117.763 96.3918 117.05C98.8288 116.51 101.356 116.524 103.787 117.091C106.218 117.658 108.49 118.764 110.436 120.327C112.383 121.89 113.953 123.87 115.031 126.121C116.11 128.373 116.669 130.837 116.667 133.333C116.662 136.248 115.889 139.11 114.426 141.63C112.963 144.151 110.862 146.242 108.333 147.692Z" fill="#EDEFF0"/>
</svg>
