<svg width="200" height="200" viewBox="0 0 200 200" fill="none" xmlns="http://www.w3.org/2000/svg">
<path d="M100 27.0833C101.658 27.0833 103.247 27.7417 104.42 28.9138C105.592 30.0859 106.25 31.6756 106.25 33.3333C106.25 34.9909 105.592 36.5806 104.42 37.7527C103.247 38.9248 101.658 39.5833 100 39.5833C83.9767 39.5833 68.6095 45.9486 57.2791 57.2789C45.9488 68.6092 39.5835 83.9764 39.5835 99.9999C39.5835 116.023 45.9488 131.391 57.2791 142.721C68.6095 154.051 83.9767 160.417 100 160.417C101.658 160.417 103.247 161.075 104.42 162.247C105.592 163.419 106.25 165.009 106.25 166.667C106.25 168.324 105.592 169.914 104.42 171.086C103.247 172.258 101.658 172.917 100 172.917C80.6615 172.917 62.1148 165.234 48.4403 151.56C34.7658 137.885 27.0835 119.339 27.0835 99.9999C27.0835 80.6612 34.7658 62.1146 48.4403 48.44C62.1148 34.7655 80.6615 27.0833 100 27.0833Z" fill="#EDEFF0"/>
<path d="M137.25 79.4168C136.146 78.232 135.545 76.6649 135.574 75.0458C135.602 73.4266 136.258 71.8817 137.403 70.7366C138.548 69.5915 140.093 68.9355 141.712 68.907C143.332 68.8784 144.899 69.4794 146.083 70.5834L171.083 95.5834C172.254 96.7553 172.911 98.3439 172.911 100C172.911 101.656 172.254 103.245 171.083 104.417L146.083 129.417C145.511 130.031 144.821 130.523 144.055 130.865C143.288 131.207 142.46 131.39 141.621 131.405C140.782 131.42 139.948 131.265 139.17 130.951C138.392 130.637 137.685 130.169 137.092 129.575C136.498 128.982 136.03 128.275 135.716 127.497C135.401 126.719 135.247 125.885 135.262 125.046C135.277 124.207 135.46 123.379 135.802 122.612C136.144 121.846 136.636 121.156 137.25 120.583L151.583 106.25H83.3335C81.6759 106.25 80.0862 105.592 78.9141 104.42C77.742 103.247 77.0835 101.658 77.0835 100C77.0835 98.3425 77.742 96.7528 78.9141 95.5807C80.0862 94.4086 81.6759 93.7501 83.3335 93.7501H151.583L137.25 79.4168Z" fill="#EDEFF0"/>
</svg>
