<svg width="200" height="200" viewBox="0 0 200 200" fill="none" xmlns="http://www.w3.org/2000/svg">
<g clip-path="url(#clip0_2112_181)">
<path d="M99.9998 116.667C113.833 116.667 124.916 105.5 124.916 91.6666L125 41.6666C125 27.8333 113.833 16.6666 99.9998 16.6666C86.1665 16.6666 74.9998 27.8333 74.9998 41.6666V91.6666C74.9998 105.5 86.1665 116.667 99.9998 116.667ZM144.166 91.6666C144.166 116.667 123 134.167 99.9998 134.167C76.9998 134.167 55.8332 116.667 55.8332 91.6666H41.6665C41.6665 120.083 64.3332 143.583 91.6665 147.667V175H108.333V147.667C135.667 143.667 158.333 120.167 158.333 91.6666H144.166Z" fill="#161819"/>
</g>
<defs>
<clipPath id="clip0_2112_181">
<rect width="200" height="200" fill="white"/>
</clipPath>
</defs>
</svg>
