<svg width="200" height="200" viewBox="0 0 200 200" fill="none" xmlns="http://www.w3.org/2000/svg">
<g clip-path="url(#clip0_2112_163)">
<path d="M158.333 91.6666H144.167C144.167 97.8333 142.833 103.583 140.583 108.75L150.833 119C155.5 110.833 158.333 101.583 158.333 91.6666ZM124.833 93.0833C124.833 92.5833 125 92.1666 125 91.6666V41.6666C125 27.8333 113.833 16.6666 100 16.6666C86.1667 16.6666 75 27.8333 75 41.6666V43.1666L124.833 93.0833ZM35.5833 25L25 35.5833L75.0833 85.6666V91.6666C75.0833 105.5 86.1667 116.667 100 116.667C101.833 116.667 103.667 116.417 105.417 116L119.25 129.833C113.333 132.583 106.75 134.167 100 134.167C77 134.167 55.8333 116.667 55.8333 91.6666H41.6667C41.6667 120.083 64.3333 143.583 91.6667 147.667V175H108.333V147.667C115.917 146.583 123.083 143.917 129.5 140.167L164.417 175L175 164.417L35.5833 25Z" fill="#EDEFF0" fill-opacity="0.6"/>
</g>
<defs>
<clipPath id="clip0_2112_163">
<rect width="200" height="200" fill="white"/>
</clipPath>
</defs>
</svg>
