<svg width="200" height="200" viewBox="0 0 200 200" fill="none" xmlns="http://www.w3.org/2000/svg">
<path d="M175 46.8V128.8C175 130.317 174.595 131.594 173.783 132.633C172.972 133.667 171.964 134.425 170.758 134.908C169.547 135.386 168.311 135.547 167.05 135.392C165.789 135.236 164.625 134.625 163.558 133.558L74.7751 44.775C73.7085 43.7084 73.0974 42.5417 72.9418 41.275C72.7863 40.0195 72.9501 38.7889 73.4335 37.5834C73.9113 36.3723 74.6696 35.3611 75.7085 34.55C76.7363 33.7389 78.014 33.3334 79.5418 33.3334H161.542C165.375 33.3334 168.578 34.6195 171.15 37.1917C173.722 39.7639 175.006 42.9667 175 46.8ZM40.0835 33.6667V45.4584L20.9668 26.35C20.1835 25.5723 19.7668 24.6139 19.7168 23.475C19.6613 22.3473 20.0779 21.3389 20.9668 20.45C21.8502 19.5611 22.8307 19.1167 23.9085 19.1167C24.9863 19.1167 25.9696 19.5611 26.8585 20.45L176.667 170.25C177.445 171.028 177.861 171.983 177.917 173.117C177.972 174.25 177.556 175.261 176.667 176.15C175.778 177.039 174.795 177.481 173.717 177.475C172.639 177.469 171.656 177.025 170.767 176.142L144.617 150H125.325V159.933C125.325 161.872 124.686 163.478 123.408 164.75C122.131 166.028 120.525 166.667 118.592 166.667H81.7335C79.8001 166.667 78.1946 166.028 76.9168 164.75C75.639 163.472 75.0001 161.867 75.0001 159.933V150H38.4668C34.6279 150 31.4251 148.717 28.8585 146.15C26.2918 143.583 25.0057 140.378 25.0001 136.533V46.8C25.0001 42.8334 26.2863 39.6528 28.8585 37.2584C31.4307 34.8639 34.1029 33.6695 36.8752 33.675L40.0835 33.6667Z" fill="#EDEFF0"/>
</svg>
