<svg width="200" height="200" viewBox="0 0 200 200" fill="none" xmlns="http://www.w3.org/2000/svg">
<g clip-path="url(#clip0_2112_166)">
<path d="M166.667 155.75L65.3335 51.1666L43.9168 29.0833L33.3335 39.6666L56.6668 62.9999V63.0833C52.3335 71.3333 50.0002 81.0832 50.0002 91.5832V133.25L33.3335 149.917V158.25H147.75L164.417 174.917L175 164.333L166.667 155.75ZM100 183.333C109.25 183.333 116.667 175.917 116.667 166.667H83.3335C83.3335 175.917 90.7502 183.333 100 183.333ZM150 122.333V91.6666C150 65.9999 136.333 44.6666 112.5 38.9999V33.3333C112.5 26.4166 106.917 20.8333 100 20.8333C93.0835 20.8333 87.5002 26.4166 87.5002 33.3333V38.9999C86.2502 39.2499 85.0835 39.6666 84.0002 39.9999C83.1668 40.2499 82.3335 40.5832 81.5002 40.9166H81.4168C81.3335 40.9166 81.3335 40.9166 81.2502 40.9999C79.3335 41.7499 77.4168 42.6666 75.5835 43.5833C75.5835 43.5833 75.5002 43.5832 75.5002 43.6666L150 122.333Z" fill="#EDEFF0" fill-opacity="0.6"/>
</g>
<defs>
<clipPath id="clip0_2112_166">
<rect width="200" height="200" fill="white"/>
</clipPath>
</defs>
</svg>
