<svg width="200" height="200" viewBox="0 0 200 200" fill="none" xmlns="http://www.w3.org/2000/svg">
<g clip-path="url(#clip0_62_574)">
<path d="M166.667 155.75L65.3333 51.1667L43.9166 29.0834L33.3333 39.6667L56.6666 63V63.0834C52.3333 71.3334 50 81.0834 50 91.5834V133.25L33.3333 149.917V158.25H147.75L164.417 174.917L175 164.333L166.667 155.75ZM100 183.333C109.25 183.333 116.667 175.917 116.667 166.667H83.3333C83.3333 175.917 90.75 183.333 100 183.333ZM150 122.333V91.6667C150 66 136.333 44.6667 112.5 39V33.3334C112.5 26.4167 106.917 20.8334 100 20.8334C93.0833 20.8334 87.5 26.4167 87.5 33.3334V39C86.25 39.25 85.0833 39.6667 84 40C83.1666 40.25 82.3333 40.5834 81.5 40.9167H81.4166C81.3333 40.9167 81.3333 40.9167 81.25 41C79.3333 41.75 77.4166 42.6667 75.5833 43.5834C75.5833 43.5834 75.5 43.5834 75.5 43.6667L150 122.333Z" fill="#EDEFF0"/>
</g>
<defs>
<clipPath id="clip0_62_574">
<rect width="200" height="200" fill="white"/>
</clipPath>
</defs>
</svg>
