<svg width="16" height="16" viewBox="0 0 16 16" fill="none" xmlns="http://www.w3.org/2000/svg">
<path d="M9.66675 12C9.94453 12 10.1807 11.9029 10.3754 11.7087C10.5701 11.5145 10.6672 11.2782 10.6667 11C10.6663 10.7218 10.5692 10.4858 10.3754 10.292C10.1816 10.0982 9.94541 10.0009 9.66675 10C9.38808 9.99912 9.15208 10.0965 8.95875 10.292C8.76541 10.4876 8.66808 10.7236 8.66675 11C8.66541 11.2765 8.76275 11.5127 8.95875 11.7087C9.15475 11.9047 9.39075 12.0018 9.66675 12ZM6.30008 11.9667L10.6334 7.63334L9.70008 6.70001L5.36675 11.0333L6.30008 11.9667ZM6.33341 8.66668C6.61119 8.66668 6.84741 8.56957 7.04208 8.37534C7.23675 8.18112 7.33386 7.9449 7.33341 7.66668C7.33297 7.38845 7.23586 7.15245 7.04208 6.95868C6.8483 6.7649 6.61208 6.66757 6.33341 6.66668C6.05475 6.66579 5.81875 6.76312 5.62541 6.95868C5.43208 7.15423 5.33475 7.39023 5.33341 7.66668C5.33208 7.94312 5.42941 8.17934 5.62541 8.37534C5.82141 8.57134 6.05741 8.66845 6.33341 8.66668ZM8.00008 14.6667C6.47786 14.6667 5.20853 14.1445 4.19208 13.1C3.17564 12.0556 2.66719 10.7556 2.66675 9.20001C2.66675 8.0889 3.10853 6.88068 3.99208 5.57534C4.87564 4.27001 6.21164 2.85601 8.00008 1.33334C9.78897 2.85557 11.1252 4.26957 12.0087 5.57534C12.8923 6.88112 13.3339 8.08934 13.3334 9.20001C13.3334 10.7556 12.8252 12.0556 11.8087 13.1C10.7923 14.1445 9.52275 14.6667 8.00008 14.6667Z" fill="#EDEFF0"/>
</svg>
