<svg width="200" height="200" viewBox="0 0 200 200" fill="none" xmlns="http://www.w3.org/2000/svg">
<path d="M154.475 163.058C139.354 176.162 120.008 183.362 99.9998 183.333C53.9748 183.333 16.6665 146.025 16.6665 100C16.6665 53.9751 53.9748 16.6667 99.9998 16.6667C146.025 16.6667 183.333 53.9751 183.333 100C183.333 117.8 177.75 134.3 168.25 147.833L141.667 100H166.667C166.665 84.6351 161.357 69.7423 151.639 57.8408C141.921 45.9394 128.39 37.76 113.336 34.6864C98.2816 31.6128 82.6276 33.8336 69.0222 40.9731C55.4167 48.1127 44.695 59.7327 38.6709 73.8674C32.6467 88.0022 31.6899 103.784 35.9623 118.543C40.2346 133.302 49.4739 146.132 62.1172 154.863C74.7604 163.594 90.0314 167.69 105.347 166.457C120.662 165.225 135.082 158.74 146.167 148.1L154.475 163.058Z" fill="#EDEFF0"/>
</svg>
