<svg width="16" height="16" viewBox="0 0 16 16" fill="none" xmlns="http://www.w3.org/2000/svg">
<path d="M2.5 10C2.63261 10 2.75979 10.0527 2.85355 10.1464C2.94732 10.2402 3 10.3674 3 10.5V12.8333C3 12.9253 3.07467 13 3.16667 13H5.5C5.63261 13 5.75979 13.0527 5.85355 13.1464C5.94732 13.2402 6 13.3674 6 13.5C6 13.6326 5.94732 13.7598 5.85355 13.8536C5.75979 13.9473 5.63261 14 5.5 14H3.16667C2.85725 14 2.5605 13.8771 2.34171 13.6583C2.12292 13.4395 2 13.1428 2 12.8333V10.5C2 10.3674 2.05268 10.2402 2.14645 10.1464C2.24021 10.0527 2.36739 10 2.5 10ZM13.5 10C13.6326 10 13.7598 10.0527 13.8536 10.1464C13.9473 10.2402 14 10.3674 14 10.5V12.8333C14 13.1428 13.8771 13.4395 13.6583 13.6583C13.4395 13.8771 13.1428 14 12.8333 14H10.5C10.3674 14 10.2402 13.9473 10.1464 13.8536C10.0527 13.7598 10 13.6326 10 13.5C10 13.3674 10.0527 13.2402 10.1464 13.1464C10.2402 13.0527 10.3674 13 10.5 13H12.8333C12.8775 13 12.9199 12.9824 12.9512 12.9512C12.9824 12.9199 13 12.8775 13 12.8333V10.5C13 10.3674 13.0527 10.2402 13.1464 10.1464C13.2402 10.0527 13.3674 10 13.5 10ZM3.16667 3C3.12246 3 3.08007 3.01756 3.04882 3.04882C3.01756 3.08007 3 3.12246 3 3.16667V5.5C3 5.63261 2.94732 5.75979 2.85355 5.85355C2.75979 5.94732 2.63261 6 2.5 6C2.36739 6 2.24021 5.94732 2.14645 5.85355C2.05268 5.75979 2 5.63261 2 5.5V3.16667C2 2.52267 2.52267 2 3.16667 2H5.5C5.63261 2 5.75979 2.05268 5.85355 2.14645C5.94732 2.24021 6 2.36739 6 2.5C6 2.63261 5.94732 2.75979 5.85355 2.85355C5.75979 2.94732 5.63261 3 5.5 3H3.16667ZM10 2.5C10 2.36739 10.0527 2.24021 10.1464 2.14645C10.2402 2.05268 10.3674 2 10.5 2H12.8333C13.4773 2 14 2.52267 14 3.16667V5.5C14 5.63261 13.9473 5.75979 13.8536 5.85355C13.7598 5.94732 13.6326 6 13.5 6C13.3674 6 13.2402 5.94732 13.1464 5.85355C13.0527 5.75979 13 5.63261 13 5.5V3.16667C13 3.12246 12.9824 3.08007 12.9512 3.04882C12.9199 3.01756 12.8775 3 12.8333 3H10.5C10.3674 3 10.2402 2.94732 10.1464 2.85355C10.0527 2.75979 10 2.63261 10 2.5Z" fill="#EDEFF0"/>
</svg>
