<svg width="16" height="16" viewBox="0 0 16 16" fill="none" xmlns="http://www.w3.org/2000/svg">
<path d="M8.66658 14.6667H7.99992C7.63325 14.6667 7.31947 14.5363 7.05859 14.2754C6.7977 14.0145 6.66703 13.7005 6.66658 13.3334V10.6667C6.66658 9.5556 7.05547 8.61115 7.83325 7.83337C8.61103 7.0556 9.55547 6.66671 10.6666 6.66671C11.7777 6.66671 12.7221 7.0556 13.4999 7.83337C14.2777 8.61115 14.6666 9.5556 14.6666 10.6667V13.3334C14.6666 13.7 14.5361 14.014 14.2753 14.2754C14.0144 14.5367 13.7004 14.6672 13.3333 14.6667H12.6666C12.4777 14.6667 12.3195 14.6027 12.1919 14.4747C12.0644 14.3467 12.0004 14.1885 11.9999 14V12C11.9999 11.8112 12.0639 11.6529 12.1919 11.5254C12.3199 11.3978 12.4781 11.3338 12.6666 11.3334H13.6666V10.6667C13.6666 9.83337 13.375 9.12515 12.7919 8.54204C12.2088 7.95893 11.5004 7.66715 10.6666 7.66671C9.83281 7.66626 9.12458 7.95804 8.54192 8.54204C7.95925 9.12604 7.66747 9.83426 7.66658 10.6667V11.3334H8.66658C8.85547 11.3334 9.01392 11.3974 9.14192 11.5254C9.26992 11.6534 9.3337 11.8116 9.33325 12V14C9.33325 14.1889 9.26925 14.3474 9.14125 14.4754C9.01325 14.6034 8.85503 14.6672 8.66658 14.6667ZM5.66659 5.66671C5.94436 5.66671 6.18058 5.5696 6.37525 5.37537C6.56992 5.18115 6.66703 4.94493 6.66658 4.66671C6.66614 4.38849 6.56903 4.15249 6.37525 3.95871C6.18147 3.76493 5.94525 3.6676 5.66659 3.66671C5.38792 3.66582 5.15192 3.76315 4.95859 3.95871C4.76525 4.15426 4.66792 4.39026 4.66659 4.66671C4.66525 4.94315 4.76259 5.17937 4.95859 5.37537C5.15459 5.57137 5.39059 5.66849 5.66659 5.66671ZM5.33325 13.3334H2.66659C2.29992 13.3334 1.98614 13.2029 1.72525 12.942C1.46436 12.6812 1.3337 12.3672 1.33325 12V2.66671C1.33325 2.30004 1.46392 1.98626 1.72525 1.72537C1.98659 1.46449 2.30036 1.33382 2.66659 1.33337H8.66658C9.03325 1.33337 9.34725 1.46404 9.60858 1.72537C9.86992 1.98671 10.0004 2.30049 9.99992 2.66671V5.36671C9.36658 5.44449 8.78058 5.62226 8.24192 5.90004C7.70325 6.17782 7.22814 6.53337 6.81659 6.96671C6.64992 6.86671 6.46947 6.79182 6.27525 6.74204C6.08103 6.69226 5.87814 6.66715 5.66659 6.66671C5.02214 6.66671 4.47214 6.89449 4.01659 7.35004C3.56103 7.8056 3.33325 8.3556 3.33325 9.00004C3.33325 9.60004 3.52503 10.114 3.90859 10.542C4.29214 10.97 4.76703 11.2283 5.33325 11.3167V13.3334ZM5.66659 8.00004C5.72214 8.00004 5.7777 8.0056 5.83325 8.01671C5.88881 8.02782 5.94436 8.04449 5.99992 8.06671C5.84436 8.3556 5.71392 8.6556 5.60859 8.96671C5.50325 9.27782 5.42814 9.6056 5.38325 9.95004C5.17214 9.89449 4.99992 9.77782 4.86659 9.60004C4.73325 9.42226 4.66659 9.22226 4.66659 9.00004C4.66659 8.72226 4.76392 8.48626 4.95859 8.29204C5.15325 8.09782 5.38925 8.00049 5.66659 8.00004Z" fill="#6791C9"/>
</svg>
