<svg width="200" height="200" viewBox="0 0 200 200" fill="none" xmlns="http://www.w3.org/2000/svg">
<path d="M94.0937 30.875C97.6875 32.5 100 36.0625 100 40V160C100 163.938 97.6875 167.5 94.0937 169.125C90.5 170.75 86.2813 170.094 83.3438 167.469L41.1875 130H20C8.96875 130 0 121.031 0 110V90C0 78.9687 8.96875 70 20 70H41.1875L83.3438 32.5312C86.2813 29.9062 90.5 29.2812 94.0937 30.875Z" fill="#EDEFF0"/>
<rect x="116" y="60" width="20" height="80" rx="10" fill="#EDEFF0"/>
<rect x="148" y="45" width="20" height="110" rx="10" fill="#EDEFF0"/>
<rect x="180" y="30" width="20" height="140" rx="10" fill="#EDEFF0"/>
</svg>
