<svg width="32" height="32" viewBox="0 0 32 32" fill="none" xmlns="http://www.w3.org/2000/svg">
<path fill-rule="evenodd" clip-rule="evenodd" d="M18.0986 4.18405C17.8577 4.14154 17.6097 4.16549 17.3813 4.25333C17.1529 4.34116 16.9528 4.48956 16.8024 4.68258C16.652 4.8756 16.557 5.10595 16.5277 5.34887C16.4984 5.5918 16.5358 5.83813 16.636 6.06138C17.3003 7.54124 17.4991 9.18809 17.2059 10.7835C16.9128 12.3789 16.1415 13.8476 14.9945 14.9946C13.8475 16.1416 12.3789 16.9128 10.7834 17.206C9.18802 17.4991 7.54117 17.3004 6.06131 16.6361C5.83799 16.5356 5.59151 16.4979 5.34837 16.527C5.10523 16.5562 4.87464 16.6511 4.68142 16.8015C4.4882 16.952 4.33965 17.1522 4.25177 17.3808C4.16388 17.6094 4.13998 17.8576 4.18264 18.0987C4.70452 21.0555 6.31586 23.7092 8.69861 25.5361C11.0814 27.3629 14.0624 28.2302 17.0533 27.9666C20.0442 27.7031 22.8276 26.3279 24.8542 24.1125C26.8807 21.8971 28.0032 19.0025 28 16.0001C28.0002 13.1813 27.0081 10.4523 25.1977 8.29181C23.3872 6.13128 20.874 4.67703 18.0986 4.18405Z" fill="#EDEFF0"/>
</svg>
