<svg width="32" height="32" viewBox="0 0 32 32" fill="none" xmlns="http://www.w3.org/2000/svg">
<path d="M16 25.3333C16.3536 25.3333 16.6927 25.4738 16.9428 25.7238C17.1928 25.9739 17.3333 26.313 17.3333 26.6666V28C17.3333 28.3536 17.1928 28.6927 16.9428 28.9428C16.6927 29.1928 16.3536 29.3333 16 29.3333C15.6463 29.3333 15.3072 29.1928 15.0572 28.9428C14.8071 28.6927 14.6666 28.3536 14.6666 28V26.6666C14.6666 26.313 14.8071 25.9739 15.0572 25.7238C15.3072 25.4738 15.6463 25.3333 16 25.3333ZM20 22.6666C20.3265 22.6667 20.6418 22.7866 20.8858 23.0036C21.1298 23.2206 21.2858 23.5196 21.324 23.844L21.3333 24V25.3333C21.3329 25.6731 21.2028 26 20.9695 26.2471C20.7362 26.4942 20.4174 26.6429 20.0781 26.6629C19.7389 26.6828 19.4048 26.5724 19.1442 26.3543C18.8836 26.1362 18.7161 25.8268 18.676 25.4893L18.6666 25.3333V24C18.6666 23.6463 18.8071 23.3072 19.0572 23.0571C19.3072 22.8071 19.6463 22.6666 20 22.6666ZM12 22.6666C12.3536 22.6666 12.6927 22.8071 12.9428 23.0571C13.1928 23.3072 13.3333 23.6463 13.3333 24V25.3333C13.3333 25.6869 13.1928 26.0261 12.9428 26.2761C12.6927 26.5261 12.3536 26.6666 12 26.6666C11.6463 26.6666 11.3072 26.5261 11.0572 26.2761C10.8071 26.0261 10.6666 25.6869 10.6666 25.3333V24C10.6666 23.6463 10.8071 23.3072 11.0572 23.0571C11.3072 22.8071 11.6463 22.6666 12 22.6666ZM16 20C16.3536 20 16.6927 20.1404 16.9428 20.3905C17.1928 20.6405 17.3333 20.9797 17.3333 21.3333V22.6666C17.3333 23.0202 17.1928 23.3594 16.9428 23.6094C16.6927 23.8595 16.3536 24 16 24C15.6463 24 15.3072 23.8595 15.0572 23.6094C14.8071 23.3594 14.6666 23.0202 14.6666 22.6666V21.3333C14.6666 20.9797 14.8071 20.6405 15.0572 20.3905C15.3072 20.1404 15.6463 20 16 20ZM15.3333 2.66663C17.0966 2.66608 18.8181 3.20341 20.268 4.20687C21.7179 5.21033 22.8273 6.63218 23.448 8.28263C25.0653 8.72612 26.5025 9.6665 27.5565 10.971C28.6104 12.2754 29.228 13.8781 29.3218 15.5525C29.4157 17.2269 28.9811 18.8885 28.0796 20.3026C27.178 21.7167 25.855 22.8118 24.2973 23.4333L24 23.5453V19.3333C24 18.5219 23.7884 17.7245 23.3862 17.0199C22.984 16.3152 22.405 15.7275 21.7063 15.3149C21.0077 14.9024 20.2135 14.679 19.4022 14.6671C18.5909 14.6551 17.7905 14.8548 17.08 15.2466C16.748 15.4252 16.3769 15.5186 16 15.5186C15.623 15.5186 15.2519 15.4252 14.92 15.2466C14.2284 14.8649 13.4512 14.665 12.6613 14.6657C11.8714 14.6663 11.0945 14.8674 10.4035 15.2502C9.71256 15.633 9.13006 16.1849 8.71061 16.8543C8.29115 17.5237 8.04847 18.2885 8.0053 19.0773L7.99997 19.3333V23.8666C6.61203 23.5826 5.35058 22.864 4.39846 21.815C3.44633 20.7659 2.85299 19.4409 2.70444 18.032C2.55588 16.6231 2.85983 15.2035 3.57223 13.979C4.28462 12.7544 5.36845 11.7885 6.66664 11.2213C6.69609 8.94222 7.62217 6.76648 9.24431 5.16531C10.8664 3.56414 13.054 2.66644 15.3333 2.66663ZM12 17.3333C12.3536 17.3333 12.6927 17.4738 12.9428 17.7238C13.1928 17.9739 13.3333 18.313 13.3333 18.6666V20C13.3333 20.3536 13.1928 20.6927 12.9428 20.9428C12.6927 21.1928 12.3536 21.3333 12 21.3333C11.6463 21.3333 11.3072 21.1928 11.0572 20.9428C10.8071 20.6927 10.6666 20.3536 10.6666 20V18.6666C10.6666 18.313 10.8071 17.9739 11.0572 17.7238C11.3072 17.4738 11.6463 17.3333 12 17.3333ZM20 17.3333C20.3265 17.3333 20.6418 17.4532 20.8858 17.6702C21.1298 17.8873 21.2858 18.1863 21.324 18.5106L21.3333 18.6666V20C21.3329 20.3398 21.2028 20.6667 20.9695 20.9138C20.7362 21.1609 20.4174 21.3096 20.0781 21.3295C19.7389 21.3494 19.4048 21.2391 19.1442 21.0209C18.8836 20.8028 18.7161 20.4934 18.676 20.156L18.6666 20V18.6666C18.6666 18.313 18.8071 17.9739 19.0572 17.7238C19.3072 17.4738 19.6463 17.3333 20 17.3333Z" fill="#EDEFF0"/>
</svg>
