<svg width="200" height="200" viewBox="0 0 200 200" fill="none" xmlns="http://www.w3.org/2000/svg">
<path d="M25 52.0833C25 44.9004 27.8534 38.0116 32.9325 32.9325C38.0116 27.8534 44.9004 25 52.0833 25H147.917C155.1 25 161.988 27.8534 167.067 32.9325C172.147 38.0116 175 44.9004 175 52.0833V147.917C175 155.1 172.147 161.988 167.067 167.067C161.988 172.147 155.1 175 147.917 175H52.0833C44.9004 175 38.0116 172.147 32.9325 167.067C27.8534 161.988 25 155.1 25 147.917V52.0833ZM37.5 147.917C37.5 155.967 44.0333 162.5 52.0833 162.5H147.917C151.784 162.5 155.494 160.964 158.229 158.229C160.964 155.494 162.5 151.784 162.5 147.917V70.8333H37.5V147.917Z" fill="#161819"/>
</svg>
